%TF.GenerationSoftware,KiCad,Pcbnew,9.0.7*%
%TF.CreationDate,2026-04-02T17:20:23+02:00*%
%TF.ProjectId,drivers,64726976-6572-4732-9e6b-696361645f70,rev?*%
%TF.SameCoordinates,Original*%
%TF.FileFunction,Legend,Top*%
%TF.FilePolarity,Positive*%
%FSLAX46Y46*%
G04 Gerber Fmt 4.6, Leading zero omitted, Abs format (unit mm)*
G04 Created by KiCad (PCBNEW 9.0.7) date 2026-04-02 17:20:23*
%MOMM*%
%LPD*%
G01*
G04 APERTURE LIST*
%ADD10C,0.250000*%
%ADD11C,0.500000*%
%ADD12C,0.100000*%
%ADD13C,0.300000*%
%ADD14C,0.400000*%
%ADD15C,0.200000*%
%ADD16C,0.375000*%
%ADD17C,0.800000*%
%ADD18C,1.000000*%
%ADD19C,0.150000*%
%ADD20C,0.062500*%
%ADD21C,0.120000*%
G04 APERTURE END LIST*
D10*
X124986373Y-94444471D02*
X124821416Y-94349233D01*
X124821416Y-94349233D02*
X124704078Y-94171516D01*
X124704078Y-94171516D02*
X124669218Y-94041418D01*
X124669218Y-94041418D02*
X124681978Y-93828842D01*
X124681978Y-93828842D02*
X124789975Y-93451309D01*
X124789975Y-93451309D02*
X125028071Y-93038915D01*
X125028071Y-93038915D02*
X125301025Y-92756620D01*
X125301025Y-92756620D02*
X125478742Y-92639282D01*
X125478742Y-92639282D02*
X125608840Y-92604422D01*
X125608840Y-92604422D02*
X125821416Y-92617182D01*
X125821416Y-92617182D02*
X125986373Y-92712420D01*
X125986373Y-92712420D02*
X126103711Y-92890137D01*
X126103711Y-92890137D02*
X126138571Y-93020234D01*
X126138571Y-93020234D02*
X126125812Y-93232811D01*
X126125812Y-93232811D02*
X126017814Y-93610344D01*
X126017814Y-93610344D02*
X125779719Y-94022737D01*
X125779719Y-94022737D02*
X125506764Y-94305032D01*
X125506764Y-94305032D02*
X125329047Y-94422371D01*
X125329047Y-94422371D02*
X125198950Y-94457230D01*
X125198950Y-94457230D02*
X124986373Y-94444471D01*
X123844432Y-93565228D02*
X123714334Y-93600087D01*
X123714334Y-93600087D02*
X123501758Y-93587328D01*
X123501758Y-93587328D02*
X123089365Y-93349233D01*
X123089365Y-93349233D02*
X122972027Y-93171516D01*
X122972027Y-93171516D02*
X122937167Y-93041418D01*
X122937167Y-93041418D02*
X122949927Y-92828842D01*
X122949927Y-92828842D02*
X123045165Y-92663885D01*
X123045165Y-92663885D02*
X123270501Y-92464068D01*
X123270501Y-92464068D02*
X124831673Y-92045753D01*
X124831673Y-92045753D02*
X123759451Y-91426706D01*
X158257761Y-125021615D02*
X158257761Y-125212092D01*
X158257761Y-125212092D02*
X158162523Y-125402568D01*
X158162523Y-125402568D02*
X158067285Y-125497806D01*
X158067285Y-125497806D02*
X157876809Y-125593044D01*
X157876809Y-125593044D02*
X157495857Y-125688282D01*
X157495857Y-125688282D02*
X157019666Y-125688282D01*
X157019666Y-125688282D02*
X156638714Y-125593044D01*
X156638714Y-125593044D02*
X156448238Y-125497806D01*
X156448238Y-125497806D02*
X156353000Y-125402568D01*
X156353000Y-125402568D02*
X156257761Y-125212092D01*
X156257761Y-125212092D02*
X156257761Y-125021615D01*
X156257761Y-125021615D02*
X156353000Y-124831139D01*
X156353000Y-124831139D02*
X156448238Y-124735901D01*
X156448238Y-124735901D02*
X156638714Y-124640663D01*
X156638714Y-124640663D02*
X157019666Y-124545425D01*
X157019666Y-124545425D02*
X157495857Y-124545425D01*
X157495857Y-124545425D02*
X157876809Y-124640663D01*
X157876809Y-124640663D02*
X158067285Y-124735901D01*
X158067285Y-124735901D02*
X158162523Y-124831139D01*
X158162523Y-124831139D02*
X158257761Y-125021615D01*
X156257761Y-127593044D02*
X156257761Y-126450187D01*
X156257761Y-127021615D02*
X158257761Y-127021615D01*
X158257761Y-127021615D02*
X157972047Y-126831139D01*
X157972047Y-126831139D02*
X157781571Y-126640663D01*
X157781571Y-126640663D02*
X157686333Y-126450187D01*
X166755864Y-81033912D02*
X166920821Y-80938674D01*
X166920821Y-80938674D02*
X167133397Y-80925915D01*
X167133397Y-80925915D02*
X167263495Y-80960774D01*
X167263495Y-80960774D02*
X167441212Y-81078113D01*
X167441212Y-81078113D02*
X167714166Y-81360408D01*
X167714166Y-81360408D02*
X167952262Y-81772801D01*
X167952262Y-81772801D02*
X168060259Y-82150334D01*
X168060259Y-82150334D02*
X168073019Y-82362911D01*
X168073019Y-82362911D02*
X168038159Y-82493008D01*
X168038159Y-82493008D02*
X167920821Y-82670725D01*
X167920821Y-82670725D02*
X167755864Y-82765963D01*
X167755864Y-82765963D02*
X167543288Y-82778723D01*
X167543288Y-82778723D02*
X167413190Y-82743863D01*
X167413190Y-82743863D02*
X167235473Y-82626525D01*
X167235473Y-82626525D02*
X166962518Y-82344230D01*
X166962518Y-82344230D02*
X166724423Y-81931837D01*
X166724423Y-81931837D02*
X166616426Y-81554303D01*
X166616426Y-81554303D02*
X166603666Y-81341727D01*
X166603666Y-81341727D02*
X166638526Y-81211629D01*
X166638526Y-81211629D02*
X166755864Y-81033912D01*
X168405436Y-80081531D02*
X168570393Y-79986293D01*
X168570393Y-79986293D02*
X168782970Y-79973534D01*
X168782970Y-79973534D02*
X168913067Y-80008393D01*
X168913067Y-80008393D02*
X169090784Y-80125732D01*
X169090784Y-80125732D02*
X169363739Y-80408027D01*
X169363739Y-80408027D02*
X169601834Y-80820420D01*
X169601834Y-80820420D02*
X169709832Y-81197953D01*
X169709832Y-81197953D02*
X169722591Y-81410530D01*
X169722591Y-81410530D02*
X169687732Y-81540627D01*
X169687732Y-81540627D02*
X169570393Y-81718344D01*
X169570393Y-81718344D02*
X169405436Y-81813582D01*
X169405436Y-81813582D02*
X169192860Y-81826342D01*
X169192860Y-81826342D02*
X169062762Y-81791482D01*
X169062762Y-81791482D02*
X168885045Y-81674144D01*
X168885045Y-81674144D02*
X168612091Y-81391849D01*
X168612091Y-81391849D02*
X168373995Y-80979456D01*
X168373995Y-80979456D02*
X168265998Y-80601922D01*
X168265998Y-80601922D02*
X168253238Y-80389346D01*
X168253238Y-80389346D02*
X168288098Y-80259248D01*
X168288098Y-80259248D02*
X168405436Y-80081531D01*
D11*
X158793302Y-130199843D02*
G75*
G02*
X140000000Y-57500000I28706698J46199843D01*
G01*
D12*
X101000000Y-77250000D02*
X187500000Y-77750000D01*
D13*
X117000000Y-103000000D02*
X203500000Y-103500000D01*
D11*
X136023560Y-90500000D02*
G75*
G02*
X130976440Y-90500000I-2523560J0D01*
G01*
X130976440Y-90500000D02*
G75*
G02*
X136023560Y-90500000I2523560J0D01*
G01*
D14*
X140405125Y-103000000D02*
G75*
G02*
X132594875Y-103000000I-3905125J0D01*
G01*
X132594875Y-103000000D02*
G75*
G02*
X140405125Y-103000000I3905125J0D01*
G01*
D11*
X134730134Y-77500000D02*
G75*
G02*
X132269866Y-77500000I-1230134J0D01*
G01*
X132269866Y-77500000D02*
G75*
G02*
X134730134Y-77500000I1230134J0D01*
G01*
D15*
X108000000Y-90500000D02*
X194500000Y-91000000D01*
X235469172Y-84500000D02*
G75*
G02*
X135530828Y-84500000I-49969172J0D01*
G01*
X135530828Y-84500000D02*
G75*
G02*
X235469172Y-84500000I49969172J0D01*
G01*
D12*
X136946741Y-102300990D02*
X136851503Y-102253371D01*
X136851503Y-102253371D02*
X136803884Y-102205752D01*
X136803884Y-102205752D02*
X136756265Y-102110514D01*
X136756265Y-102110514D02*
X136756265Y-102062895D01*
X136756265Y-102062895D02*
X136803884Y-101967657D01*
X136803884Y-101967657D02*
X136851503Y-101920038D01*
X136851503Y-101920038D02*
X136946741Y-101872419D01*
X136946741Y-101872419D02*
X137137217Y-101872419D01*
X137137217Y-101872419D02*
X137232455Y-101920038D01*
X137232455Y-101920038D02*
X137280074Y-101967657D01*
X137280074Y-101967657D02*
X137327693Y-102062895D01*
X137327693Y-102062895D02*
X137327693Y-102110514D01*
X137327693Y-102110514D02*
X137280074Y-102205752D01*
X137280074Y-102205752D02*
X137232455Y-102253371D01*
X137232455Y-102253371D02*
X137137217Y-102300990D01*
X137137217Y-102300990D02*
X136946741Y-102300990D01*
X136946741Y-102300990D02*
X136851503Y-102348609D01*
X136851503Y-102348609D02*
X136803884Y-102396228D01*
X136803884Y-102396228D02*
X136756265Y-102491466D01*
X136756265Y-102491466D02*
X136756265Y-102681942D01*
X136756265Y-102681942D02*
X136803884Y-102777180D01*
X136803884Y-102777180D02*
X136851503Y-102824800D01*
X136851503Y-102824800D02*
X136946741Y-102872419D01*
X136946741Y-102872419D02*
X137137217Y-102872419D01*
X137137217Y-102872419D02*
X137232455Y-102824800D01*
X137232455Y-102824800D02*
X137280074Y-102777180D01*
X137280074Y-102777180D02*
X137327693Y-102681942D01*
X137327693Y-102681942D02*
X137327693Y-102491466D01*
X137327693Y-102491466D02*
X137280074Y-102396228D01*
X137280074Y-102396228D02*
X137232455Y-102348609D01*
X137232455Y-102348609D02*
X137137217Y-102300990D01*
D16*
X146460995Y-88827642D02*
X146603852Y-88970500D01*
X146603852Y-88970500D02*
X146460995Y-89113357D01*
X146460995Y-89113357D02*
X146318138Y-88970500D01*
X146318138Y-88970500D02*
X146460995Y-88827642D01*
X146460995Y-88827642D02*
X146460995Y-89113357D01*
X155460995Y-102327642D02*
X155603852Y-102470500D01*
X155603852Y-102470500D02*
X155460995Y-102613357D01*
X155460995Y-102613357D02*
X155318138Y-102470500D01*
X155318138Y-102470500D02*
X155460995Y-102327642D01*
X155460995Y-102327642D02*
X155460995Y-102613357D01*
X149460995Y-96327642D02*
X149603852Y-96470500D01*
X149603852Y-96470500D02*
X149460995Y-96613357D01*
X149460995Y-96613357D02*
X149318138Y-96470500D01*
X149318138Y-96470500D02*
X149460995Y-96327642D01*
X149460995Y-96327642D02*
X149460995Y-96613357D01*
X147960995Y-97827642D02*
X148103852Y-97970500D01*
X148103852Y-97970500D02*
X147960995Y-98113357D01*
X147960995Y-98113357D02*
X147818138Y-97970500D01*
X147818138Y-97970500D02*
X147960995Y-97827642D01*
X147960995Y-97827642D02*
X147960995Y-98113357D01*
X150960995Y-105327642D02*
X151103852Y-105470500D01*
X151103852Y-105470500D02*
X150960995Y-105613357D01*
X150960995Y-105613357D02*
X150818138Y-105470500D01*
X150818138Y-105470500D02*
X150960995Y-105327642D01*
X150960995Y-105327642D02*
X150960995Y-105613357D01*
D11*
X148043232Y-72484476D02*
X148424185Y-72484476D01*
X148424185Y-72484476D02*
X148805137Y-72674952D01*
X148805137Y-72674952D02*
X148995613Y-72865428D01*
X148995613Y-72865428D02*
X149186089Y-73246380D01*
X149186089Y-73246380D02*
X149376566Y-74008285D01*
X149376566Y-74008285D02*
X149376566Y-74960666D01*
X149376566Y-74960666D02*
X149186089Y-75722571D01*
X149186089Y-75722571D02*
X148995613Y-76103523D01*
X148995613Y-76103523D02*
X148805137Y-76294000D01*
X148805137Y-76294000D02*
X148424185Y-76484476D01*
X148424185Y-76484476D02*
X148043232Y-76484476D01*
X148043232Y-76484476D02*
X147662280Y-76294000D01*
X147662280Y-76294000D02*
X147471804Y-76103523D01*
X147471804Y-76103523D02*
X147281327Y-75722571D01*
X147281327Y-75722571D02*
X147090851Y-74960666D01*
X147090851Y-74960666D02*
X147090851Y-74008285D01*
X147090851Y-74008285D02*
X147281327Y-73246380D01*
X147281327Y-73246380D02*
X147471804Y-72865428D01*
X147471804Y-72865428D02*
X147662280Y-72674952D01*
X147662280Y-72674952D02*
X148043232Y-72484476D01*
X150900375Y-72865428D02*
X151090851Y-72674952D01*
X151090851Y-72674952D02*
X151471804Y-72484476D01*
X151471804Y-72484476D02*
X152424185Y-72484476D01*
X152424185Y-72484476D02*
X152805137Y-72674952D01*
X152805137Y-72674952D02*
X152995613Y-72865428D01*
X152995613Y-72865428D02*
X153186090Y-73246380D01*
X153186090Y-73246380D02*
X153186090Y-73627333D01*
X153186090Y-73627333D02*
X152995613Y-74198761D01*
X152995613Y-74198761D02*
X150709899Y-76484476D01*
X150709899Y-76484476D02*
X153186090Y-76484476D01*
D16*
X149460995Y-97827642D02*
X149603852Y-97970500D01*
X149603852Y-97970500D02*
X149460995Y-98113357D01*
X149460995Y-98113357D02*
X149318138Y-97970500D01*
X149318138Y-97970500D02*
X149460995Y-97827642D01*
X149460995Y-97827642D02*
X149460995Y-98113357D01*
X140460995Y-96327642D02*
X140603852Y-96470500D01*
X140603852Y-96470500D02*
X140460995Y-96613357D01*
X140460995Y-96613357D02*
X140318138Y-96470500D01*
X140318138Y-96470500D02*
X140460995Y-96327642D01*
X140460995Y-96327642D02*
X140460995Y-96613357D01*
X140460995Y-94827642D02*
X140603852Y-94970500D01*
X140603852Y-94970500D02*
X140460995Y-95113357D01*
X140460995Y-95113357D02*
X140318138Y-94970500D01*
X140318138Y-94970500D02*
X140460995Y-94827642D01*
X140460995Y-94827642D02*
X140460995Y-95113357D01*
X143460995Y-99327642D02*
X143603852Y-99470500D01*
X143603852Y-99470500D02*
X143460995Y-99613357D01*
X143460995Y-99613357D02*
X143318138Y-99470500D01*
X143318138Y-99470500D02*
X143460995Y-99327642D01*
X143460995Y-99327642D02*
X143460995Y-99613357D01*
X141960995Y-97827642D02*
X142103852Y-97970500D01*
X142103852Y-97970500D02*
X141960995Y-98113357D01*
X141960995Y-98113357D02*
X141818138Y-97970500D01*
X141818138Y-97970500D02*
X141960995Y-97827642D01*
X141960995Y-97827642D02*
X141960995Y-98113357D01*
X153960995Y-97827642D02*
X154103852Y-97970500D01*
X154103852Y-97970500D02*
X153960995Y-98113357D01*
X153960995Y-98113357D02*
X153818138Y-97970500D01*
X153818138Y-97970500D02*
X153960995Y-97827642D01*
X153960995Y-97827642D02*
X153960995Y-98113357D01*
X144960995Y-91827642D02*
X145103852Y-91970500D01*
X145103852Y-91970500D02*
X144960995Y-92113357D01*
X144960995Y-92113357D02*
X144818138Y-91970500D01*
X144818138Y-91970500D02*
X144960995Y-91827642D01*
X144960995Y-91827642D02*
X144960995Y-92113357D01*
X144960995Y-96327642D02*
X145103852Y-96470500D01*
X145103852Y-96470500D02*
X144960995Y-96613357D01*
X144960995Y-96613357D02*
X144818138Y-96470500D01*
X144818138Y-96470500D02*
X144960995Y-96327642D01*
X144960995Y-96327642D02*
X144960995Y-96613357D01*
X152460995Y-105327642D02*
X152603852Y-105470500D01*
X152603852Y-105470500D02*
X152460995Y-105613357D01*
X152460995Y-105613357D02*
X152318138Y-105470500D01*
X152318138Y-105470500D02*
X152460995Y-105327642D01*
X152460995Y-105327642D02*
X152460995Y-105613357D01*
X153960995Y-105327642D02*
X154103852Y-105470500D01*
X154103852Y-105470500D02*
X153960995Y-105613357D01*
X153960995Y-105613357D02*
X153818138Y-105470500D01*
X153818138Y-105470500D02*
X153960995Y-105327642D01*
X153960995Y-105327642D02*
X153960995Y-105613357D01*
X144960995Y-93327642D02*
X145103852Y-93470500D01*
X145103852Y-93470500D02*
X144960995Y-93613357D01*
X144960995Y-93613357D02*
X144818138Y-93470500D01*
X144818138Y-93470500D02*
X144960995Y-93327642D01*
X144960995Y-93327642D02*
X144960995Y-93613357D01*
X144960995Y-85827642D02*
X145103852Y-85970500D01*
X145103852Y-85970500D02*
X144960995Y-86113357D01*
X144960995Y-86113357D02*
X144818138Y-85970500D01*
X144818138Y-85970500D02*
X144960995Y-85827642D01*
X144960995Y-85827642D02*
X144960995Y-86113357D01*
X149460995Y-99327642D02*
X149603852Y-99470500D01*
X149603852Y-99470500D02*
X149460995Y-99613357D01*
X149460995Y-99613357D02*
X149318138Y-99470500D01*
X149318138Y-99470500D02*
X149460995Y-99327642D01*
X149460995Y-99327642D02*
X149460995Y-99613357D01*
X144960995Y-100827642D02*
X145103852Y-100970500D01*
X145103852Y-100970500D02*
X144960995Y-101113357D01*
X144960995Y-101113357D02*
X144818138Y-100970500D01*
X144818138Y-100970500D02*
X144960995Y-100827642D01*
X144960995Y-100827642D02*
X144960995Y-101113357D01*
D13*
X129741089Y-91347939D02*
X129348232Y-92028388D01*
X129348232Y-92028388D02*
X129338662Y-92187820D01*
X129338662Y-92187820D02*
X129426666Y-92321107D01*
X129426666Y-92321107D02*
X129674101Y-92463964D01*
X129674101Y-92463964D02*
X129833534Y-92473534D01*
X129705374Y-91409798D02*
X129864807Y-91419368D01*
X129864807Y-91419368D02*
X130174101Y-91597939D01*
X130174101Y-91597939D02*
X130262105Y-91731227D01*
X130262105Y-91731227D02*
X130252535Y-91890659D01*
X130252535Y-91890659D02*
X130181107Y-92014377D01*
X130181107Y-92014377D02*
X130047819Y-92102380D01*
X130047819Y-92102380D02*
X129888387Y-92092811D01*
X129888387Y-92092811D02*
X129579092Y-91914239D01*
X129579092Y-91914239D02*
X129419660Y-91904670D01*
X128505787Y-92201831D02*
X128408213Y-92227975D01*
X128408213Y-92227975D02*
X128248781Y-92218406D01*
X128248781Y-92218406D02*
X127939486Y-92039834D01*
X127939486Y-92039834D02*
X127851483Y-91906547D01*
X127851483Y-91906547D02*
X127825338Y-91808973D01*
X127825338Y-91808973D02*
X127834908Y-91649541D01*
X127834908Y-91649541D02*
X127906336Y-91525823D01*
X127906336Y-91525823D02*
X128075338Y-91375961D01*
X128075338Y-91375961D02*
X129246217Y-91062225D01*
X129246217Y-91062225D02*
X128442050Y-90597939D01*
X130948547Y-89256560D02*
X130555690Y-89937009D01*
X130555690Y-89937009D02*
X130546120Y-90096441D01*
X130546120Y-90096441D02*
X130634124Y-90229728D01*
X130634124Y-90229728D02*
X130881559Y-90372585D01*
X130881559Y-90372585D02*
X131040992Y-90382155D01*
X130912832Y-89318419D02*
X131072265Y-89327989D01*
X131072265Y-89327989D02*
X131381559Y-89506560D01*
X131381559Y-89506560D02*
X131469563Y-89639848D01*
X131469563Y-89639848D02*
X131459993Y-89799280D01*
X131459993Y-89799280D02*
X131388565Y-89922998D01*
X131388565Y-89922998D02*
X131255277Y-90011001D01*
X131255277Y-90011001D02*
X131095845Y-90001432D01*
X131095845Y-90001432D02*
X130786550Y-89822860D01*
X130786550Y-89822860D02*
X130627118Y-89813291D01*
X129649508Y-88506560D02*
X130391816Y-88935131D01*
X130020662Y-88720846D02*
X129270662Y-90019884D01*
X129270662Y-90019884D02*
X129501523Y-89905735D01*
X129501523Y-89905735D02*
X129696669Y-89853446D01*
X129696669Y-89853446D02*
X129856102Y-89863016D01*
X132712735Y-87486610D02*
X131962735Y-88785648D01*
X132248450Y-88290776D02*
X132089017Y-88281206D01*
X132089017Y-88281206D02*
X131841582Y-88138349D01*
X131841582Y-88138349D02*
X131753578Y-88005062D01*
X131753578Y-88005062D02*
X131727433Y-87907489D01*
X131727433Y-87907489D02*
X131737003Y-87748056D01*
X131737003Y-87748056D02*
X131951289Y-87376903D01*
X131951289Y-87376903D02*
X132084576Y-87288899D01*
X132084576Y-87288899D02*
X132182149Y-87262754D01*
X132182149Y-87262754D02*
X132341582Y-87272324D01*
X132341582Y-87272324D02*
X132589017Y-87415181D01*
X132589017Y-87415181D02*
X132677021Y-87548469D01*
X130856966Y-86415181D02*
X131599274Y-86843752D01*
X131228120Y-86629467D02*
X130478120Y-87928505D01*
X130478120Y-87928505D02*
X130708981Y-87814356D01*
X130708981Y-87814356D02*
X130904127Y-87762067D01*
X130904127Y-87762067D02*
X131063560Y-87771637D01*
X133920193Y-85395231D02*
X133170193Y-86694269D01*
X133455908Y-86199397D02*
X133296475Y-86189827D01*
X133296475Y-86189827D02*
X133049040Y-86046970D01*
X133049040Y-86046970D02*
X132961036Y-85913683D01*
X132961036Y-85913683D02*
X132934891Y-85816110D01*
X132934891Y-85816110D02*
X132944461Y-85656677D01*
X132944461Y-85656677D02*
X133158747Y-85285524D01*
X133158747Y-85285524D02*
X133292034Y-85197520D01*
X133292034Y-85197520D02*
X133389607Y-85171375D01*
X133389607Y-85171375D02*
X133549040Y-85180945D01*
X133549040Y-85180945D02*
X133796475Y-85323802D01*
X133796475Y-85323802D02*
X133884479Y-85457090D01*
X132128161Y-85927694D02*
X132030587Y-85953838D01*
X132030587Y-85953838D02*
X131871155Y-85944269D01*
X131871155Y-85944269D02*
X131561860Y-85765697D01*
X131561860Y-85765697D02*
X131473857Y-85632410D01*
X131473857Y-85632410D02*
X131447712Y-85534836D01*
X131447712Y-85534836D02*
X131457282Y-85375404D01*
X131457282Y-85375404D02*
X131528710Y-85251686D01*
X131528710Y-85251686D02*
X131697712Y-85101824D01*
X131697712Y-85101824D02*
X132868591Y-84788088D01*
X132868591Y-84788088D02*
X132064424Y-84323802D01*
D16*
X147960995Y-88827642D02*
X148103852Y-88970500D01*
X148103852Y-88970500D02*
X147960995Y-89113357D01*
X147960995Y-89113357D02*
X147818138Y-88970500D01*
X147818138Y-88970500D02*
X147960995Y-88827642D01*
X147960995Y-88827642D02*
X147960995Y-89113357D01*
X147960995Y-96327642D02*
X148103852Y-96470500D01*
X148103852Y-96470500D02*
X147960995Y-96613357D01*
X147960995Y-96613357D02*
X147818138Y-96470500D01*
X147818138Y-96470500D02*
X147960995Y-96327642D01*
X147960995Y-96327642D02*
X147960995Y-96613357D01*
X155460995Y-97827642D02*
X155603852Y-97970500D01*
X155603852Y-97970500D02*
X155460995Y-98113357D01*
X155460995Y-98113357D02*
X155318138Y-97970500D01*
X155318138Y-97970500D02*
X155460995Y-97827642D01*
X155460995Y-97827642D02*
X155460995Y-98113357D01*
X155460995Y-103827642D02*
X155603852Y-103970500D01*
X155603852Y-103970500D02*
X155460995Y-104113357D01*
X155460995Y-104113357D02*
X155318138Y-103970500D01*
X155318138Y-103970500D02*
X155460995Y-103827642D01*
X155460995Y-103827642D02*
X155460995Y-104113357D01*
X155460995Y-96327642D02*
X155603852Y-96470500D01*
X155603852Y-96470500D02*
X155460995Y-96613357D01*
X155460995Y-96613357D02*
X155318138Y-96470500D01*
X155318138Y-96470500D02*
X155460995Y-96327642D01*
X155460995Y-96327642D02*
X155460995Y-96613357D01*
X147960995Y-100827642D02*
X148103852Y-100970500D01*
X148103852Y-100970500D02*
X147960995Y-101113357D01*
X147960995Y-101113357D02*
X147818138Y-100970500D01*
X147818138Y-100970500D02*
X147960995Y-100827642D01*
X147960995Y-100827642D02*
X147960995Y-101113357D01*
X149460995Y-100827642D02*
X149603852Y-100970500D01*
X149603852Y-100970500D02*
X149460995Y-101113357D01*
X149460995Y-101113357D02*
X149318138Y-100970500D01*
X149318138Y-100970500D02*
X149460995Y-100827642D01*
X149460995Y-100827642D02*
X149460995Y-101113357D01*
X150960995Y-93327642D02*
X151103852Y-93470500D01*
X151103852Y-93470500D02*
X150960995Y-93613357D01*
X150960995Y-93613357D02*
X150818138Y-93470500D01*
X150818138Y-93470500D02*
X150960995Y-93327642D01*
X150960995Y-93327642D02*
X150960995Y-93613357D01*
D12*
X134327693Y-98372419D02*
X133756265Y-98372419D01*
X134041979Y-98372419D02*
X134041979Y-97372419D01*
X134041979Y-97372419D02*
X133946741Y-97515276D01*
X133946741Y-97515276D02*
X133851503Y-97610514D01*
X133851503Y-97610514D02*
X133756265Y-97658133D01*
X134946741Y-97372419D02*
X135041979Y-97372419D01*
X135041979Y-97372419D02*
X135137217Y-97420038D01*
X135137217Y-97420038D02*
X135184836Y-97467657D01*
X135184836Y-97467657D02*
X135232455Y-97562895D01*
X135232455Y-97562895D02*
X135280074Y-97753371D01*
X135280074Y-97753371D02*
X135280074Y-97991466D01*
X135280074Y-97991466D02*
X135232455Y-98181942D01*
X135232455Y-98181942D02*
X135184836Y-98277180D01*
X135184836Y-98277180D02*
X135137217Y-98324800D01*
X135137217Y-98324800D02*
X135041979Y-98372419D01*
X135041979Y-98372419D02*
X134946741Y-98372419D01*
X134946741Y-98372419D02*
X134851503Y-98324800D01*
X134851503Y-98324800D02*
X134803884Y-98277180D01*
X134803884Y-98277180D02*
X134756265Y-98181942D01*
X134756265Y-98181942D02*
X134708646Y-97991466D01*
X134708646Y-97991466D02*
X134708646Y-97753371D01*
X134708646Y-97753371D02*
X134756265Y-97562895D01*
X134756265Y-97562895D02*
X134803884Y-97467657D01*
X134803884Y-97467657D02*
X134851503Y-97420038D01*
X134851503Y-97420038D02*
X134946741Y-97372419D01*
D16*
X149460995Y-91827642D02*
X149603852Y-91970500D01*
X149603852Y-91970500D02*
X149460995Y-92113357D01*
X149460995Y-92113357D02*
X149318138Y-91970500D01*
X149318138Y-91970500D02*
X149460995Y-91827642D01*
X149460995Y-91827642D02*
X149460995Y-92113357D01*
X150960995Y-91827642D02*
X151103852Y-91970500D01*
X151103852Y-91970500D02*
X150960995Y-92113357D01*
X150960995Y-92113357D02*
X150818138Y-91970500D01*
X150818138Y-91970500D02*
X150960995Y-91827642D01*
X150960995Y-91827642D02*
X150960995Y-92113357D01*
X156960995Y-100827642D02*
X157103852Y-100970500D01*
X157103852Y-100970500D02*
X156960995Y-101113357D01*
X156960995Y-101113357D02*
X156818138Y-100970500D01*
X156818138Y-100970500D02*
X156960995Y-100827642D01*
X156960995Y-100827642D02*
X156960995Y-101113357D01*
X141960995Y-94827642D02*
X142103852Y-94970500D01*
X142103852Y-94970500D02*
X141960995Y-95113357D01*
X141960995Y-95113357D02*
X141818138Y-94970500D01*
X141818138Y-94970500D02*
X141960995Y-94827642D01*
X141960995Y-94827642D02*
X141960995Y-95113357D01*
X153960995Y-99327642D02*
X154103852Y-99470500D01*
X154103852Y-99470500D02*
X153960995Y-99613357D01*
X153960995Y-99613357D02*
X153818138Y-99470500D01*
X153818138Y-99470500D02*
X153960995Y-99327642D01*
X153960995Y-99327642D02*
X153960995Y-99613357D01*
X146460995Y-90327642D02*
X146603852Y-90470500D01*
X146603852Y-90470500D02*
X146460995Y-90613357D01*
X146460995Y-90613357D02*
X146318138Y-90470500D01*
X146318138Y-90470500D02*
X146460995Y-90327642D01*
X146460995Y-90327642D02*
X146460995Y-90613357D01*
X146460995Y-97827642D02*
X146603852Y-97970500D01*
X146603852Y-97970500D02*
X146460995Y-98113357D01*
X146460995Y-98113357D02*
X146318138Y-97970500D01*
X146318138Y-97970500D02*
X146460995Y-97827642D01*
X146460995Y-97827642D02*
X146460995Y-98113357D01*
X147960995Y-93327642D02*
X148103852Y-93470500D01*
X148103852Y-93470500D02*
X147960995Y-93613357D01*
X147960995Y-93613357D02*
X147818138Y-93470500D01*
X147818138Y-93470500D02*
X147960995Y-93327642D01*
X147960995Y-93327642D02*
X147960995Y-93613357D01*
X138960995Y-94827642D02*
X139103852Y-94970500D01*
X139103852Y-94970500D02*
X138960995Y-95113357D01*
X138960995Y-95113357D02*
X138818138Y-94970500D01*
X138818138Y-94970500D02*
X138960995Y-94827642D01*
X138960995Y-94827642D02*
X138960995Y-95113357D01*
X146460995Y-102327642D02*
X146603852Y-102470500D01*
X146603852Y-102470500D02*
X146460995Y-102613357D01*
X146460995Y-102613357D02*
X146318138Y-102470500D01*
X146318138Y-102470500D02*
X146460995Y-102327642D01*
X146460995Y-102327642D02*
X146460995Y-102613357D01*
X156960995Y-99327642D02*
X157103852Y-99470500D01*
X157103852Y-99470500D02*
X156960995Y-99613357D01*
X156960995Y-99613357D02*
X156818138Y-99470500D01*
X156818138Y-99470500D02*
X156960995Y-99327642D01*
X156960995Y-99327642D02*
X156960995Y-99613357D01*
X152460995Y-94827642D02*
X152603852Y-94970500D01*
X152603852Y-94970500D02*
X152460995Y-95113357D01*
X152460995Y-95113357D02*
X152318138Y-94970500D01*
X152318138Y-94970500D02*
X152460995Y-94827642D01*
X152460995Y-94827642D02*
X152460995Y-95113357D01*
X152460995Y-96327642D02*
X152603852Y-96470500D01*
X152603852Y-96470500D02*
X152460995Y-96613357D01*
X152460995Y-96613357D02*
X152318138Y-96470500D01*
X152318138Y-96470500D02*
X152460995Y-96327642D01*
X152460995Y-96327642D02*
X152460995Y-96613357D01*
D13*
X152943919Y-122197368D02*
X153729633Y-122197368D01*
X153729633Y-122197368D02*
X153872490Y-122125939D01*
X153872490Y-122125939D02*
X153943919Y-121983082D01*
X153943919Y-121983082D02*
X153943919Y-121697368D01*
X153943919Y-121697368D02*
X153872490Y-121554510D01*
X153015348Y-122197368D02*
X152943919Y-122054510D01*
X152943919Y-122054510D02*
X152943919Y-121697368D01*
X152943919Y-121697368D02*
X153015348Y-121554510D01*
X153015348Y-121554510D02*
X153158205Y-121483082D01*
X153158205Y-121483082D02*
X153301062Y-121483082D01*
X153301062Y-121483082D02*
X153443919Y-121554510D01*
X153443919Y-121554510D02*
X153515348Y-121697368D01*
X153515348Y-121697368D02*
X153515348Y-122054510D01*
X153515348Y-122054510D02*
X153586776Y-122197368D01*
X154301062Y-122840225D02*
X154372490Y-122911653D01*
X154372490Y-122911653D02*
X154443919Y-123054511D01*
X154443919Y-123054511D02*
X154443919Y-123411653D01*
X154443919Y-123411653D02*
X154372490Y-123554511D01*
X154372490Y-123554511D02*
X154301062Y-123625939D01*
X154301062Y-123625939D02*
X154158205Y-123697368D01*
X154158205Y-123697368D02*
X154015348Y-123697368D01*
X154015348Y-123697368D02*
X153801062Y-123625939D01*
X153801062Y-123625939D02*
X152943919Y-122768796D01*
X152943919Y-122768796D02*
X152943919Y-123697368D01*
X150529003Y-122197368D02*
X151314717Y-122197368D01*
X151314717Y-122197368D02*
X151457574Y-122125939D01*
X151457574Y-122125939D02*
X151529003Y-121983082D01*
X151529003Y-121983082D02*
X151529003Y-121697368D01*
X151529003Y-121697368D02*
X151457574Y-121554510D01*
X150600432Y-122197368D02*
X150529003Y-122054510D01*
X150529003Y-122054510D02*
X150529003Y-121697368D01*
X150529003Y-121697368D02*
X150600432Y-121554510D01*
X150600432Y-121554510D02*
X150743289Y-121483082D01*
X150743289Y-121483082D02*
X150886146Y-121483082D01*
X150886146Y-121483082D02*
X151029003Y-121554510D01*
X151029003Y-121554510D02*
X151100432Y-121697368D01*
X151100432Y-121697368D02*
X151100432Y-122054510D01*
X151100432Y-122054510D02*
X151171860Y-122197368D01*
X150529003Y-123697368D02*
X150529003Y-122840225D01*
X150529003Y-123268796D02*
X152029003Y-123268796D01*
X152029003Y-123268796D02*
X151814717Y-123125939D01*
X151814717Y-123125939D02*
X151671860Y-122983082D01*
X151671860Y-122983082D02*
X151600432Y-122840225D01*
X148114087Y-121554510D02*
X149614087Y-121554510D01*
X149042658Y-121554510D02*
X149114087Y-121697368D01*
X149114087Y-121697368D02*
X149114087Y-121983082D01*
X149114087Y-121983082D02*
X149042658Y-122125939D01*
X149042658Y-122125939D02*
X148971230Y-122197368D01*
X148971230Y-122197368D02*
X148828373Y-122268796D01*
X148828373Y-122268796D02*
X148399801Y-122268796D01*
X148399801Y-122268796D02*
X148256944Y-122197368D01*
X148256944Y-122197368D02*
X148185516Y-122125939D01*
X148185516Y-122125939D02*
X148114087Y-121983082D01*
X148114087Y-121983082D02*
X148114087Y-121697368D01*
X148114087Y-121697368D02*
X148185516Y-121554510D01*
X148114087Y-123697368D02*
X148114087Y-122840225D01*
X148114087Y-123268796D02*
X149614087Y-123268796D01*
X149614087Y-123268796D02*
X149399801Y-123125939D01*
X149399801Y-123125939D02*
X149256944Y-122983082D01*
X149256944Y-122983082D02*
X149185516Y-122840225D01*
X145699171Y-121554510D02*
X147199171Y-121554510D01*
X146627742Y-121554510D02*
X146699171Y-121697368D01*
X146699171Y-121697368D02*
X146699171Y-121983082D01*
X146699171Y-121983082D02*
X146627742Y-122125939D01*
X146627742Y-122125939D02*
X146556314Y-122197368D01*
X146556314Y-122197368D02*
X146413457Y-122268796D01*
X146413457Y-122268796D02*
X145984885Y-122268796D01*
X145984885Y-122268796D02*
X145842028Y-122197368D01*
X145842028Y-122197368D02*
X145770600Y-122125939D01*
X145770600Y-122125939D02*
X145699171Y-121983082D01*
X145699171Y-121983082D02*
X145699171Y-121697368D01*
X145699171Y-121697368D02*
X145770600Y-121554510D01*
X147056314Y-122840225D02*
X147127742Y-122911653D01*
X147127742Y-122911653D02*
X147199171Y-123054511D01*
X147199171Y-123054511D02*
X147199171Y-123411653D01*
X147199171Y-123411653D02*
X147127742Y-123554511D01*
X147127742Y-123554511D02*
X147056314Y-123625939D01*
X147056314Y-123625939D02*
X146913457Y-123697368D01*
X146913457Y-123697368D02*
X146770600Y-123697368D01*
X146770600Y-123697368D02*
X146556314Y-123625939D01*
X146556314Y-123625939D02*
X145699171Y-122768796D01*
X145699171Y-122768796D02*
X145699171Y-123697368D01*
D16*
X144960995Y-97827642D02*
X145103852Y-97970500D01*
X145103852Y-97970500D02*
X144960995Y-98113357D01*
X144960995Y-98113357D02*
X144818138Y-97970500D01*
X144818138Y-97970500D02*
X144960995Y-97827642D01*
X144960995Y-97827642D02*
X144960995Y-98113357D01*
D11*
X125543232Y-111484476D02*
X125924185Y-111484476D01*
X125924185Y-111484476D02*
X126305137Y-111674952D01*
X126305137Y-111674952D02*
X126495613Y-111865428D01*
X126495613Y-111865428D02*
X126686089Y-112246380D01*
X126686089Y-112246380D02*
X126876566Y-113008285D01*
X126876566Y-113008285D02*
X126876566Y-113960666D01*
X126876566Y-113960666D02*
X126686089Y-114722571D01*
X126686089Y-114722571D02*
X126495613Y-115103523D01*
X126495613Y-115103523D02*
X126305137Y-115294000D01*
X126305137Y-115294000D02*
X125924185Y-115484476D01*
X125924185Y-115484476D02*
X125543232Y-115484476D01*
X125543232Y-115484476D02*
X125162280Y-115294000D01*
X125162280Y-115294000D02*
X124971804Y-115103523D01*
X124971804Y-115103523D02*
X124781327Y-114722571D01*
X124781327Y-114722571D02*
X124590851Y-113960666D01*
X124590851Y-113960666D02*
X124590851Y-113008285D01*
X124590851Y-113008285D02*
X124781327Y-112246380D01*
X124781327Y-112246380D02*
X124971804Y-111865428D01*
X124971804Y-111865428D02*
X125162280Y-111674952D01*
X125162280Y-111674952D02*
X125543232Y-111484476D01*
X130686090Y-115484476D02*
X128400375Y-115484476D01*
X129543232Y-115484476D02*
X129543232Y-111484476D01*
X129543232Y-111484476D02*
X129162280Y-112055904D01*
X129162280Y-112055904D02*
X128781328Y-112436857D01*
X128781328Y-112436857D02*
X128400375Y-112627333D01*
D16*
X147960995Y-103827642D02*
X148103852Y-103970500D01*
X148103852Y-103970500D02*
X147960995Y-104113357D01*
X147960995Y-104113357D02*
X147818138Y-103970500D01*
X147818138Y-103970500D02*
X147960995Y-103827642D01*
X147960995Y-103827642D02*
X147960995Y-104113357D01*
X138960995Y-93327642D02*
X139103852Y-93470500D01*
X139103852Y-93470500D02*
X138960995Y-93613357D01*
X138960995Y-93613357D02*
X138818138Y-93470500D01*
X138818138Y-93470500D02*
X138960995Y-93327642D01*
X138960995Y-93327642D02*
X138960995Y-93613357D01*
D12*
X140280074Y-108872419D02*
X139803884Y-108872419D01*
X139803884Y-108872419D02*
X139756265Y-109348609D01*
X139756265Y-109348609D02*
X139803884Y-109300990D01*
X139803884Y-109300990D02*
X139899122Y-109253371D01*
X139899122Y-109253371D02*
X140137217Y-109253371D01*
X140137217Y-109253371D02*
X140232455Y-109300990D01*
X140232455Y-109300990D02*
X140280074Y-109348609D01*
X140280074Y-109348609D02*
X140327693Y-109443847D01*
X140327693Y-109443847D02*
X140327693Y-109681942D01*
X140327693Y-109681942D02*
X140280074Y-109777180D01*
X140280074Y-109777180D02*
X140232455Y-109824800D01*
X140232455Y-109824800D02*
X140137217Y-109872419D01*
X140137217Y-109872419D02*
X139899122Y-109872419D01*
X139899122Y-109872419D02*
X139803884Y-109824800D01*
X139803884Y-109824800D02*
X139756265Y-109777180D01*
D16*
X147960995Y-99327642D02*
X148103852Y-99470500D01*
X148103852Y-99470500D02*
X147960995Y-99613357D01*
X147960995Y-99613357D02*
X147818138Y-99470500D01*
X147818138Y-99470500D02*
X147960995Y-99327642D01*
X147960995Y-99327642D02*
X147960995Y-99613357D01*
X153960995Y-96327642D02*
X154103852Y-96470500D01*
X154103852Y-96470500D02*
X153960995Y-96613357D01*
X153960995Y-96613357D02*
X153818138Y-96470500D01*
X153818138Y-96470500D02*
X153960995Y-96327642D01*
X153960995Y-96327642D02*
X153960995Y-96613357D01*
X152460995Y-99327642D02*
X152603852Y-99470500D01*
X152603852Y-99470500D02*
X152460995Y-99613357D01*
X152460995Y-99613357D02*
X152318138Y-99470500D01*
X152318138Y-99470500D02*
X152460995Y-99327642D01*
X152460995Y-99327642D02*
X152460995Y-99613357D01*
D10*
X147497806Y-109742238D02*
X147497806Y-107742238D01*
X147497806Y-109647000D02*
X147307330Y-109742238D01*
X147307330Y-109742238D02*
X146926377Y-109742238D01*
X146926377Y-109742238D02*
X146735901Y-109647000D01*
X146735901Y-109647000D02*
X146640663Y-109551761D01*
X146640663Y-109551761D02*
X146545425Y-109361285D01*
X146545425Y-109361285D02*
X146545425Y-108789857D01*
X146545425Y-108789857D02*
X146640663Y-108599380D01*
X146640663Y-108599380D02*
X146735901Y-108504142D01*
X146735901Y-108504142D02*
X146926377Y-108408904D01*
X146926377Y-108408904D02*
X147307330Y-108408904D01*
X147307330Y-108408904D02*
X147497806Y-108504142D01*
X149212092Y-109647000D02*
X149021616Y-109742238D01*
X149021616Y-109742238D02*
X148640663Y-109742238D01*
X148640663Y-109742238D02*
X148450187Y-109647000D01*
X148450187Y-109647000D02*
X148354949Y-109456523D01*
X148354949Y-109456523D02*
X148354949Y-108694619D01*
X148354949Y-108694619D02*
X148450187Y-108504142D01*
X148450187Y-108504142D02*
X148640663Y-108408904D01*
X148640663Y-108408904D02*
X149021616Y-108408904D01*
X149021616Y-108408904D02*
X149212092Y-108504142D01*
X149212092Y-108504142D02*
X149307330Y-108694619D01*
X149307330Y-108694619D02*
X149307330Y-108885095D01*
X149307330Y-108885095D02*
X148354949Y-109075571D01*
X150450187Y-109742238D02*
X150259711Y-109647000D01*
X150259711Y-109647000D02*
X150164473Y-109456523D01*
X150164473Y-109456523D02*
X150164473Y-107742238D01*
X150926378Y-108408904D02*
X151688282Y-108408904D01*
X151212092Y-107742238D02*
X151212092Y-109456523D01*
X151212092Y-109456523D02*
X151307330Y-109647000D01*
X151307330Y-109647000D02*
X151497806Y-109742238D01*
X151497806Y-109742238D02*
X151688282Y-109742238D01*
X153212092Y-109742238D02*
X153212092Y-108694619D01*
X153212092Y-108694619D02*
X153116854Y-108504142D01*
X153116854Y-108504142D02*
X152926378Y-108408904D01*
X152926378Y-108408904D02*
X152545425Y-108408904D01*
X152545425Y-108408904D02*
X152354949Y-108504142D01*
X153212092Y-109647000D02*
X153021616Y-109742238D01*
X153021616Y-109742238D02*
X152545425Y-109742238D01*
X152545425Y-109742238D02*
X152354949Y-109647000D01*
X152354949Y-109647000D02*
X152259711Y-109456523D01*
X152259711Y-109456523D02*
X152259711Y-109266047D01*
X152259711Y-109266047D02*
X152354949Y-109075571D01*
X152354949Y-109075571D02*
X152545425Y-108980333D01*
X152545425Y-108980333D02*
X153021616Y-108980333D01*
X153021616Y-108980333D02*
X153212092Y-108885095D01*
X153688283Y-109932714D02*
X155212092Y-109932714D01*
X156545426Y-109742238D02*
X156545426Y-107742238D01*
X156545426Y-109647000D02*
X156354950Y-109742238D01*
X156354950Y-109742238D02*
X155973997Y-109742238D01*
X155973997Y-109742238D02*
X155783521Y-109647000D01*
X155783521Y-109647000D02*
X155688283Y-109551761D01*
X155688283Y-109551761D02*
X155593045Y-109361285D01*
X155593045Y-109361285D02*
X155593045Y-108789857D01*
X155593045Y-108789857D02*
X155688283Y-108599380D01*
X155688283Y-108599380D02*
X155783521Y-108504142D01*
X155783521Y-108504142D02*
X155973997Y-108408904D01*
X155973997Y-108408904D02*
X156354950Y-108408904D01*
X156354950Y-108408904D02*
X156545426Y-108504142D01*
X157497807Y-109742238D02*
X157497807Y-108408904D01*
X157497807Y-108789857D02*
X157593045Y-108599380D01*
X157593045Y-108599380D02*
X157688283Y-108504142D01*
X157688283Y-108504142D02*
X157878759Y-108408904D01*
X157878759Y-108408904D02*
X158069236Y-108408904D01*
X158735902Y-109742238D02*
X158735902Y-108408904D01*
X158735902Y-107742238D02*
X158640664Y-107837476D01*
X158640664Y-107837476D02*
X158735902Y-107932714D01*
X158735902Y-107932714D02*
X158831140Y-107837476D01*
X158831140Y-107837476D02*
X158735902Y-107742238D01*
X158735902Y-107742238D02*
X158735902Y-107932714D01*
X159497807Y-108408904D02*
X159973997Y-109742238D01*
X159973997Y-109742238D02*
X160450188Y-108408904D01*
X161973998Y-109647000D02*
X161783522Y-109742238D01*
X161783522Y-109742238D02*
X161402569Y-109742238D01*
X161402569Y-109742238D02*
X161212093Y-109647000D01*
X161212093Y-109647000D02*
X161116855Y-109456523D01*
X161116855Y-109456523D02*
X161116855Y-108694619D01*
X161116855Y-108694619D02*
X161212093Y-108504142D01*
X161212093Y-108504142D02*
X161402569Y-108408904D01*
X161402569Y-108408904D02*
X161783522Y-108408904D01*
X161783522Y-108408904D02*
X161973998Y-108504142D01*
X161973998Y-108504142D02*
X162069236Y-108694619D01*
X162069236Y-108694619D02*
X162069236Y-108885095D01*
X162069236Y-108885095D02*
X161116855Y-109075571D01*
D16*
X146460995Y-94827642D02*
X146603852Y-94970500D01*
X146603852Y-94970500D02*
X146460995Y-95113357D01*
X146460995Y-95113357D02*
X146318138Y-94970500D01*
X146318138Y-94970500D02*
X146460995Y-94827642D01*
X146460995Y-94827642D02*
X146460995Y-95113357D01*
D17*
X153959723Y-90191945D02*
X155483533Y-87552629D01*
X156041286Y-89634192D02*
X153401970Y-88110382D01*
D16*
X152460995Y-100827642D02*
X152603852Y-100970500D01*
X152603852Y-100970500D02*
X152460995Y-101113357D01*
X152460995Y-101113357D02*
X152318138Y-100970500D01*
X152318138Y-100970500D02*
X152460995Y-100827642D01*
X152460995Y-100827642D02*
X152460995Y-101113357D01*
X149460995Y-102327642D02*
X149603852Y-102470500D01*
X149603852Y-102470500D02*
X149460995Y-102613357D01*
X149460995Y-102613357D02*
X149318138Y-102470500D01*
X149318138Y-102470500D02*
X149460995Y-102327642D01*
X149460995Y-102327642D02*
X149460995Y-102613357D01*
X146460995Y-96327642D02*
X146603852Y-96470500D01*
X146603852Y-96470500D02*
X146460995Y-96613357D01*
X146460995Y-96613357D02*
X146318138Y-96470500D01*
X146318138Y-96470500D02*
X146460995Y-96327642D01*
X146460995Y-96327642D02*
X146460995Y-96613357D01*
X147960995Y-94827642D02*
X148103852Y-94970500D01*
X148103852Y-94970500D02*
X147960995Y-95113357D01*
X147960995Y-95113357D02*
X147818138Y-94970500D01*
X147818138Y-94970500D02*
X147960995Y-94827642D01*
X147960995Y-94827642D02*
X147960995Y-95113357D01*
X144960995Y-90327642D02*
X145103852Y-90470500D01*
X145103852Y-90470500D02*
X144960995Y-90613357D01*
X144960995Y-90613357D02*
X144818138Y-90470500D01*
X144818138Y-90470500D02*
X144960995Y-90327642D01*
X144960995Y-90327642D02*
X144960995Y-90613357D01*
X144960995Y-94827642D02*
X145103852Y-94970500D01*
X145103852Y-94970500D02*
X144960995Y-95113357D01*
X144960995Y-95113357D02*
X144818138Y-94970500D01*
X144818138Y-94970500D02*
X144960995Y-94827642D01*
X144960995Y-94827642D02*
X144960995Y-95113357D01*
D12*
X139232455Y-106872419D02*
X139041979Y-106872419D01*
X139041979Y-106872419D02*
X138946741Y-106920038D01*
X138946741Y-106920038D02*
X138899122Y-106967657D01*
X138899122Y-106967657D02*
X138803884Y-107110514D01*
X138803884Y-107110514D02*
X138756265Y-107300990D01*
X138756265Y-107300990D02*
X138756265Y-107681942D01*
X138756265Y-107681942D02*
X138803884Y-107777180D01*
X138803884Y-107777180D02*
X138851503Y-107824800D01*
X138851503Y-107824800D02*
X138946741Y-107872419D01*
X138946741Y-107872419D02*
X139137217Y-107872419D01*
X139137217Y-107872419D02*
X139232455Y-107824800D01*
X139232455Y-107824800D02*
X139280074Y-107777180D01*
X139280074Y-107777180D02*
X139327693Y-107681942D01*
X139327693Y-107681942D02*
X139327693Y-107443847D01*
X139327693Y-107443847D02*
X139280074Y-107348609D01*
X139280074Y-107348609D02*
X139232455Y-107300990D01*
X139232455Y-107300990D02*
X139137217Y-107253371D01*
X139137217Y-107253371D02*
X138946741Y-107253371D01*
X138946741Y-107253371D02*
X138851503Y-107300990D01*
X138851503Y-107300990D02*
X138803884Y-107348609D01*
X138803884Y-107348609D02*
X138756265Y-107443847D01*
D16*
X147960995Y-102327642D02*
X148103852Y-102470500D01*
X148103852Y-102470500D02*
X147960995Y-102613357D01*
X147960995Y-102613357D02*
X147818138Y-102470500D01*
X147818138Y-102470500D02*
X147960995Y-102327642D01*
X147960995Y-102327642D02*
X147960995Y-102613357D01*
D12*
X145876988Y-120526009D02*
X145305560Y-120526009D01*
X145591274Y-120526009D02*
X145591274Y-119526009D01*
X145591274Y-119526009D02*
X145496036Y-119668866D01*
X145496036Y-119668866D02*
X145400798Y-119764104D01*
X145400798Y-119764104D02*
X145305560Y-119811723D01*
D16*
X146460995Y-93327642D02*
X146603852Y-93470500D01*
X146603852Y-93470500D02*
X146460995Y-93613357D01*
X146460995Y-93613357D02*
X146318138Y-93470500D01*
X146318138Y-93470500D02*
X146460995Y-93327642D01*
X146460995Y-93327642D02*
X146460995Y-93613357D01*
X150960995Y-103827642D02*
X151103852Y-103970500D01*
X151103852Y-103970500D02*
X150960995Y-104113357D01*
X150960995Y-104113357D02*
X150818138Y-103970500D01*
X150818138Y-103970500D02*
X150960995Y-103827642D01*
X150960995Y-103827642D02*
X150960995Y-104113357D01*
X150960995Y-94827642D02*
X151103852Y-94970500D01*
X151103852Y-94970500D02*
X150960995Y-95113357D01*
X150960995Y-95113357D02*
X150818138Y-94970500D01*
X150818138Y-94970500D02*
X150960995Y-94827642D01*
X150960995Y-94827642D02*
X150960995Y-95113357D01*
X149460995Y-105327642D02*
X149603852Y-105470500D01*
X149603852Y-105470500D02*
X149460995Y-105613357D01*
X149460995Y-105613357D02*
X149318138Y-105470500D01*
X149318138Y-105470500D02*
X149460995Y-105327642D01*
X149460995Y-105327642D02*
X149460995Y-105613357D01*
X147960995Y-90327642D02*
X148103852Y-90470500D01*
X148103852Y-90470500D02*
X147960995Y-90613357D01*
X147960995Y-90613357D02*
X147818138Y-90470500D01*
X147818138Y-90470500D02*
X147960995Y-90327642D01*
X147960995Y-90327642D02*
X147960995Y-90613357D01*
D12*
X132327693Y-93828240D02*
X131756265Y-93828240D01*
X132041979Y-93828240D02*
X132041979Y-92828240D01*
X132041979Y-92828240D02*
X131946741Y-92971097D01*
X131946741Y-92971097D02*
X131851503Y-93066335D01*
X131851503Y-93066335D02*
X131756265Y-93113954D01*
X132708646Y-92923478D02*
X132756265Y-92875859D01*
X132756265Y-92875859D02*
X132851503Y-92828240D01*
X132851503Y-92828240D02*
X133089598Y-92828240D01*
X133089598Y-92828240D02*
X133184836Y-92875859D01*
X133184836Y-92875859D02*
X133232455Y-92923478D01*
X133232455Y-92923478D02*
X133280074Y-93018716D01*
X133280074Y-93018716D02*
X133280074Y-93113954D01*
X133280074Y-93113954D02*
X133232455Y-93256811D01*
X133232455Y-93256811D02*
X132661027Y-93828240D01*
X132661027Y-93828240D02*
X133280074Y-93828240D01*
X137708646Y-104372419D02*
X138375312Y-104372419D01*
X138375312Y-104372419D02*
X137946741Y-105372419D01*
D16*
X143460995Y-96327642D02*
X143603852Y-96470500D01*
X143603852Y-96470500D02*
X143460995Y-96613357D01*
X143460995Y-96613357D02*
X143318138Y-96470500D01*
X143318138Y-96470500D02*
X143460995Y-96327642D01*
X143460995Y-96327642D02*
X143460995Y-96613357D01*
X141960995Y-96327642D02*
X142103852Y-96470500D01*
X142103852Y-96470500D02*
X141960995Y-96613357D01*
X141960995Y-96613357D02*
X141818138Y-96470500D01*
X141818138Y-96470500D02*
X141960995Y-96327642D01*
X141960995Y-96327642D02*
X141960995Y-96613357D01*
X156960995Y-97827642D02*
X157103852Y-97970500D01*
X157103852Y-97970500D02*
X156960995Y-98113357D01*
X156960995Y-98113357D02*
X156818138Y-97970500D01*
X156818138Y-97970500D02*
X156960995Y-97827642D01*
X156960995Y-97827642D02*
X156960995Y-98113357D01*
X155460995Y-100827642D02*
X155603852Y-100970500D01*
X155603852Y-100970500D02*
X155460995Y-101113357D01*
X155460995Y-101113357D02*
X155318138Y-100970500D01*
X155318138Y-100970500D02*
X155460995Y-100827642D01*
X155460995Y-100827642D02*
X155460995Y-101113357D01*
X152460995Y-102327642D02*
X152603852Y-102470500D01*
X152603852Y-102470500D02*
X152460995Y-102613357D01*
X152460995Y-102613357D02*
X152318138Y-102470500D01*
X152318138Y-102470500D02*
X152460995Y-102327642D01*
X152460995Y-102327642D02*
X152460995Y-102613357D01*
X143460995Y-85827642D02*
X143603852Y-85970500D01*
X143603852Y-85970500D02*
X143460995Y-86113357D01*
X143460995Y-86113357D02*
X143318138Y-85970500D01*
X143318138Y-85970500D02*
X143460995Y-85827642D01*
X143460995Y-85827642D02*
X143460995Y-86113357D01*
X158460995Y-100827642D02*
X158603852Y-100970500D01*
X158603852Y-100970500D02*
X158460995Y-101113357D01*
X158460995Y-101113357D02*
X158318138Y-100970500D01*
X158318138Y-100970500D02*
X158460995Y-100827642D01*
X158460995Y-100827642D02*
X158460995Y-101113357D01*
X153960995Y-94827642D02*
X154103852Y-94970500D01*
X154103852Y-94970500D02*
X153960995Y-95113357D01*
X153960995Y-95113357D02*
X153818138Y-94970500D01*
X153818138Y-94970500D02*
X153960995Y-94827642D01*
X153960995Y-94827642D02*
X153960995Y-95113357D01*
D12*
X142256265Y-115967657D02*
X142303884Y-115920038D01*
X142303884Y-115920038D02*
X142399122Y-115872419D01*
X142399122Y-115872419D02*
X142637217Y-115872419D01*
X142637217Y-115872419D02*
X142732455Y-115920038D01*
X142732455Y-115920038D02*
X142780074Y-115967657D01*
X142780074Y-115967657D02*
X142827693Y-116062895D01*
X142827693Y-116062895D02*
X142827693Y-116158133D01*
X142827693Y-116158133D02*
X142780074Y-116300990D01*
X142780074Y-116300990D02*
X142208646Y-116872419D01*
X142208646Y-116872419D02*
X142827693Y-116872419D01*
D16*
X153960995Y-103827642D02*
X154103852Y-103970500D01*
X154103852Y-103970500D02*
X153960995Y-104113357D01*
X153960995Y-104113357D02*
X153818138Y-103970500D01*
X153818138Y-103970500D02*
X153960995Y-103827642D01*
X153960995Y-103827642D02*
X153960995Y-104113357D01*
X144960995Y-99327642D02*
X145103852Y-99470500D01*
X145103852Y-99470500D02*
X144960995Y-99613357D01*
X144960995Y-99613357D02*
X144818138Y-99470500D01*
X144818138Y-99470500D02*
X144960995Y-99327642D01*
X144960995Y-99327642D02*
X144960995Y-99613357D01*
X149460995Y-90327642D02*
X149603852Y-90470500D01*
X149603852Y-90470500D02*
X149460995Y-90613357D01*
X149460995Y-90613357D02*
X149318138Y-90470500D01*
X149318138Y-90470500D02*
X149460995Y-90327642D01*
X149460995Y-90327642D02*
X149460995Y-90613357D01*
X153960995Y-100827642D02*
X154103852Y-100970500D01*
X154103852Y-100970500D02*
X153960995Y-101113357D01*
X153960995Y-101113357D02*
X153818138Y-100970500D01*
X153818138Y-100970500D02*
X153960995Y-100827642D01*
X153960995Y-100827642D02*
X153960995Y-101113357D01*
X144960995Y-87327642D02*
X145103852Y-87470500D01*
X145103852Y-87470500D02*
X144960995Y-87613357D01*
X144960995Y-87613357D02*
X144818138Y-87470500D01*
X144818138Y-87470500D02*
X144960995Y-87327642D01*
X144960995Y-87327642D02*
X144960995Y-87613357D01*
X143460995Y-94827642D02*
X143603852Y-94970500D01*
X143603852Y-94970500D02*
X143460995Y-95113357D01*
X143460995Y-95113357D02*
X143318138Y-94970500D01*
X143318138Y-94970500D02*
X143460995Y-94827642D01*
X143460995Y-94827642D02*
X143460995Y-95113357D01*
X146460995Y-87327642D02*
X146603852Y-87470500D01*
X146603852Y-87470500D02*
X146460995Y-87613357D01*
X146460995Y-87613357D02*
X146318138Y-87470500D01*
X146318138Y-87470500D02*
X146460995Y-87327642D01*
X146460995Y-87327642D02*
X146460995Y-87613357D01*
D12*
X135650933Y-100372419D02*
X135841409Y-100372419D01*
X135841409Y-100372419D02*
X135936647Y-100324800D01*
X135936647Y-100324800D02*
X135984266Y-100277180D01*
X135984266Y-100277180D02*
X136079504Y-100134323D01*
X136079504Y-100134323D02*
X136127123Y-99943847D01*
X136127123Y-99943847D02*
X136127123Y-99562895D01*
X136127123Y-99562895D02*
X136079504Y-99467657D01*
X136079504Y-99467657D02*
X136031885Y-99420038D01*
X136031885Y-99420038D02*
X135936647Y-99372419D01*
X135936647Y-99372419D02*
X135746171Y-99372419D01*
X135746171Y-99372419D02*
X135650933Y-99420038D01*
X135650933Y-99420038D02*
X135603314Y-99467657D01*
X135603314Y-99467657D02*
X135555695Y-99562895D01*
X135555695Y-99562895D02*
X135555695Y-99800990D01*
X135555695Y-99800990D02*
X135603314Y-99896228D01*
X135603314Y-99896228D02*
X135650933Y-99943847D01*
X135650933Y-99943847D02*
X135746171Y-99991466D01*
X135746171Y-99991466D02*
X135936647Y-99991466D01*
X135936647Y-99991466D02*
X136031885Y-99943847D01*
X136031885Y-99943847D02*
X136079504Y-99896228D01*
X136079504Y-99896228D02*
X136127123Y-99800990D01*
D16*
X146460995Y-99327642D02*
X146603852Y-99470500D01*
X146603852Y-99470500D02*
X146460995Y-99613357D01*
X146460995Y-99613357D02*
X146318138Y-99470500D01*
X146318138Y-99470500D02*
X146460995Y-99327642D01*
X146460995Y-99327642D02*
X146460995Y-99613357D01*
X155460995Y-99327642D02*
X155603852Y-99470500D01*
X155603852Y-99470500D02*
X155460995Y-99613357D01*
X155460995Y-99613357D02*
X155318138Y-99470500D01*
X155318138Y-99470500D02*
X155460995Y-99327642D01*
X155460995Y-99327642D02*
X155460995Y-99613357D01*
X150960995Y-96327642D02*
X151103852Y-96470500D01*
X151103852Y-96470500D02*
X150960995Y-96613357D01*
X150960995Y-96613357D02*
X150818138Y-96470500D01*
X150818138Y-96470500D02*
X150960995Y-96327642D01*
X150960995Y-96327642D02*
X150960995Y-96613357D01*
X158460995Y-99327642D02*
X158603852Y-99470500D01*
X158603852Y-99470500D02*
X158460995Y-99613357D01*
X158460995Y-99613357D02*
X158318138Y-99470500D01*
X158318138Y-99470500D02*
X158460995Y-99327642D01*
X158460995Y-99327642D02*
X158460995Y-99613357D01*
X152460995Y-93327642D02*
X152603852Y-93470500D01*
X152603852Y-93470500D02*
X152460995Y-93613357D01*
X152460995Y-93613357D02*
X152318138Y-93470500D01*
X152318138Y-93470500D02*
X152460995Y-93327642D01*
X152460995Y-93327642D02*
X152460995Y-93613357D01*
X146460995Y-91827642D02*
X146603852Y-91970500D01*
X146603852Y-91970500D02*
X146460995Y-92113357D01*
X146460995Y-92113357D02*
X146318138Y-91970500D01*
X146318138Y-91970500D02*
X146460995Y-91827642D01*
X146460995Y-91827642D02*
X146460995Y-92113357D01*
X150960995Y-97827642D02*
X151103852Y-97970500D01*
X151103852Y-97970500D02*
X150960995Y-98113357D01*
X150960995Y-98113357D02*
X150818138Y-97970500D01*
X150818138Y-97970500D02*
X150960995Y-97827642D01*
X150960995Y-97827642D02*
X150960995Y-98113357D01*
X150960995Y-102327642D02*
X151103852Y-102470500D01*
X151103852Y-102470500D02*
X150960995Y-102613357D01*
X150960995Y-102613357D02*
X150818138Y-102470500D01*
X150818138Y-102470500D02*
X150960995Y-102327642D01*
X150960995Y-102327642D02*
X150960995Y-102613357D01*
D12*
X158275439Y-98300382D02*
X157780567Y-98014668D01*
X158028003Y-98157525D02*
X158636256Y-97353999D01*
X158636256Y-97353999D02*
X158466884Y-97421170D01*
X158466884Y-97421170D02*
X158326477Y-97450077D01*
X158326477Y-97450077D02*
X158215034Y-97440721D01*
X159155678Y-97763859D02*
X159225881Y-97749405D01*
X159225881Y-97749405D02*
X159337324Y-97758761D01*
X159337324Y-97758761D02*
X159543521Y-97877809D01*
X159543521Y-97877809D02*
X159597035Y-97963691D01*
X159597035Y-97963691D02*
X159609310Y-98025764D01*
X159609310Y-98025764D02*
X159592620Y-98126099D01*
X159592620Y-98126099D02*
X159534692Y-98202626D01*
X159534692Y-98202626D02*
X159406559Y-98293605D01*
X159406559Y-98293605D02*
X158564114Y-98467049D01*
X158564114Y-98467049D02*
X159100225Y-98776572D01*
X159794402Y-98407555D02*
X159595097Y-99062287D01*
X159595097Y-99062287D02*
X160206795Y-98645651D01*
D16*
X143460995Y-97827642D02*
X143603852Y-97970500D01*
X143603852Y-97970500D02*
X143460995Y-98113357D01*
X143460995Y-98113357D02*
X143318138Y-97970500D01*
X143318138Y-97970500D02*
X143460995Y-97827642D01*
X143460995Y-97827642D02*
X143460995Y-98113357D01*
D12*
X141732455Y-111205752D02*
X141732455Y-111872419D01*
X141494360Y-110824800D02*
X141256265Y-111539085D01*
X141256265Y-111539085D02*
X141875312Y-111539085D01*
D18*
X142663846Y-90002761D02*
X141949560Y-90002761D01*
X141949560Y-90002761D02*
X141443608Y-90240857D01*
X141443608Y-90240857D02*
X141175751Y-90478952D01*
X141175751Y-90478952D02*
X140878132Y-90955142D01*
X140878132Y-90955142D02*
X140699560Y-92383714D01*
X140699560Y-92383714D02*
X140878132Y-92859904D01*
X140878132Y-92859904D02*
X141086465Y-93098000D01*
X141086465Y-93098000D02*
X141532894Y-93336095D01*
X141532894Y-93336095D02*
X142247179Y-93336095D01*
X142247179Y-93336095D02*
X142753132Y-93098000D01*
X142753132Y-93098000D02*
X143020989Y-92859904D01*
X143020989Y-92859904D02*
X143318608Y-92383714D01*
X143318608Y-92383714D02*
X143497179Y-90955142D01*
X143497179Y-90955142D02*
X143318608Y-90478952D01*
X143318608Y-90478952D02*
X143110274Y-90240857D01*
X143110274Y-90240857D02*
X142663846Y-90002761D01*
X142663846Y-90002761D02*
X141979322Y-89764666D01*
X141979322Y-89764666D02*
X141532894Y-89526571D01*
X141532894Y-89526571D02*
X141354322Y-89050380D01*
X141354322Y-89050380D02*
X141651941Y-88574190D01*
X141651941Y-88574190D02*
X142157894Y-88336095D01*
X142157894Y-88336095D02*
X143110274Y-88336095D01*
X143110274Y-88336095D02*
X143556703Y-88574190D01*
D11*
X170543232Y-110984476D02*
X170924185Y-110984476D01*
X170924185Y-110984476D02*
X171305137Y-111174952D01*
X171305137Y-111174952D02*
X171495613Y-111365428D01*
X171495613Y-111365428D02*
X171686089Y-111746380D01*
X171686089Y-111746380D02*
X171876566Y-112508285D01*
X171876566Y-112508285D02*
X171876566Y-113460666D01*
X171876566Y-113460666D02*
X171686089Y-114222571D01*
X171686089Y-114222571D02*
X171495613Y-114603523D01*
X171495613Y-114603523D02*
X171305137Y-114794000D01*
X171305137Y-114794000D02*
X170924185Y-114984476D01*
X170924185Y-114984476D02*
X170543232Y-114984476D01*
X170543232Y-114984476D02*
X170162280Y-114794000D01*
X170162280Y-114794000D02*
X169971804Y-114603523D01*
X169971804Y-114603523D02*
X169781327Y-114222571D01*
X169781327Y-114222571D02*
X169590851Y-113460666D01*
X169590851Y-113460666D02*
X169590851Y-112508285D01*
X169590851Y-112508285D02*
X169781327Y-111746380D01*
X169781327Y-111746380D02*
X169971804Y-111365428D01*
X169971804Y-111365428D02*
X170162280Y-111174952D01*
X170162280Y-111174952D02*
X170543232Y-110984476D01*
X174352756Y-110984476D02*
X174733709Y-110984476D01*
X174733709Y-110984476D02*
X175114661Y-111174952D01*
X175114661Y-111174952D02*
X175305137Y-111365428D01*
X175305137Y-111365428D02*
X175495613Y-111746380D01*
X175495613Y-111746380D02*
X175686090Y-112508285D01*
X175686090Y-112508285D02*
X175686090Y-113460666D01*
X175686090Y-113460666D02*
X175495613Y-114222571D01*
X175495613Y-114222571D02*
X175305137Y-114603523D01*
X175305137Y-114603523D02*
X175114661Y-114794000D01*
X175114661Y-114794000D02*
X174733709Y-114984476D01*
X174733709Y-114984476D02*
X174352756Y-114984476D01*
X174352756Y-114984476D02*
X173971804Y-114794000D01*
X173971804Y-114794000D02*
X173781328Y-114603523D01*
X173781328Y-114603523D02*
X173590851Y-114222571D01*
X173590851Y-114222571D02*
X173400375Y-113460666D01*
X173400375Y-113460666D02*
X173400375Y-112508285D01*
X173400375Y-112508285D02*
X173590851Y-111746380D01*
X173590851Y-111746380D02*
X173781328Y-111365428D01*
X173781328Y-111365428D02*
X173971804Y-111174952D01*
X173971804Y-111174952D02*
X174352756Y-110984476D01*
D16*
X152460995Y-97827642D02*
X152603852Y-97970500D01*
X152603852Y-97970500D02*
X152460995Y-98113357D01*
X152460995Y-98113357D02*
X152318138Y-97970500D01*
X152318138Y-97970500D02*
X152460995Y-97827642D01*
X152460995Y-97827642D02*
X152460995Y-98113357D01*
D12*
X141708646Y-113372419D02*
X142327693Y-113372419D01*
X142327693Y-113372419D02*
X141994360Y-113753371D01*
X141994360Y-113753371D02*
X142137217Y-113753371D01*
X142137217Y-113753371D02*
X142232455Y-113800990D01*
X142232455Y-113800990D02*
X142280074Y-113848609D01*
X142280074Y-113848609D02*
X142327693Y-113943847D01*
X142327693Y-113943847D02*
X142327693Y-114181942D01*
X142327693Y-114181942D02*
X142280074Y-114277180D01*
X142280074Y-114277180D02*
X142232455Y-114324800D01*
X142232455Y-114324800D02*
X142137217Y-114372419D01*
X142137217Y-114372419D02*
X141851503Y-114372419D01*
X141851503Y-114372419D02*
X141756265Y-114324800D01*
X141756265Y-114324800D02*
X141708646Y-114277180D01*
D16*
X147960995Y-91827642D02*
X148103852Y-91970500D01*
X148103852Y-91970500D02*
X147960995Y-92113357D01*
X147960995Y-92113357D02*
X147818138Y-91970500D01*
X147818138Y-91970500D02*
X147960995Y-91827642D01*
X147960995Y-91827642D02*
X147960995Y-92113357D01*
X150960995Y-100827642D02*
X151103852Y-100970500D01*
X151103852Y-100970500D02*
X150960995Y-101113357D01*
X150960995Y-101113357D02*
X150818138Y-100970500D01*
X150818138Y-100970500D02*
X150960995Y-100827642D01*
X150960995Y-100827642D02*
X150960995Y-101113357D01*
D13*
X167314991Y-87454692D02*
X166922134Y-86774243D01*
X166922134Y-86774243D02*
X166788846Y-86686240D01*
X166788846Y-86686240D02*
X166629414Y-86695809D01*
X166629414Y-86695809D02*
X166381978Y-86838667D01*
X166381978Y-86838667D02*
X166293975Y-86971954D01*
X167279277Y-87392833D02*
X167191273Y-87526121D01*
X167191273Y-87526121D02*
X166881978Y-87704692D01*
X166881978Y-87704692D02*
X166722546Y-87714262D01*
X166722546Y-87714262D02*
X166589258Y-87626258D01*
X166589258Y-87626258D02*
X166517830Y-87502540D01*
X166517830Y-87502540D02*
X166508260Y-87343108D01*
X166508260Y-87343108D02*
X166596264Y-87209820D01*
X166596264Y-87209820D02*
X166905559Y-87031249D01*
X166905559Y-87031249D02*
X166993562Y-86897961D01*
X167193150Y-85957943D02*
X167219295Y-85860370D01*
X167219295Y-85860370D02*
X167307299Y-85727082D01*
X167307299Y-85727082D02*
X167616593Y-85548511D01*
X167616593Y-85548511D02*
X167776025Y-85538941D01*
X167776025Y-85538941D02*
X167873599Y-85565086D01*
X167873599Y-85565086D02*
X168006886Y-85653090D01*
X168006886Y-85653090D02*
X168078315Y-85776808D01*
X168078315Y-85776808D02*
X168123599Y-85998099D01*
X168123599Y-85998099D02*
X167809863Y-87168978D01*
X167809863Y-87168978D02*
X168614029Y-86704692D01*
X168522449Y-89546071D02*
X168129592Y-88865622D01*
X168129592Y-88865622D02*
X167996304Y-88777619D01*
X167996304Y-88777619D02*
X167836872Y-88787188D01*
X167836872Y-88787188D02*
X167589436Y-88930046D01*
X167589436Y-88930046D02*
X167501433Y-89063333D01*
X168486735Y-89484212D02*
X168398731Y-89617500D01*
X168398731Y-89617500D02*
X168089436Y-89796071D01*
X168089436Y-89796071D02*
X167930004Y-89805641D01*
X167930004Y-89805641D02*
X167796716Y-89717637D01*
X167796716Y-89717637D02*
X167725288Y-89593919D01*
X167725288Y-89593919D02*
X167715718Y-89434487D01*
X167715718Y-89434487D02*
X167803722Y-89301199D01*
X167803722Y-89301199D02*
X168113017Y-89122628D01*
X168113017Y-89122628D02*
X168201020Y-88989340D01*
X169821487Y-88796071D02*
X169079180Y-89224642D01*
X169450333Y-89010357D02*
X168700333Y-87711319D01*
X168700333Y-87711319D02*
X168683758Y-87968324D01*
X168683758Y-87968324D02*
X168631469Y-88163470D01*
X168631469Y-88163470D02*
X168543465Y-88296758D01*
X169173176Y-91958879D02*
X168423176Y-90659840D01*
X168708891Y-91154712D02*
X168796894Y-91021425D01*
X168796894Y-91021425D02*
X169044330Y-90878567D01*
X169044330Y-90878567D02*
X169203762Y-90868998D01*
X169203762Y-90868998D02*
X169301335Y-90895142D01*
X169301335Y-90895142D02*
X169434623Y-90983146D01*
X169434623Y-90983146D02*
X169648909Y-91354300D01*
X169648909Y-91354300D02*
X169658478Y-91513732D01*
X169658478Y-91513732D02*
X169632334Y-91611305D01*
X169632334Y-91611305D02*
X169544330Y-91744593D01*
X169544330Y-91744593D02*
X169296894Y-91887450D01*
X169296894Y-91887450D02*
X169137462Y-91897020D01*
X171028945Y-90887450D02*
X170286638Y-91316021D01*
X170657791Y-91101736D02*
X169907791Y-89802698D01*
X169907791Y-89802698D02*
X169891216Y-90059703D01*
X169891216Y-90059703D02*
X169838927Y-90254849D01*
X169838927Y-90254849D02*
X169750923Y-90388137D01*
X170380634Y-94050258D02*
X169630634Y-92751219D01*
X169916349Y-93246091D02*
X170004352Y-93112804D01*
X170004352Y-93112804D02*
X170251788Y-92969946D01*
X170251788Y-92969946D02*
X170411220Y-92960377D01*
X170411220Y-92960377D02*
X170508793Y-92986521D01*
X170508793Y-92986521D02*
X170642081Y-93074525D01*
X170642081Y-93074525D02*
X170856367Y-93445679D01*
X170856367Y-93445679D02*
X170865936Y-93605111D01*
X170865936Y-93605111D02*
X170839792Y-93702684D01*
X170839792Y-93702684D02*
X170751788Y-93835972D01*
X170751788Y-93835972D02*
X170504352Y-93978829D01*
X170504352Y-93978829D02*
X170344920Y-93988399D01*
X170815524Y-92232080D02*
X170841669Y-92134507D01*
X170841669Y-92134507D02*
X170929673Y-92001219D01*
X170929673Y-92001219D02*
X171238967Y-91822648D01*
X171238967Y-91822648D02*
X171398399Y-91813078D01*
X171398399Y-91813078D02*
X171495973Y-91839223D01*
X171495973Y-91839223D02*
X171629260Y-91927227D01*
X171629260Y-91927227D02*
X171700689Y-92050945D01*
X171700689Y-92050945D02*
X171745973Y-92272236D01*
X171745973Y-92272236D02*
X171432237Y-93443115D01*
X171432237Y-93443115D02*
X172236403Y-92978829D01*
D16*
X149460995Y-93327642D02*
X149603852Y-93470500D01*
X149603852Y-93470500D02*
X149460995Y-93613357D01*
X149460995Y-93613357D02*
X149318138Y-93470500D01*
X149318138Y-93470500D02*
X149460995Y-93327642D01*
X149460995Y-93327642D02*
X149460995Y-93613357D01*
X149460995Y-94827642D02*
X149603852Y-94970500D01*
X149603852Y-94970500D02*
X149460995Y-95113357D01*
X149460995Y-95113357D02*
X149318138Y-94970500D01*
X149318138Y-94970500D02*
X149460995Y-94827642D01*
X149460995Y-94827642D02*
X149460995Y-95113357D01*
X152460995Y-103827642D02*
X152603852Y-103970500D01*
X152603852Y-103970500D02*
X152460995Y-104113357D01*
X152460995Y-104113357D02*
X152318138Y-103970500D01*
X152318138Y-103970500D02*
X152460995Y-103827642D01*
X152460995Y-103827642D02*
X152460995Y-104113357D01*
X144960995Y-88827642D02*
X145103852Y-88970500D01*
X145103852Y-88970500D02*
X144960995Y-89113357D01*
X144960995Y-89113357D02*
X144818138Y-88970500D01*
X144818138Y-88970500D02*
X144960995Y-88827642D01*
X144960995Y-88827642D02*
X144960995Y-89113357D01*
D12*
X133327693Y-95872419D02*
X132756265Y-95872419D01*
X133041979Y-95872419D02*
X133041979Y-94872419D01*
X133041979Y-94872419D02*
X132946741Y-95015276D01*
X132946741Y-95015276D02*
X132851503Y-95110514D01*
X132851503Y-95110514D02*
X132756265Y-95158133D01*
X134280074Y-95872419D02*
X133708646Y-95872419D01*
X133994360Y-95872419D02*
X133994360Y-94872419D01*
X133994360Y-94872419D02*
X133899122Y-95015276D01*
X133899122Y-95015276D02*
X133803884Y-95110514D01*
X133803884Y-95110514D02*
X133708646Y-95158133D01*
D16*
X150960995Y-99327642D02*
X151103852Y-99470500D01*
X151103852Y-99470500D02*
X150960995Y-99613357D01*
X150960995Y-99613357D02*
X150818138Y-99470500D01*
X150818138Y-99470500D02*
X150960995Y-99327642D01*
X150960995Y-99327642D02*
X150960995Y-99613357D01*
X149460995Y-103827642D02*
X149603852Y-103970500D01*
X149603852Y-103970500D02*
X149460995Y-104113357D01*
X149460995Y-104113357D02*
X149318138Y-103970500D01*
X149318138Y-103970500D02*
X149460995Y-103827642D01*
X149460995Y-103827642D02*
X149460995Y-104113357D01*
X146460995Y-100827642D02*
X146603852Y-100970500D01*
X146603852Y-100970500D02*
X146460995Y-101113357D01*
X146460995Y-101113357D02*
X146318138Y-100970500D01*
X146318138Y-100970500D02*
X146460995Y-100827642D01*
X146460995Y-100827642D02*
X146460995Y-101113357D01*
X153960995Y-102327642D02*
X154103852Y-102470500D01*
X154103852Y-102470500D02*
X153960995Y-102613357D01*
X153960995Y-102613357D02*
X153818138Y-102470500D01*
X153818138Y-102470500D02*
X153960995Y-102327642D01*
X153960995Y-102327642D02*
X153960995Y-102613357D01*
D10*
X146950187Y-111908904D02*
X147426377Y-113242238D01*
X147426377Y-113242238D02*
X147902568Y-111908904D01*
X149712092Y-113242238D02*
X148569235Y-113242238D01*
X149140663Y-113242238D02*
X149140663Y-111242238D01*
X149140663Y-111242238D02*
X148950187Y-111527952D01*
X148950187Y-111527952D02*
X148759711Y-111718428D01*
X148759711Y-111718428D02*
X148569235Y-111813666D01*
X150569235Y-113051761D02*
X150664473Y-113147000D01*
X150664473Y-113147000D02*
X150569235Y-113242238D01*
X150569235Y-113242238D02*
X150473997Y-113147000D01*
X150473997Y-113147000D02*
X150569235Y-113051761D01*
X150569235Y-113051761D02*
X150569235Y-113242238D01*
X152569235Y-113242238D02*
X151426378Y-113242238D01*
X151997806Y-113242238D02*
X151997806Y-111242238D01*
X151997806Y-111242238D02*
X151807330Y-111527952D01*
X151807330Y-111527952D02*
X151616854Y-111718428D01*
X151616854Y-111718428D02*
X151426378Y-111813666D01*
D16*
X156960995Y-102327642D02*
X157103852Y-102470500D01*
X157103852Y-102470500D02*
X156960995Y-102613357D01*
X156960995Y-102613357D02*
X156818138Y-102470500D01*
X156818138Y-102470500D02*
X156960995Y-102327642D01*
X156960995Y-102327642D02*
X156960995Y-102613357D01*
D19*
X149238095Y-53304819D02*
X149238095Y-52304819D01*
X149238095Y-52781009D02*
X149809523Y-52781009D01*
X149809523Y-53304819D02*
X149809523Y-52304819D01*
X150809523Y-53304819D02*
X150238095Y-53304819D01*
X150523809Y-53304819D02*
X150523809Y-52304819D01*
X150523809Y-52304819D02*
X150428571Y-52447676D01*
X150428571Y-52447676D02*
X150333333Y-52542914D01*
X150333333Y-52542914D02*
X150238095Y-52590533D01*
X2713095Y220180D02*
X2713095Y1220180D01*
X2713095Y743990D02*
X3284523Y743990D01*
X3284523Y220180D02*
X3284523Y1220180D01*
X4189285Y886847D02*
X4189285Y220180D01*
X3951190Y1267800D02*
X3713095Y553514D01*
X3713095Y553514D02*
X4332142Y553514D01*
D20*
X142518051Y-121697931D02*
X142509336Y-121730455D01*
X142509336Y-121730455D02*
X142459382Y-121786789D01*
X142459382Y-121786789D02*
X142418143Y-121810599D01*
X142418143Y-121810599D02*
X142344379Y-121825694D01*
X142344379Y-121825694D02*
X142279330Y-121808264D01*
X142279330Y-121808264D02*
X142234901Y-121778929D01*
X142234901Y-121778929D02*
X142166662Y-121708355D01*
X142166662Y-121708355D02*
X142130948Y-121646496D01*
X142130948Y-121646496D02*
X142103949Y-121552113D01*
X142103949Y-121552113D02*
X142100759Y-121498969D01*
X142100759Y-121498969D02*
X142118189Y-121433920D01*
X142118189Y-121433920D02*
X142168143Y-121377586D01*
X142168143Y-121377586D02*
X142209382Y-121353777D01*
X142209382Y-121353777D02*
X142283146Y-121338682D01*
X142283146Y-121338682D02*
X142315670Y-121347397D01*
X142746348Y-121236210D02*
X142913014Y-121524885D01*
X142548011Y-121130776D02*
X142623485Y-121499595D01*
X142623485Y-121499595D02*
X142891540Y-121344833D01*
D19*
X149238095Y-95254819D02*
X149238095Y-94254819D01*
X149238095Y-94731009D02*
X149809523Y-94731009D01*
X149809523Y-95254819D02*
X149809523Y-94254819D01*
X150761904Y-94254819D02*
X150285714Y-94254819D01*
X150285714Y-94254819D02*
X150238095Y-94731009D01*
X150238095Y-94731009D02*
X150285714Y-94683390D01*
X150285714Y-94683390D02*
X150380952Y-94635771D01*
X150380952Y-94635771D02*
X150619047Y-94635771D01*
X150619047Y-94635771D02*
X150714285Y-94683390D01*
X150714285Y-94683390D02*
X150761904Y-94731009D01*
X150761904Y-94731009D02*
X150809523Y-94826247D01*
X150809523Y-94826247D02*
X150809523Y-95064342D01*
X150809523Y-95064342D02*
X150761904Y-95159580D01*
X150761904Y-95159580D02*
X150714285Y-95207200D01*
X150714285Y-95207200D02*
X150619047Y-95254819D01*
X150619047Y-95254819D02*
X150380952Y-95254819D01*
X150380952Y-95254819D02*
X150285714Y-95207200D01*
X150285714Y-95207200D02*
X150238095Y-95159580D01*
D20*
X160416666Y-121228059D02*
X160250000Y-120989964D01*
X160130952Y-121228059D02*
X160130952Y-120728059D01*
X160130952Y-120728059D02*
X160321428Y-120728059D01*
X160321428Y-120728059D02*
X160369047Y-120751869D01*
X160369047Y-120751869D02*
X160392857Y-120775678D01*
X160392857Y-120775678D02*
X160416666Y-120823297D01*
X160416666Y-120823297D02*
X160416666Y-120894726D01*
X160416666Y-120894726D02*
X160392857Y-120942345D01*
X160392857Y-120942345D02*
X160369047Y-120966154D01*
X160369047Y-120966154D02*
X160321428Y-120989964D01*
X160321428Y-120989964D02*
X160130952Y-120989964D01*
X160892857Y-121228059D02*
X160607143Y-121228059D01*
X160750000Y-121228059D02*
X160750000Y-120728059D01*
X160750000Y-120728059D02*
X160702381Y-120799488D01*
X160702381Y-120799488D02*
X160654762Y-120847107D01*
X160654762Y-120847107D02*
X160607143Y-120870916D01*
X146965973Y-117649843D02*
X147116908Y-117973524D01*
X147116908Y-117973524D02*
X147125516Y-118048323D01*
X147125516Y-118048323D02*
X147102483Y-118111605D01*
X147102483Y-118111605D02*
X147047809Y-118163371D01*
X147047809Y-118163371D02*
X147004652Y-118183496D01*
X147446405Y-117609710D02*
X147587278Y-117911813D01*
X147258012Y-117487392D02*
X147301054Y-117861385D01*
X147301054Y-117861385D02*
X147581578Y-117730574D01*
X171837611Y-97614599D02*
X171805086Y-97623314D01*
X171805086Y-97623314D02*
X171731323Y-97608219D01*
X171731323Y-97608219D02*
X171690083Y-97584410D01*
X171690083Y-97584410D02*
X171640129Y-97528076D01*
X171640129Y-97528076D02*
X171622699Y-97463027D01*
X171622699Y-97463027D02*
X171625889Y-97409883D01*
X171625889Y-97409883D02*
X171652889Y-97315500D01*
X171652889Y-97315500D02*
X171688603Y-97253641D01*
X171688603Y-97253641D02*
X171756842Y-97183067D01*
X171756842Y-97183067D02*
X171801271Y-97153732D01*
X171801271Y-97153732D02*
X171866320Y-97136302D01*
X171866320Y-97136302D02*
X171940083Y-97151397D01*
X171940083Y-97151397D02*
X171981323Y-97175207D01*
X171981323Y-97175207D02*
X172031277Y-97231540D01*
X172031277Y-97231540D02*
X172039992Y-97264065D01*
X172434955Y-97437111D02*
X172352476Y-97389492D01*
X172352476Y-97389492D02*
X172299332Y-97386302D01*
X172299332Y-97386302D02*
X172266808Y-97395017D01*
X172266808Y-97395017D02*
X172189854Y-97433067D01*
X172189854Y-97433067D02*
X172121616Y-97503641D01*
X172121616Y-97503641D02*
X172026377Y-97668598D01*
X172026377Y-97668598D02*
X172023188Y-97721742D01*
X172023188Y-97721742D02*
X172031902Y-97754266D01*
X172031902Y-97754266D02*
X172061237Y-97798695D01*
X172061237Y-97798695D02*
X172143716Y-97846314D01*
X172143716Y-97846314D02*
X172196860Y-97849504D01*
X172196860Y-97849504D02*
X172229384Y-97840789D01*
X172229384Y-97840789D02*
X172273813Y-97811455D01*
X172273813Y-97811455D02*
X172333337Y-97708357D01*
X172333337Y-97708357D02*
X172336527Y-97655213D01*
X172336527Y-97655213D02*
X172327812Y-97622688D01*
X172327812Y-97622688D02*
X172298478Y-97578259D01*
X172298478Y-97578259D02*
X172215999Y-97530640D01*
X172215999Y-97530640D02*
X172162855Y-97527450D01*
X172162855Y-97527450D02*
X172130330Y-97536165D01*
X172130330Y-97536165D02*
X172085901Y-97565500D01*
X175219692Y-92347825D02*
X175398263Y-92657120D01*
X175398263Y-92657120D02*
X175413358Y-92730884D01*
X175413358Y-92730884D02*
X175395928Y-92795933D01*
X175395928Y-92795933D02*
X175345974Y-92852267D01*
X175345974Y-92852267D02*
X175304735Y-92876076D01*
X175632085Y-92109730D02*
X175425888Y-92228778D01*
X175425888Y-92228778D02*
X175524316Y-92446879D01*
X175524316Y-92446879D02*
X175533031Y-92414355D01*
X175533031Y-92414355D02*
X175562366Y-92369926D01*
X175562366Y-92369926D02*
X175665464Y-92310402D01*
X175665464Y-92310402D02*
X175718608Y-92307212D01*
X175718608Y-92307212D02*
X175751132Y-92315927D01*
X175751132Y-92315927D02*
X175795562Y-92345261D01*
X175795562Y-92345261D02*
X175855085Y-92448360D01*
X175855085Y-92448360D02*
X175858275Y-92501504D01*
X175858275Y-92501504D02*
X175849560Y-92534028D01*
X175849560Y-92534028D02*
X175820226Y-92578457D01*
X175820226Y-92578457D02*
X175717128Y-92637981D01*
X175717128Y-92637981D02*
X175663983Y-92641171D01*
X175663983Y-92641171D02*
X175631459Y-92632456D01*
X161491633Y-92181159D02*
X161313061Y-92490454D01*
X161313061Y-92490454D02*
X161256727Y-92540408D01*
X161256727Y-92540408D02*
X161191678Y-92557838D01*
X161191678Y-92557838D02*
X161117915Y-92542743D01*
X161117915Y-92542743D02*
X161076675Y-92518934D01*
X161674645Y-92864172D02*
X161427209Y-92721314D01*
X161550927Y-92792743D02*
X161800927Y-92359730D01*
X161800927Y-92359730D02*
X161723973Y-92397780D01*
X161723973Y-92397780D02*
X161658925Y-92415209D01*
X161658925Y-92415209D02*
X161605781Y-92412020D01*
X134545031Y-108534115D02*
X134194497Y-108736496D01*
X134194497Y-108736496D02*
X134165162Y-108780925D01*
X134165162Y-108780925D02*
X134156447Y-108813449D01*
X134156447Y-108813449D02*
X134159637Y-108866593D01*
X134159637Y-108866593D02*
X134207256Y-108949072D01*
X134207256Y-108949072D02*
X134251685Y-108978407D01*
X134251685Y-108978407D02*
X134284210Y-108987121D01*
X134284210Y-108987121D02*
X134337354Y-108983932D01*
X134337354Y-108983932D02*
X134687888Y-108781551D01*
X134753792Y-108990937D02*
X134786316Y-108999652D01*
X134786316Y-108999652D02*
X134830745Y-109028987D01*
X134830745Y-109028987D02*
X134890269Y-109132085D01*
X134890269Y-109132085D02*
X134893459Y-109185229D01*
X134893459Y-109185229D02*
X134884744Y-109217754D01*
X134884744Y-109217754D02*
X134855409Y-109262183D01*
X134855409Y-109262183D02*
X134814170Y-109285992D01*
X134814170Y-109285992D02*
X134740406Y-109301087D01*
X134740406Y-109301087D02*
X134350113Y-109196508D01*
X134350113Y-109196508D02*
X134504875Y-109464564D01*
D19*
X186965626Y-118586819D02*
X186965626Y-117586819D01*
X186965626Y-118063009D02*
X187537054Y-118063009D01*
X187537054Y-118586819D02*
X187537054Y-117586819D01*
X187918007Y-117586819D02*
X188537054Y-117586819D01*
X188537054Y-117586819D02*
X188203721Y-117967771D01*
X188203721Y-117967771D02*
X188346578Y-117967771D01*
X188346578Y-117967771D02*
X188441816Y-118015390D01*
X188441816Y-118015390D02*
X188489435Y-118063009D01*
X188489435Y-118063009D02*
X188537054Y-118158247D01*
X188537054Y-118158247D02*
X188537054Y-118396342D01*
X188537054Y-118396342D02*
X188489435Y-118491580D01*
X188489435Y-118491580D02*
X188441816Y-118539200D01*
X188441816Y-118539200D02*
X188346578Y-118586819D01*
X188346578Y-118586819D02*
X188060864Y-118586819D01*
X188060864Y-118586819D02*
X187965626Y-118539200D01*
X187965626Y-118539200D02*
X187918007Y-118491580D01*
D20*
X131991633Y-82681160D02*
X131813061Y-82990455D01*
X131813061Y-82990455D02*
X131756727Y-83040409D01*
X131756727Y-83040409D02*
X131691678Y-83057839D01*
X131691678Y-83057839D02*
X131617915Y-83042744D01*
X131617915Y-83042744D02*
X131576675Y-83018935D01*
X132156589Y-82776398D02*
X132445265Y-82943065D01*
X132445265Y-82943065D02*
X132009688Y-83268934D01*
X135180440Y-83083333D02*
X135204250Y-83107142D01*
X135204250Y-83107142D02*
X135228059Y-83178571D01*
X135228059Y-83178571D02*
X135228059Y-83226190D01*
X135228059Y-83226190D02*
X135204250Y-83297618D01*
X135204250Y-83297618D02*
X135156630Y-83345237D01*
X135156630Y-83345237D02*
X135109011Y-83369047D01*
X135109011Y-83369047D02*
X135013773Y-83392856D01*
X135013773Y-83392856D02*
X134942345Y-83392856D01*
X134942345Y-83392856D02*
X134847107Y-83369047D01*
X134847107Y-83369047D02*
X134799488Y-83345237D01*
X134799488Y-83345237D02*
X134751869Y-83297618D01*
X134751869Y-83297618D02*
X134728059Y-83226190D01*
X134728059Y-83226190D02*
X134728059Y-83178571D01*
X134728059Y-83178571D02*
X134751869Y-83107142D01*
X134751869Y-83107142D02*
X134775678Y-83083333D01*
X135228059Y-82607142D02*
X135228059Y-82892856D01*
X135228059Y-82749999D02*
X134728059Y-82749999D01*
X134728059Y-82749999D02*
X134799488Y-82797618D01*
X134799488Y-82797618D02*
X134847107Y-82845237D01*
X134847107Y-82845237D02*
X134870916Y-82892856D01*
X166074016Y-110193944D02*
X166424550Y-110396325D01*
X166424550Y-110396325D02*
X166477694Y-110399515D01*
X166477694Y-110399515D02*
X166510219Y-110390800D01*
X166510219Y-110390800D02*
X166554648Y-110361465D01*
X166554648Y-110361465D02*
X166602267Y-110278986D01*
X166602267Y-110278986D02*
X166605457Y-110225842D01*
X166605457Y-110225842D02*
X166596742Y-110193318D01*
X166596742Y-110193318D02*
X166567407Y-110148889D01*
X166567407Y-110148889D02*
X166216873Y-109946508D01*
X166899886Y-109763495D02*
X166757029Y-110010931D01*
X166828457Y-109887213D02*
X166395445Y-109637213D01*
X166395445Y-109637213D02*
X166433494Y-109714166D01*
X166433494Y-109714166D02*
X166450924Y-109779215D01*
X166450924Y-109779215D02*
X166447734Y-109832359D01*
X149609047Y-82728059D02*
X149609047Y-83132821D01*
X149609047Y-83132821D02*
X149632857Y-83180440D01*
X149632857Y-83180440D02*
X149656666Y-83204250D01*
X149656666Y-83204250D02*
X149704285Y-83228059D01*
X149704285Y-83228059D02*
X149799523Y-83228059D01*
X149799523Y-83228059D02*
X149847142Y-83204250D01*
X149847142Y-83204250D02*
X149870952Y-83180440D01*
X149870952Y-83180440D02*
X149894761Y-83132821D01*
X149894761Y-83132821D02*
X149894761Y-82728059D01*
X150085238Y-82728059D02*
X150394762Y-82728059D01*
X150394762Y-82728059D02*
X150228095Y-82918535D01*
X150228095Y-82918535D02*
X150299524Y-82918535D01*
X150299524Y-82918535D02*
X150347143Y-82942345D01*
X150347143Y-82942345D02*
X150370952Y-82966154D01*
X150370952Y-82966154D02*
X150394762Y-83013773D01*
X150394762Y-83013773D02*
X150394762Y-83132821D01*
X150394762Y-83132821D02*
X150370952Y-83180440D01*
X150370952Y-83180440D02*
X150347143Y-83204250D01*
X150347143Y-83204250D02*
X150299524Y-83228059D01*
X150299524Y-83228059D02*
X150156667Y-83228059D01*
X150156667Y-83228059D02*
X150109048Y-83204250D01*
X150109048Y-83204250D02*
X150085238Y-83180440D01*
D19*
X111510567Y-118586818D02*
X111510567Y-117586818D01*
X111510567Y-118063008D02*
X112081995Y-118063008D01*
X112081995Y-118586818D02*
X112081995Y-117586818D01*
X112510567Y-117682056D02*
X112558186Y-117634437D01*
X112558186Y-117634437D02*
X112653424Y-117586818D01*
X112653424Y-117586818D02*
X112891519Y-117586818D01*
X112891519Y-117586818D02*
X112986757Y-117634437D01*
X112986757Y-117634437D02*
X113034376Y-117682056D01*
X113034376Y-117682056D02*
X113081995Y-117777294D01*
X113081995Y-117777294D02*
X113081995Y-117872532D01*
X113081995Y-117872532D02*
X113034376Y-118015389D01*
X113034376Y-118015389D02*
X112462948Y-118586818D01*
X112462948Y-118586818D02*
X113081995Y-118586818D01*
D20*
X144228059Y-127166666D02*
X144585202Y-127166666D01*
X144585202Y-127166666D02*
X144656630Y-127190475D01*
X144656630Y-127190475D02*
X144704250Y-127238094D01*
X144704250Y-127238094D02*
X144728059Y-127309523D01*
X144728059Y-127309523D02*
X144728059Y-127357142D01*
X144228059Y-126714285D02*
X144228059Y-126809523D01*
X144228059Y-126809523D02*
X144251869Y-126857142D01*
X144251869Y-126857142D02*
X144275678Y-126880952D01*
X144275678Y-126880952D02*
X144347107Y-126928571D01*
X144347107Y-126928571D02*
X144442345Y-126952380D01*
X144442345Y-126952380D02*
X144632821Y-126952380D01*
X144632821Y-126952380D02*
X144680440Y-126928571D01*
X144680440Y-126928571D02*
X144704250Y-126904761D01*
X144704250Y-126904761D02*
X144728059Y-126857142D01*
X144728059Y-126857142D02*
X144728059Y-126761904D01*
X144728059Y-126761904D02*
X144704250Y-126714285D01*
X144704250Y-126714285D02*
X144680440Y-126690476D01*
X144680440Y-126690476D02*
X144632821Y-126666666D01*
X144632821Y-126666666D02*
X144513773Y-126666666D01*
X144513773Y-126666666D02*
X144466154Y-126690476D01*
X144466154Y-126690476D02*
X144442345Y-126714285D01*
X144442345Y-126714285D02*
X144418535Y-126761904D01*
X144418535Y-126761904D02*
X144418535Y-126857142D01*
X144418535Y-126857142D02*
X144442345Y-126904761D01*
X144442345Y-126904761D02*
X144466154Y-126928571D01*
X144466154Y-126928571D02*
X144513773Y-126952380D01*
D21*
%TO.C,C4*%
X137050885Y-121859334D02*
X136520385Y-120940481D01*
X137085526Y-121839334D02*
X136523026Y-120865055D01*
X137120167Y-121819334D02*
X136526667Y-120791361D01*
X137154808Y-121799334D02*
X136531308Y-120719400D01*
X137189449Y-121779334D02*
X136537449Y-120650036D01*
X137224090Y-121759334D02*
X136544090Y-120581539D01*
X137258731Y-121739334D02*
X136552231Y-120515640D01*
X137293372Y-121719334D02*
X136560872Y-120450606D01*
X137328013Y-121699334D02*
X136570513Y-120387305D01*
X137352411Y-123501592D02*
X136819411Y-122578408D01*
X137362654Y-121679334D02*
X136580654Y-120324870D01*
X137397295Y-121659334D02*
X136591795Y-120264167D01*
X137431936Y-121639334D02*
X136603936Y-120205196D01*
X137466577Y-121619334D02*
X136616077Y-120146224D01*
X137501218Y-121599334D02*
X136629218Y-120088985D01*
X137504552Y-123685108D02*
X136736552Y-122354892D01*
X137535859Y-121579334D02*
X136642859Y-120032612D01*
X137570500Y-121559334D02*
X136657000Y-119977105D01*
X137605141Y-121539334D02*
X136672141Y-119923330D01*
X137628693Y-123820126D02*
X136681693Y-122179874D01*
X137639781Y-121519334D02*
X136687282Y-119869555D01*
X137674422Y-121499334D02*
X136703423Y-119817512D01*
X137709064Y-121479334D02*
X136719564Y-119765469D01*
X137738334Y-123930030D02*
X136641334Y-122029970D01*
X137743705Y-121459334D02*
X136736205Y-119714292D01*
X137778346Y-121439334D02*
X136753846Y-119664848D01*
X137812987Y-121419334D02*
X136771487Y-119615403D01*
X137838475Y-124023479D02*
X136610475Y-121896521D01*
X137847628Y-121399334D02*
X136789628Y-119566824D01*
X137882269Y-121379334D02*
X136808269Y-119519111D01*
X137916910Y-121359334D02*
X136827410Y-119472264D01*
X137932116Y-124105670D02*
X136586116Y-121774330D01*
X137951551Y-121339334D02*
X136846551Y-119425417D01*
X137986193Y-121319334D02*
X136866193Y-119379438D01*
X138020257Y-124178335D02*
X136567257Y-121661665D01*
X138020834Y-121299334D02*
X136886334Y-119334322D01*
X138055475Y-121279334D02*
X136906975Y-119290073D01*
X138090116Y-121259334D02*
X136927616Y-119245825D01*
X138104398Y-124244071D02*
X136552398Y-121555929D01*
X138124757Y-121239334D02*
X136948757Y-119202442D01*
X138159398Y-121219334D02*
X136970398Y-119159925D01*
X138185039Y-124303746D02*
X136541039Y-121456254D01*
X138194039Y-121199334D02*
X136992539Y-119118275D01*
X138228680Y-121179334D02*
X137014680Y-119076624D01*
X138263180Y-124359090D02*
X136532180Y-121360910D01*
X138263321Y-121159334D02*
X137036821Y-119034973D01*
X138297962Y-121139334D02*
X137059962Y-118995055D01*
X138332603Y-121119334D02*
X137083103Y-118955136D01*
X138338821Y-124410104D02*
X136525821Y-121269896D01*
X138367244Y-121099334D02*
X137106244Y-118915218D01*
X138401885Y-121079334D02*
X137129885Y-118876165D01*
X138411962Y-124456788D02*
X136521962Y-121183212D01*
X138436526Y-121059334D02*
X137154026Y-118837978D01*
X138471167Y-121039334D02*
X137178167Y-118799792D01*
X138483603Y-124500874D02*
X136519603Y-121099126D01*
X138505808Y-121019334D02*
X137202808Y-118762471D01*
X138540449Y-120999334D02*
X137227449Y-118725151D01*
X138553244Y-124541496D02*
X136519244Y-121018504D01*
X138575090Y-120979334D02*
X137252590Y-118688696D01*
X138609731Y-120959334D02*
X137277731Y-118652242D01*
X138621385Y-124579519D02*
X138090885Y-123660666D01*
X138644372Y-120939334D02*
X137303372Y-118616653D01*
X138679013Y-120919334D02*
X137329013Y-118581065D01*
X138688026Y-124614945D02*
X138125526Y-123640666D01*
X138713654Y-120899334D02*
X137355154Y-118546343D01*
X138748295Y-120879334D02*
X137381795Y-118512486D01*
X138753667Y-124648639D02*
X138160167Y-123620666D01*
X138782936Y-120859334D02*
X137408436Y-118478630D01*
X138817577Y-120839334D02*
X137435077Y-118444773D01*
X138818308Y-124680600D02*
X138194808Y-123600666D01*
X138881449Y-124709964D02*
X138229449Y-123580666D01*
X138944090Y-124738461D02*
X138264090Y-123560666D01*
X139005231Y-124764360D02*
X138298731Y-123540666D01*
X139065872Y-124789394D02*
X138333372Y-123520666D01*
X139125513Y-124812695D02*
X138368013Y-123500666D01*
X139184654Y-124835130D02*
X138402654Y-123480666D01*
X139242795Y-124855833D02*
X138437295Y-123460666D01*
X139299936Y-124874804D02*
X138471936Y-123440666D01*
X139357077Y-124893776D02*
X138506577Y-123420666D01*
X139413218Y-124911015D02*
X138541218Y-123400666D01*
X139468859Y-124927388D02*
X138575859Y-123380666D01*
X139524000Y-124942895D02*
X138610500Y-123360666D01*
X139578141Y-124956670D02*
X138645141Y-123340666D01*
X139632282Y-124970445D02*
X138679782Y-123320666D01*
X139685423Y-124982488D02*
X138714423Y-123300666D01*
X139738564Y-124994531D02*
X138749064Y-123280666D01*
X139791205Y-125005708D02*
X138783705Y-123260666D01*
X139842846Y-125015152D02*
X138818346Y-123240666D01*
X139894487Y-125024596D02*
X138852987Y-123220666D01*
X139945628Y-125033176D02*
X138887628Y-123200666D01*
X139996269Y-125040889D02*
X138922269Y-123180666D01*
X140046410Y-125047736D02*
X138956910Y-123160666D01*
X140096551Y-125054583D02*
X138991551Y-123140666D01*
X140146193Y-125060563D02*
X139026193Y-123120666D01*
X140195334Y-125065678D02*
X139060834Y-123100666D01*
X140243975Y-125069927D02*
X139095475Y-123080666D01*
X140292616Y-125074175D02*
X139130116Y-123060666D01*
X140340757Y-125077558D02*
X139164757Y-123040666D01*
X140388398Y-125080075D02*
X139199398Y-123020666D01*
X140435539Y-125081725D02*
X139234039Y-123000666D01*
X140482680Y-125083376D02*
X139268680Y-122980666D01*
X140529821Y-125085027D02*
X139303322Y-122960666D01*
X140575962Y-125084945D02*
X139337963Y-122940666D01*
X140622103Y-125084864D02*
X139372603Y-122920666D01*
X140668245Y-125084782D02*
X139407244Y-122900666D01*
X140713885Y-125083835D02*
X139441885Y-122880666D01*
X140759026Y-125082022D02*
X139476526Y-122860666D01*
X140804167Y-125080208D02*
X139511167Y-122840666D01*
X140848808Y-125077529D02*
X139545808Y-122820666D01*
X140893449Y-125074849D02*
X139580449Y-122800666D01*
X140937590Y-125071304D02*
X139615090Y-122780666D01*
X140981731Y-125067758D02*
X139649731Y-122760666D01*
X141025372Y-125063347D02*
X139684372Y-122740666D01*
X141069013Y-125058935D02*
X139719013Y-122720666D01*
X141112154Y-125053657D02*
X139753654Y-122700666D01*
X141154795Y-125047514D02*
X139788295Y-122680666D01*
X141197436Y-125041370D02*
X139822936Y-122660666D01*
X141240077Y-125035227D02*
X139857577Y-122640666D01*
X141282218Y-125028217D02*
X137462218Y-118411783D01*
X141324359Y-125021207D02*
X137489359Y-118378793D01*
X141366000Y-125013332D02*
X137517000Y-118346668D01*
X141407641Y-125005456D02*
X137544641Y-118314544D01*
X141448782Y-124996714D02*
X137572782Y-118283286D01*
X141489923Y-124987973D02*
X137600923Y-118252027D01*
X141530564Y-124978365D02*
X137629564Y-118221635D01*
X141571205Y-124968757D02*
X137658205Y-118191243D01*
X141611846Y-124959150D02*
X137686846Y-118160850D01*
X141651987Y-124948676D02*
X137715987Y-118131324D01*
X141692128Y-124938202D02*
X137745128Y-118101798D01*
X141731769Y-124926863D02*
X137774769Y-118073137D01*
X141771410Y-124915523D02*
X137804410Y-118044477D01*
X141810551Y-124903317D02*
X137834551Y-118016683D01*
X141849692Y-124891111D02*
X137864692Y-117988889D01*
X141888333Y-124878039D02*
X137895333Y-117961961D01*
X141927474Y-124865834D02*
X137925474Y-117934166D01*
X141965615Y-124851896D02*
X137956615Y-117908104D01*
X142004256Y-124838824D02*
X137987256Y-117881176D01*
X142041897Y-124824020D02*
X138018897Y-117855980D01*
X142080038Y-124810082D02*
X138050038Y-117829918D01*
X142117679Y-124795279D02*
X138081679Y-117804721D01*
X142155320Y-124780475D02*
X138113320Y-117779525D01*
X142192461Y-124764805D02*
X138145461Y-117755195D01*
X142229602Y-124749135D02*
X138177602Y-117730865D01*
X142266243Y-124732599D02*
X138210243Y-117707401D01*
X142303384Y-124716929D02*
X138242384Y-117683071D01*
X142339525Y-124699527D02*
X138275525Y-117660473D01*
X142376166Y-124682991D02*
X138308166Y-117637009D01*
X142411807Y-124664723D02*
X138341807Y-117615277D01*
X142447948Y-124647321D02*
X138374948Y-117592679D01*
X142483589Y-124629054D02*
X138408589Y-117570946D01*
X142519230Y-124610786D02*
X138442230Y-117549214D01*
X142554371Y-124591652D02*
X138476371Y-117528348D01*
X142589512Y-124572518D02*
X138510512Y-117507482D01*
X142624653Y-124553384D02*
X138544653Y-117486615D01*
X142659294Y-124533384D02*
X138579294Y-117466615D01*
X145449295Y-121346410D02*
X145049295Y-120653590D01*
X145595705Y-120800000D02*
X144902885Y-121200000D01*
X144739293Y-121000000D02*
G75*
G02*
X136499295Y-121000000I-4119999J0D01*
G01*
X136499295Y-121000000D02*
G75*
G02*
X144739293Y-121000000I4119999J0D01*
G01*
%TO.C,R1*%
X156460000Y-121000000D02*
X157230000Y-121000000D01*
X164540000Y-121000000D02*
X163770000Y-121000000D01*
X157230000Y-119630000D02*
X163770000Y-119630000D01*
X163770000Y-122370000D01*
X157230000Y-122370000D01*
X157230000Y-119630000D01*
%TO.C,J4*%
X135300239Y-90155974D02*
X132798830Y-91322401D01*
X144653271Y-116744334D02*
X132798830Y-91322401D01*
X147154681Y-115577908D02*
X135300239Y-90155974D01*
X147154681Y-115577908D02*
X144653271Y-116744334D01*
X147691407Y-116728919D02*
X148274620Y-117979624D01*
X148274620Y-117979624D02*
X147023915Y-118562837D01*
%TO.C,C6*%
X169601002Y-94540302D02*
X170293822Y-94940302D01*
X170147412Y-94393892D02*
X169747412Y-95086712D01*
X173024130Y-100390666D02*
X171641630Y-102785227D01*
X173058771Y-100410666D02*
X171684271Y-102791370D01*
X173093412Y-100430666D02*
X171726912Y-102797514D01*
X173128053Y-100450666D02*
X171769553Y-102803657D01*
X173162694Y-100470666D02*
X171812694Y-102808935D01*
X173197335Y-100490666D02*
X171856335Y-102813347D01*
X173231976Y-100510666D02*
X171899976Y-102817758D01*
X173266617Y-100530666D02*
X171944117Y-102821304D01*
X173301258Y-100550666D02*
X171988258Y-102824849D01*
X173335899Y-100570666D02*
X172032899Y-102827529D01*
X173370540Y-100590666D02*
X172077540Y-102830208D01*
X173405181Y-100610666D02*
X172122681Y-102832022D01*
X173439822Y-100630666D02*
X172167822Y-102833835D01*
X173474463Y-100650666D02*
X172213462Y-102834782D01*
X173509104Y-100670666D02*
X172259604Y-102834864D01*
X173543744Y-100690666D02*
X172305745Y-102834945D01*
X173578385Y-100710666D02*
X172351886Y-102835027D01*
X173613027Y-100730666D02*
X172399027Y-102833376D01*
X173647668Y-100750666D02*
X172446168Y-102831725D01*
X173682309Y-100770666D02*
X172493309Y-102830075D01*
X173716950Y-100790666D02*
X172540950Y-102827558D01*
X173751591Y-100810666D02*
X172589091Y-102824175D01*
X173786232Y-100830666D02*
X172637732Y-102819927D01*
X173820873Y-100850666D02*
X172686373Y-102815678D01*
X173855514Y-100870666D02*
X172735514Y-102810563D01*
X173890156Y-100890666D02*
X172785156Y-102804583D01*
X173924797Y-100910666D02*
X172835297Y-102797736D01*
X173959438Y-100930666D02*
X172885438Y-102790889D01*
X173994079Y-100950666D02*
X172936079Y-102783176D01*
X174028720Y-100970666D02*
X172987220Y-102774596D01*
X174063361Y-100990666D02*
X173038861Y-102765152D01*
X174098002Y-101010666D02*
X173090502Y-102755708D01*
X174132643Y-101030666D02*
X173143143Y-102744531D01*
X174167284Y-101050666D02*
X173196284Y-102732488D01*
X174201925Y-101070666D02*
X173249425Y-102720445D01*
X174236566Y-101090666D02*
X173303566Y-102706670D01*
X174271207Y-101110666D02*
X173357707Y-102692895D01*
X174302413Y-95216615D02*
X170222413Y-102283384D01*
X174305848Y-101130666D02*
X173412848Y-102677388D01*
X174337054Y-95236615D02*
X170257054Y-102303384D01*
X174340489Y-101150666D02*
X173468489Y-102661015D01*
X174371195Y-95257482D02*
X170292195Y-102322518D01*
X174375130Y-101170666D02*
X173524630Y-102643776D01*
X174405336Y-95278348D02*
X170327336Y-102341652D01*
X174409771Y-101190666D02*
X173581771Y-102624804D01*
X174439477Y-95299214D02*
X170362477Y-102360786D01*
X174444412Y-101210666D02*
X173638912Y-102605833D01*
X174473118Y-95320946D02*
X170398118Y-102379054D01*
X174479053Y-101230666D02*
X173697053Y-102585130D01*
X174506759Y-95342679D02*
X170433759Y-102397321D01*
X174513694Y-101250666D02*
X173756194Y-102562695D01*
X174539900Y-95365277D02*
X170469900Y-102414723D01*
X174548335Y-101270666D02*
X173815835Y-102539394D01*
X174573541Y-95387009D02*
X170505541Y-102432991D01*
X174582976Y-101290666D02*
X173876476Y-102514360D01*
X174606182Y-95410473D02*
X170542182Y-102449527D01*
X174617617Y-101310666D02*
X173937617Y-102488461D01*
X174639323Y-95433071D02*
X170578323Y-102466929D01*
X174652258Y-101330666D02*
X174000258Y-102459964D01*
X174671464Y-95457401D02*
X170615464Y-102482599D01*
X174686899Y-101350666D02*
X174063399Y-102430600D01*
X174704105Y-95480865D02*
X170652105Y-102499135D01*
X174721540Y-101370666D02*
X174128040Y-102398639D01*
X174736246Y-95505195D02*
X170689246Y-102514805D01*
X174756181Y-101390666D02*
X174193681Y-102364945D01*
X174768387Y-95529525D02*
X170726387Y-102530475D01*
X174790822Y-101410666D02*
X174260322Y-102329519D01*
X174800028Y-95554721D02*
X170764028Y-102545279D01*
X174831669Y-95579918D02*
X170801669Y-102560082D01*
X174862810Y-95605980D02*
X170839810Y-102574020D01*
X174894451Y-95631176D02*
X170877451Y-102588824D01*
X174925092Y-95658104D02*
X170916092Y-102601896D01*
X174956233Y-95684166D02*
X170954233Y-102615834D01*
X174986374Y-95711961D02*
X170993374Y-102628039D01*
X175017015Y-95738889D02*
X171032015Y-102641111D01*
X175047156Y-95766683D02*
X171071156Y-102653317D01*
X175077297Y-95794477D02*
X171110297Y-102665523D01*
X175106938Y-95823137D02*
X171149938Y-102676863D01*
X175136579Y-95851798D02*
X171189579Y-102688202D01*
X175165720Y-95881324D02*
X171229720Y-102698676D01*
X175194861Y-95910850D02*
X171269861Y-102709150D01*
X175223502Y-95941243D02*
X171310502Y-102718757D01*
X175252143Y-95971635D02*
X171351143Y-102728365D01*
X175280784Y-96002027D02*
X171391784Y-102737973D01*
X175308925Y-96033286D02*
X171432925Y-102746714D01*
X175337066Y-96064544D02*
X171474066Y-102755456D01*
X175364707Y-96096668D02*
X171515707Y-102763332D01*
X175392348Y-96128793D02*
X171557348Y-102771207D01*
X175419489Y-96161783D02*
X171599489Y-102778217D01*
X175446630Y-96194773D02*
X174064130Y-98589334D01*
X175473271Y-96228630D02*
X174098771Y-98609334D01*
X175499912Y-96262486D02*
X174133412Y-98629334D01*
X175526553Y-96296343D02*
X174168053Y-98649334D01*
X175552694Y-96331065D02*
X174202694Y-98669334D01*
X175578335Y-96366653D02*
X174237335Y-98689334D01*
X175603976Y-96402242D02*
X174271976Y-98709334D01*
X175629117Y-96438696D02*
X174306617Y-98729334D01*
X175654258Y-96475151D02*
X174341258Y-98749334D01*
X175678899Y-96512471D02*
X174375899Y-98769334D01*
X175703540Y-96549792D02*
X174410540Y-98789334D01*
X175727681Y-96587978D02*
X174445181Y-98809334D01*
X175751822Y-96626165D02*
X174479822Y-98829334D01*
X175775463Y-96665218D02*
X174514463Y-98849334D01*
X175798604Y-96705136D02*
X174549104Y-98869334D01*
X175821745Y-96745055D02*
X174583745Y-98889334D01*
X175844886Y-96784973D02*
X174618386Y-98909334D01*
X175867027Y-96826624D02*
X174653027Y-98929334D01*
X175889168Y-96868275D02*
X174687668Y-98949334D01*
X175911309Y-96909925D02*
X174722309Y-98969334D01*
X175932950Y-96952442D02*
X174756950Y-98989334D01*
X175954091Y-96995825D02*
X174791591Y-99009334D01*
X175974732Y-97040073D02*
X174826232Y-99029334D01*
X175995373Y-97084322D02*
X174860873Y-99049334D01*
X176015514Y-97129438D02*
X174895514Y-99069334D01*
X176035156Y-97175417D02*
X174930156Y-99089334D01*
X176054297Y-97222264D02*
X174964797Y-99109334D01*
X176062296Y-100328408D02*
X175529296Y-101251592D01*
X176073438Y-97269111D02*
X174999438Y-99129334D01*
X176092079Y-97316824D02*
X175034079Y-99149334D01*
X176110220Y-97365403D02*
X175068720Y-99169334D01*
X176127861Y-97414848D02*
X175103361Y-99189334D01*
X176145155Y-100104892D02*
X175377155Y-101435108D01*
X176145502Y-97464292D02*
X175138002Y-99209334D01*
X176162143Y-97515469D02*
X175172643Y-99229334D01*
X176178284Y-97567512D02*
X175207285Y-99249334D01*
X176194425Y-97619555D02*
X175241926Y-99269334D01*
X176200014Y-99929874D02*
X175253014Y-101570126D01*
X176209566Y-97673330D02*
X175276566Y-99289334D01*
X176224707Y-97727105D02*
X175311207Y-99309334D01*
X176238848Y-97782612D02*
X175345848Y-99329334D01*
X176240373Y-99779970D02*
X175143373Y-101680030D01*
X176252489Y-97838985D02*
X175380489Y-99349334D01*
X176265630Y-97896224D02*
X175415130Y-99369334D01*
X176271232Y-99646521D02*
X175043232Y-101773479D01*
X176277771Y-97955196D02*
X175449771Y-99389334D01*
X176289912Y-98014167D02*
X175484412Y-99409334D01*
X176295591Y-99524330D02*
X174949591Y-101855670D01*
X176301053Y-98074870D02*
X175519053Y-99429334D01*
X176311194Y-98137305D02*
X175553694Y-99449334D01*
X176314450Y-99411665D02*
X174861450Y-101928335D01*
X176320835Y-98200606D02*
X175588335Y-99469334D01*
X176329309Y-99305929D02*
X174777309Y-101994071D01*
X176329476Y-98265640D02*
X175622976Y-99489334D01*
X176337617Y-98331539D02*
X175657617Y-99509334D01*
X176340668Y-99206254D02*
X174696668Y-102053746D01*
X176344258Y-98400036D02*
X175692258Y-99529334D01*
X176349527Y-99110910D02*
X174618527Y-102109090D01*
X176350399Y-98469400D02*
X175726899Y-99549334D01*
X176355040Y-98541361D02*
X175761540Y-99569334D01*
X176355886Y-99019896D02*
X174542886Y-102160104D01*
X176358681Y-98615055D02*
X175796181Y-99589334D01*
X176359745Y-98933212D02*
X174469745Y-102206788D01*
X176361322Y-98690481D02*
X175830822Y-99609334D01*
X176362104Y-98849126D02*
X174398104Y-102250874D01*
X176362463Y-98768504D02*
X174328463Y-102291496D01*
X176382412Y-98750000D02*
G75*
G02*
X168142414Y-98750000I-4119999J0D01*
G01*
X168142414Y-98750000D02*
G75*
G02*
X176382412Y-98750000I4119999J0D01*
G01*
%TO.C,J5*%
X170600115Y-82815328D02*
X168209885Y-84195328D01*
X172074885Y-90889705D02*
X168209885Y-84195328D01*
X174465115Y-89509705D02*
X170600115Y-82815328D01*
X174465115Y-89509705D02*
X172074885Y-90889705D01*
X175100115Y-90609557D02*
X175790115Y-91804672D01*
X175790115Y-91804672D02*
X174595000Y-92494672D01*
%TO.C,J1*%
X154479837Y-94249278D02*
X159499837Y-85554383D01*
X154789837Y-93712342D02*
X163796502Y-98912342D01*
X155539837Y-92413304D02*
X164546502Y-97613304D01*
X156523657Y-95429278D02*
X154479837Y-94249278D01*
X157989837Y-88169780D02*
X166996502Y-93369780D01*
X159499837Y-85554383D02*
X168506502Y-90754383D01*
X163486502Y-99449278D02*
X157043273Y-95729278D01*
X168506502Y-90754383D02*
X163486502Y-99449278D01*
X156859516Y-96327553D02*
X156097414Y-95887553D01*
X156783465Y-95579278D01*
X156859516Y-96327553D01*
G36*
X156859516Y-96327553D02*
G01*
X156097414Y-95887553D01*
X156783465Y-95579278D01*
X156859516Y-96327553D01*
G37*
%TO.C,U2*%
X114718599Y-111941963D02*
X122468599Y-125365357D01*
X122468599Y-125365357D02*
X140291402Y-115075357D01*
X130229114Y-102986963D02*
X114718599Y-111941963D01*
X131564114Y-105299251D02*
X116053599Y-114254251D01*
X131564114Y-105299251D02*
X130229114Y-102986963D01*
X132541402Y-101651963D02*
X131328966Y-102351963D01*
X133241402Y-102864399D02*
X132541402Y-101651963D01*
X133876402Y-103964251D02*
X131564114Y-105299251D01*
X138956402Y-112763069D02*
X121133599Y-123053069D01*
X140291402Y-115075357D02*
X133876402Y-103964251D01*
%TO.C,J7*%
X124209885Y-90804672D02*
X126600115Y-92184672D01*
X128074885Y-84110295D02*
X124209885Y-90804672D01*
X128074885Y-84110295D02*
X130465115Y-85490295D01*
X128709885Y-83010443D02*
X129399885Y-81815328D01*
X129399885Y-81815328D02*
X130595000Y-82505328D01*
X130465115Y-85490295D02*
X126600115Y-92184672D01*
%TO.C,C1*%
X132920000Y-82362651D02*
X141080000Y-82362651D01*
X132920000Y-82402651D02*
X141080000Y-82402651D01*
X132921000Y-82322651D02*
X141079000Y-82322651D01*
X132922000Y-82282651D02*
X141078000Y-82282651D01*
X132923000Y-82242651D02*
X141077000Y-82242651D01*
X132925000Y-82202651D02*
X141075000Y-82202651D01*
X132927000Y-82162651D02*
X141073000Y-82162651D01*
X132930000Y-82122651D02*
X141070000Y-82122651D01*
X132932000Y-82082651D02*
X141068000Y-82082651D01*
X132936000Y-82042651D02*
X141064000Y-82042651D01*
X132939000Y-82002651D02*
X141061000Y-82002651D01*
X132944000Y-81962651D02*
X141056000Y-81962651D01*
X132948000Y-81922651D02*
X141052000Y-81922651D01*
X132953000Y-81882651D02*
X141047000Y-81882651D01*
X132958000Y-81842651D02*
X141042000Y-81842651D01*
X132964000Y-81802651D02*
X141036000Y-81802651D01*
X132970000Y-81762651D02*
X141030000Y-81762651D01*
X132977000Y-81722651D02*
X141023000Y-81722651D01*
X132983000Y-81682651D02*
X141017000Y-81682651D01*
X132991000Y-81642651D02*
X141009000Y-81642651D01*
X132998000Y-81602651D02*
X141002000Y-81602651D01*
X133007000Y-81562651D02*
X140993000Y-81562651D01*
X133015000Y-81522651D02*
X140985000Y-81522651D01*
X133024000Y-81482651D02*
X140976000Y-81482651D01*
X133033000Y-81442651D02*
X140967000Y-81442651D01*
X133043000Y-81402651D02*
X140957000Y-81402651D01*
X133053000Y-81362651D02*
X140947000Y-81362651D01*
X133064000Y-81322651D02*
X140936000Y-81322651D01*
X133075000Y-81282651D02*
X140925000Y-81282651D01*
X133087000Y-81242651D02*
X140913000Y-81242651D01*
X133099000Y-81202651D02*
X140901000Y-81202651D01*
X133111000Y-81162651D02*
X140889000Y-81162651D01*
X133124000Y-81122651D02*
X140876000Y-81122651D01*
X133137000Y-81082651D02*
X140863000Y-81082651D01*
X133151000Y-81042651D02*
X140849000Y-81042651D01*
X133165000Y-81002651D02*
X140835000Y-81002651D01*
X133180000Y-80962651D02*
X140820000Y-80962651D01*
X133195000Y-80922651D02*
X135960000Y-80922651D01*
X133211000Y-80882651D02*
X135960000Y-80882651D01*
X133227000Y-80842651D02*
X135960000Y-80842651D01*
X133243000Y-80802651D02*
X135960000Y-80802651D01*
X133260000Y-80762651D02*
X135960000Y-80762651D01*
X133278000Y-80722651D02*
X135960000Y-80722651D01*
X133296000Y-80682651D02*
X135960000Y-80682651D01*
X133315000Y-80642651D02*
X135960000Y-80642651D01*
X133334000Y-80602651D02*
X135960000Y-80602651D01*
X133354000Y-80562651D02*
X135960000Y-80562651D01*
X133374000Y-80522651D02*
X135960000Y-80522651D01*
X133395000Y-80482651D02*
X135960000Y-80482651D01*
X133416000Y-80442651D02*
X135960000Y-80442651D01*
X133438000Y-80402651D02*
X135960000Y-80402651D01*
X133461000Y-80362651D02*
X135960000Y-80362651D01*
X133484000Y-80322651D02*
X135960000Y-80322651D01*
X133507000Y-80282651D02*
X135960000Y-80282651D01*
X133532000Y-80242651D02*
X135960000Y-80242651D01*
X133557000Y-80202651D02*
X135960000Y-80202651D01*
X133582000Y-80162651D02*
X135960000Y-80162651D01*
X133608000Y-80122651D02*
X135960000Y-80122651D01*
X133635000Y-80082651D02*
X135960000Y-80082651D01*
X133663000Y-80042651D02*
X135960000Y-80042651D01*
X133691000Y-80002651D02*
X135960000Y-80002651D01*
X133720000Y-79962651D02*
X135960000Y-79962651D01*
X133750000Y-79922651D02*
X135960000Y-79922651D01*
X133781000Y-79882651D02*
X135960000Y-79882651D01*
X133812000Y-79842651D02*
X135960000Y-79842651D01*
X133844000Y-79802651D02*
X135960000Y-79802651D01*
X133877000Y-79762651D02*
X135960000Y-79762651D01*
X133911000Y-79722651D02*
X135960000Y-79722651D01*
X133945000Y-79682651D02*
X135960000Y-79682651D01*
X133981000Y-79642651D02*
X135960000Y-79642651D01*
X134018000Y-79602651D02*
X135960000Y-79602651D01*
X134055000Y-79562651D02*
X135960000Y-79562651D01*
X134094000Y-79522651D02*
X135960000Y-79522651D01*
X134133000Y-79482651D02*
X135960000Y-79482651D01*
X134174000Y-79442651D02*
X135960000Y-79442651D01*
X134216000Y-79402651D02*
X135960000Y-79402651D01*
X134259000Y-79362651D02*
X135960000Y-79362651D01*
X134285000Y-86412349D02*
X135085000Y-86412349D01*
X134304000Y-79322651D02*
X135960000Y-79322651D01*
X134349000Y-79282651D02*
X135960000Y-79282651D01*
X134396000Y-79242651D02*
X135960000Y-79242651D01*
X134445000Y-79202651D02*
X135960000Y-79202651D01*
X134495000Y-79162651D02*
X135960000Y-79162651D01*
X134547000Y-79122651D02*
X135960000Y-79122651D01*
X134600000Y-79082651D02*
X135960000Y-79082651D01*
X134656000Y-79042651D02*
X135960000Y-79042651D01*
X134685000Y-86812349D02*
X134685000Y-86012349D01*
X134713000Y-79002651D02*
X135960000Y-79002651D01*
X134773000Y-78962651D02*
X135960000Y-78962651D01*
X134835000Y-78922651D02*
X135960000Y-78922651D01*
X134899000Y-78882651D02*
X135960000Y-78882651D01*
X134966000Y-78842651D02*
X139034000Y-78842651D01*
X135036000Y-78802651D02*
X138964000Y-78802651D01*
X135110000Y-78762651D02*
X138890000Y-78762651D01*
X135187000Y-78722651D02*
X138813000Y-78722651D01*
X135269000Y-78682651D02*
X138731000Y-78682651D01*
X135356000Y-78642651D02*
X138644000Y-78642651D01*
X135448000Y-78602651D02*
X138552000Y-78602651D01*
X135547000Y-78562651D02*
X138453000Y-78562651D01*
X135654000Y-78522651D02*
X138346000Y-78522651D01*
X135772000Y-78482651D02*
X138228000Y-78482651D01*
X135903000Y-78442651D02*
X138097000Y-78442651D01*
X136053000Y-78402651D02*
X137947000Y-78402651D01*
X136232000Y-78362651D02*
X137768000Y-78362651D01*
X136467000Y-78322651D02*
X137533000Y-78322651D01*
X138040000Y-78882651D02*
X139101000Y-78882651D01*
X138040000Y-78922651D02*
X139165000Y-78922651D01*
X138040000Y-78962651D02*
X139227000Y-78962651D01*
X138040000Y-79002651D02*
X139287000Y-79002651D01*
X138040000Y-79042651D02*
X139344000Y-79042651D01*
X138040000Y-79082651D02*
X139400000Y-79082651D01*
X138040000Y-79122651D02*
X139453000Y-79122651D01*
X138040000Y-79162651D02*
X139505000Y-79162651D01*
X138040000Y-79202651D02*
X139555000Y-79202651D01*
X138040000Y-79242651D02*
X139604000Y-79242651D01*
X138040000Y-79282651D02*
X139651000Y-79282651D01*
X138040000Y-79322651D02*
X139696000Y-79322651D01*
X138040000Y-79362651D02*
X139741000Y-79362651D01*
X138040000Y-79402651D02*
X139784000Y-79402651D01*
X138040000Y-79442651D02*
X139826000Y-79442651D01*
X138040000Y-79482651D02*
X139867000Y-79482651D01*
X138040000Y-79522651D02*
X139906000Y-79522651D01*
X138040000Y-79562651D02*
X139945000Y-79562651D01*
X138040000Y-79602651D02*
X139982000Y-79602651D01*
X138040000Y-79642651D02*
X140019000Y-79642651D01*
X138040000Y-79682651D02*
X140055000Y-79682651D01*
X138040000Y-79722651D02*
X140089000Y-79722651D01*
X138040000Y-79762651D02*
X140123000Y-79762651D01*
X138040000Y-79802651D02*
X140156000Y-79802651D01*
X138040000Y-79842651D02*
X140188000Y-79842651D01*
X138040000Y-79882651D02*
X140219000Y-79882651D01*
X138040000Y-79922651D02*
X140250000Y-79922651D01*
X138040000Y-79962651D02*
X140280000Y-79962651D01*
X138040000Y-80002651D02*
X140309000Y-80002651D01*
X138040000Y-80042651D02*
X140337000Y-80042651D01*
X138040000Y-80082651D02*
X140365000Y-80082651D01*
X138040000Y-80122651D02*
X140392000Y-80122651D01*
X138040000Y-80162651D02*
X140418000Y-80162651D01*
X138040000Y-80202651D02*
X140443000Y-80202651D01*
X138040000Y-80242651D02*
X140468000Y-80242651D01*
X138040000Y-80282651D02*
X140493000Y-80282651D01*
X138040000Y-80322651D02*
X140516000Y-80322651D01*
X138040000Y-80362651D02*
X140539000Y-80362651D01*
X138040000Y-80402651D02*
X140562000Y-80402651D01*
X138040000Y-80442651D02*
X140584000Y-80442651D01*
X138040000Y-80482651D02*
X140605000Y-80482651D01*
X138040000Y-80522651D02*
X140626000Y-80522651D01*
X138040000Y-80562651D02*
X140646000Y-80562651D01*
X138040000Y-80602651D02*
X140666000Y-80602651D01*
X138040000Y-80642651D02*
X140685000Y-80642651D01*
X138040000Y-80682651D02*
X140704000Y-80682651D01*
X138040000Y-80722651D02*
X140722000Y-80722651D01*
X138040000Y-80762651D02*
X140740000Y-80762651D01*
X138040000Y-80802651D02*
X140757000Y-80802651D01*
X138040000Y-80842651D02*
X140773000Y-80842651D01*
X138040000Y-80882651D02*
X140789000Y-80882651D01*
X138040000Y-80922651D02*
X140805000Y-80922651D01*
X141120000Y-82402651D02*
G75*
G02*
X132880000Y-82402651I-4120000J0D01*
G01*
X132880000Y-82402651D02*
G75*
G02*
X141120000Y-82402651I4120000J0D01*
G01*
%TO.C,U1*%
X159718599Y-115058037D02*
X160931035Y-115758037D01*
X160418599Y-113845601D02*
X159718599Y-115058037D01*
X161053599Y-112745749D02*
X163365887Y-114080749D01*
X162030887Y-116393037D02*
X177541402Y-125348037D01*
X163365887Y-114080749D02*
X162030887Y-116393037D01*
X163365887Y-114080749D02*
X178876402Y-123035749D01*
X166133599Y-103946932D02*
X183956402Y-114236931D01*
X167468599Y-101634643D02*
X161053599Y-112745749D01*
X177541402Y-125348037D02*
X185291402Y-111924643D01*
X185291402Y-111924643D02*
X167468599Y-101634643D01*
%TO.C,U3*%
X142240000Y-64210000D02*
X142240000Y-84790000D01*
X142240000Y-84790000D02*
X155070000Y-84790000D01*
X144910000Y-84790000D02*
X144910000Y-64210000D01*
X155070000Y-82120000D02*
X155070000Y-64210000D01*
X155070000Y-82120000D02*
X157740000Y-82120000D01*
X155070000Y-84790000D02*
X155070000Y-82120000D01*
X156340000Y-84790000D02*
X157740000Y-84790000D01*
X157740000Y-64210000D02*
X142240000Y-64210000D01*
X157740000Y-82120000D02*
X157740000Y-64210000D01*
X157740000Y-84790000D02*
X157740000Y-83390000D01*
%TO.C,J6*%
X144810000Y-127380000D02*
X144810000Y-126000000D01*
X146190000Y-127380000D02*
X144810000Y-127380000D01*
X147460000Y-124620000D02*
X155190000Y-124620000D01*
X147460000Y-127380000D02*
X147460000Y-124620000D01*
X147460000Y-127380000D02*
X155190000Y-127380000D01*
X155190000Y-127380000D02*
X155190000Y-124620000D01*
%TD*%
M02*
