M48
; DRILL file {KiCad 9.0.7} date 2026-04-02T17:20:40+0200
; FORMAT={-:-/ absolute / metric / decimal}
; #@! TF.CreationDate,2026-04-02T17:20:40+02:00
; #@! TF.GenerationSoftware,Kicad,Pcbnew,9.0.7
; #@! TF.FileFunction,Plated,1,4,PTH
FMAT,2
METRIC
; #@! TA.AperFunction,Plated,PTH,ViaDrill
T1C0.300
; #@! TA.AperFunction,Plated,PTH,ComponentDrill
T2C0.800
; #@! TA.AperFunction,Plated,PTH,ComponentDrill
T3C1.000
; #@! TA.AperFunction,Plated,PTH,ComponentDrill
T4C1.300
%
G90
G05
T1
X124.5Y-110.0
X131.0Y-94.5
X135.0Y-109.5
X136.5Y-109.5
X137.5Y-111.1
X139.0Y-110.5
X148.0Y-82.0
T2
X116.631Y-112.454
X118.831Y-111.184
X121.03Y-109.914
X122.981Y-123.453
X123.23Y-108.644
X125.181Y-122.183
X125.43Y-107.374
X127.38Y-120.913
X127.63Y-106.104
X129.58Y-119.643
X129.829Y-104.834
X131.78Y-118.373
X132.029Y-103.564
X133.98Y-117.103
X136.179Y-115.833
X137.0Y-79.903
X137.0Y-84.903
X138.379Y-114.563
X138.454Y-122.25
X142.784Y-119.75
X143.64Y-65.61
X143.64Y-68.15
X143.64Y-70.69
X143.64Y-73.23
X143.64Y-75.77
X143.64Y-78.31
X143.64Y-80.85
X143.64Y-83.39
X155.42Y-121.0
X156.34Y-65.61
X156.34Y-68.15
X156.34Y-70.69
X156.34Y-73.23
X156.34Y-75.77
X156.34Y-78.31
X156.34Y-80.85
X156.34Y-83.39
X161.631Y-114.546
X163.831Y-115.816
X165.58Y-121.0
X166.03Y-117.086
X167.981Y-103.547
X168.23Y-118.356
X170.097Y-97.5
X170.181Y-104.817
X170.43Y-119.626
X172.38Y-106.087
X172.63Y-120.896
X174.427Y-100.0
X174.58Y-107.357
X174.829Y-122.166
X176.78Y-108.627
X177.029Y-123.436
X178.98Y-109.897
X181.179Y-111.167
X183.379Y-112.437
T3
X126.095Y-90.3
X127.365Y-88.1
X128.635Y-85.9
X129.905Y-83.7
X134.633Y-91.99
X135.706Y-94.292
X136.78Y-96.594
X137.853Y-98.896
X138.927Y-101.198
X140.0Y-103.5
X141.073Y-105.802
X142.147Y-108.104
X143.22Y-110.406
X144.294Y-112.708
X145.367Y-115.01
X146.19Y-126.0
X146.441Y-117.312
X148.73Y-126.0
X151.27Y-126.0
X153.81Y-126.0
X170.095Y-84.7
X171.365Y-86.9
X172.635Y-89.1
X173.905Y-91.3
T4
X159.143Y-91.492
X163.543Y-94.032
M30
