<?xml version="1.0" standalone="no"?>
 <!DOCTYPE svg PUBLIC "-//W3C//DTD SVG 1.1//EN" 
 "http://www.w3.org/Graphics/SVG/1.1/DTD/svg11.dtd"> 
<svg
  xmlns:svg="http://www.w3.org/2000/svg"
  xmlns="http://www.w3.org/2000/svg"
  xmlns:xlink="http://www.w3.org/1999/xlink"
  version="1.1"
  width="297.0022mm" height="210.0072mm" viewBox="0.0000 0.0000 297.0022 210.0072">
<title>SVG Image created as drivers-F_Silkscreen.svg date 2026/03/27 20:03:39 </title>
  <desc>Image generated by PCBNEW </desc>
<g style="fill:#000000; fill-opacity:1.0000;stroke:#000000; stroke-opacity:1.0000;
stroke-linecap:round; stroke-linejoin:round;"
 transform="translate(0 0) scale(1 1)">
</g>
<g style="fill:none; 
stroke:#000000; stroke-width:0.8000; stroke-opacity:1; 
stroke-linecap:round; stroke-linejoin:round;">
<g transform="rotate(-60.000000 155.0000 92.5000)">
<text x="155.0000" y="92.5000"
textLength="6.5524" font-size="5.3333" lengthAdjust="spacingAndGlyphs"
text-anchor="start" opacity="0" stroke-opacity="0">+</text>
</g>
<g class="stroked-text"><desc>+</desc>
<path d="M153.9597 90.1919
L155.4835 87.5526
" />
<path d="M156.0413 89.6342
L153.4020 88.1104
" />
</g></g>
<g style="fill:none; 
stroke:#000000; stroke-width:0.0625; stroke-opacity:1; 
stroke-linecap:round; stroke-linejoin:round;">
<g transform="rotate(-90.000000 145.5000 126.5000)">
<text x="145.5000" y="126.7500"
textLength="0.9446" font-size="0.6667" lengthAdjust="spacingAndGlyphs"
text-anchor="middle" opacity="0" stroke-opacity="0">J6</text>
</g>
<g class="stroked-text"><desc>J6</desc>
<path d="M145.2281 126.6667
L145.5852 126.6667
" />
<path d="M145.5852 126.6667
L145.6566 126.6905
" />
<path d="M145.6566 126.6905
L145.7043 126.7381
" />
<path d="M145.7043 126.7381
L145.7281 126.8095
" />
<path d="M145.7281 126.8095
L145.7281 126.8571
" />
<path d="M145.2281 126.2143
L145.2281 126.3095
" />
<path d="M145.2281 126.3095
L145.2519 126.3571
" />
<path d="M145.2519 126.3571
L145.2757 126.3810
" />
<path d="M145.2757 126.3810
L145.3471 126.4286
" />
<path d="M145.3471 126.4286
L145.4423 126.4524
" />
<path d="M145.4423 126.4524
L145.6328 126.4524
" />
<path d="M145.6328 126.4524
L145.6804 126.4286
" />
<path d="M145.6804 126.4286
L145.7043 126.4048
" />
<path d="M145.7043 126.4048
L145.7281 126.3571
" />
<path d="M145.7281 126.3571
L145.7281 126.2619
" />
<path d="M145.7281 126.2619
L145.7043 126.2143
" />
<path d="M145.7043 126.2143
L145.6804 126.1905
" />
<path d="M145.6804 126.1905
L145.6328 126.1667
" />
<path d="M145.6328 126.1667
L145.5138 126.1667
" />
<path d="M145.5138 126.1667
L145.4662 126.1905
" />
<path d="M145.4662 126.1905
L145.4423 126.2143
" />
<path d="M145.4423 126.2143
L145.4185 126.2619
" />
<path d="M145.4185 126.2619
L145.4185 126.3571
" />
<path d="M145.4185 126.3571
L145.4423 126.4048
" />
<path d="M145.4423 126.4048
L145.4662 126.4286
" />
<path d="M145.4662 126.4286
L145.5138 126.4524
" />
</g><text x="149.9900" y="83.2500"
textLength="1.0875" font-size="0.6667" lengthAdjust="spacingAndGlyphs"
text-anchor="middle" opacity="0" stroke-opacity="0">U3</text>
<g class="stroked-text"><desc>U3</desc>
<path d="M149.6090 82.7281
L149.6090 83.1328
" />
<path d="M149.6090 83.1328
L149.6329 83.1804
" />
<path d="M149.6329 83.1804
L149.6567 83.2043
" />
<path d="M149.6567 83.2043
L149.7043 83.2281
" />
<path d="M149.7043 83.2281
L149.7995 83.2281
" />
<path d="M149.7995 83.2281
L149.8471 83.2043
" />
<path d="M149.8471 83.2043
L149.8710 83.1804
" />
<path d="M149.8710 83.1804
L149.8948 83.1328
" />
<path d="M149.8948 83.1328
L149.8948 82.7281
" />
<path d="M150.0852 82.7281
L150.3948 82.7281
" />
<path d="M150.3948 82.7281
L150.2281 82.9185
" />
<path d="M150.2281 82.9185
L150.2995 82.9185
" />
<path d="M150.2995 82.9185
L150.3471 82.9423
" />
<path d="M150.3471 82.9423
L150.3710 82.9662
" />
<path d="M150.3710 82.9662
L150.3948 83.0138
" />
<path d="M150.3948 83.0138
L150.3948 83.1328
" />
<path d="M150.3948 83.1328
L150.3710 83.1804
" />
<path d="M150.3710 83.1804
L150.3471 83.2043
" />
<path d="M150.3471 83.2043
L150.2995 83.2281
" />
<path d="M150.2995 83.2281
L150.1567 83.2281
" />
<path d="M150.1567 83.2281
L150.1090 83.2043
" />
<path d="M150.1090 83.2043
L150.0852 83.1804
" />
</g><g transform="rotate(60.000000 134.5000 109.0000)">
<text x="134.5000" y="109.2500"
textLength="1.0875" font-size="0.6667" lengthAdjust="spacingAndGlyphs"
text-anchor="middle" opacity="0" stroke-opacity="0">U2</text>
</g>
<g class="stroked-text"><desc>U2</desc>
<path d="M134.5450 108.5341
L134.1945 108.7365
" />
<path d="M134.1945 108.7365
L134.1652 108.7809
" />
<path d="M134.1652 108.7809
L134.1564 108.8134
" />
<path d="M134.1564 108.8134
L134.1596 108.8666
" />
<path d="M134.1596 108.8666
L134.2073 108.9491
" />
<path d="M134.2073 108.9491
L134.2517 108.9784
" />
<path d="M134.2517 108.9784
L134.2842 108.9871
" />
<path d="M134.2842 108.9871
L134.3374 108.9839
" />
<path d="M134.3374 108.9839
L134.6879 108.7816
" />
<path d="M134.7538 108.9909
L134.7863 108.9997
" />
<path d="M134.7863 108.9997
L134.8307 109.0290
" />
<path d="M134.8307 109.0290
L134.8903 109.1321
" />
<path d="M134.8903 109.1321
L134.8935 109.1852
" />
<path d="M134.8935 109.1852
L134.8847 109.2178
" />
<path d="M134.8847 109.2178
L134.8554 109.2622
" />
<path d="M134.8554 109.2622
L134.8142 109.2860
" />
<path d="M134.8142 109.2860
L134.7404 109.3011
" />
<path d="M134.7404 109.3011
L134.3501 109.1965
" />
<path d="M134.3501 109.1965
L134.5049 109.4646
" />
</g><g transform="rotate(-60.000000 166.5000 110.0000)">
<text x="166.5000" y="110.2500"
textLength="1.0875" font-size="0.6667" lengthAdjust="spacingAndGlyphs"
text-anchor="middle" opacity="0" stroke-opacity="0">U1</text>
</g>
<g class="stroked-text"><desc>U1</desc>
<path d="M166.0740 110.1939
L166.4245 110.3963
" />
<path d="M166.4245 110.3963
L166.4777 110.3995
" />
<path d="M166.4777 110.3995
L166.5102 110.3908
" />
<path d="M166.5102 110.3908
L166.5546 110.3615
" />
<path d="M166.5546 110.3615
L166.6023 110.2790
" />
<path d="M166.6023 110.2790
L166.6055 110.2258
" />
<path d="M166.6055 110.2258
L166.5967 110.1933
" />
<path d="M166.5967 110.1933
L166.5674 110.1489
" />
<path d="M166.5674 110.1489
L166.2169 109.9465
" />
<path d="M166.8999 109.7635
L166.7570 110.0109
" />
<path d="M166.8285 109.8872
L166.3954 109.6372
" />
<path d="M166.3954 109.6372
L166.4335 109.7142
" />
<path d="M166.4335 109.7142
L166.4509 109.7792
" />
<path d="M166.4509 109.7792
L166.4477 109.8324
" />
</g><text x="160.5000" y="121.2500"
textLength="1.0637" font-size="0.6667" lengthAdjust="spacingAndGlyphs"
text-anchor="middle" opacity="0" stroke-opacity="0">R1</text>
<g class="stroked-text"><desc>R1</desc>
<path d="M160.4167 121.2281
L160.2500 120.9900
" />
<path d="M160.1310 121.2281
L160.1310 120.7281
" />
<path d="M160.1310 120.7281
L160.3214 120.7281
" />
<path d="M160.3214 120.7281
L160.3690 120.7519
" />
<path d="M160.3690 120.7519
L160.3929 120.7757
" />
<path d="M160.3929 120.7757
L160.4167 120.8233
" />
<path d="M160.4167 120.8233
L160.4167 120.8947
" />
<path d="M160.4167 120.8947
L160.3929 120.9423
" />
<path d="M160.3929 120.9423
L160.3690 120.9662
" />
<path d="M160.3690 120.9662
L160.3214 120.9900
" />
<path d="M160.3214 120.9900
L160.1310 120.9900
" />
<path d="M160.8929 121.2281
L160.6071 121.2281
" />
<path d="M160.7500 121.2281
L160.7500 120.7281
" />
<path d="M160.7500 120.7281
L160.7024 120.7995
" />
<path d="M160.7024 120.7995
L160.6548 120.8471
" />
<path d="M160.6548 120.8471
L160.6071 120.8709
" />
</g><g transform="rotate(30.000000 129.5000 82.5000)">
<text x="129.5000" y="82.7500"
textLength="0.9446" font-size="0.6667" lengthAdjust="spacingAndGlyphs"
text-anchor="middle" opacity="0" stroke-opacity="0">J7</text>
</g>
<g class="stroked-text"><desc>J7</desc>
<path d="M129.4916 82.1812
L129.3131 82.4905
" />
<path d="M129.3131 82.4905
L129.2567 82.5404
" />
<path d="M129.2567 82.5404
L129.1917 82.5578
" />
<path d="M129.1917 82.5578
L129.1179 82.5427
" />
<path d="M129.1179 82.5427
L129.0767 82.5189
" />
<path d="M129.6566 82.2764
L129.9453 82.4431
" />
<path d="M129.9453 82.4431
L129.5097 82.7689
" />
</g><g transform="rotate(-30.000000 175.0000 91.5000)">
<text x="175.0000" y="91.7500"
textLength="0.9446" font-size="0.6667" lengthAdjust="spacingAndGlyphs"
text-anchor="middle" opacity="0" stroke-opacity="0">J5</text>
</g>
<g class="stroked-text"><desc>J5</desc>
<path d="M174.7197 91.3478
L174.8983 91.6571
" />
<path d="M174.8983 91.6571
L174.9134 91.7309
" />
<path d="M174.9134 91.7309
L174.8959 91.7959
" />
<path d="M174.8959 91.7959
L174.8460 91.8523
" />
<path d="M174.8460 91.8523
L174.8047 91.8761
" />
<path d="M175.1321 91.1097
L174.9259 91.2288
" />
<path d="M174.9259 91.2288
L175.0243 91.4469
" />
<path d="M175.0243 91.4469
L175.0330 91.4144
" />
<path d="M175.0330 91.4144
L175.0624 91.3699
" />
<path d="M175.0624 91.3699
L175.1655 91.3104
" />
<path d="M175.1655 91.3104
L175.2186 91.3072
" />
<path d="M175.2186 91.3072
L175.2511 91.3159
" />
<path d="M175.2511 91.3159
L175.2956 91.3453
" />
<path d="M175.2956 91.3453
L175.3551 91.4484
" />
<path d="M175.3551 91.4484
L175.3583 91.5015
" />
<path d="M175.3583 91.5015
L175.3496 91.5340
" />
<path d="M175.3496 91.5340
L175.3202 91.5785
" />
<path d="M175.3202 91.5785
L175.2171 91.6380
" />
<path d="M175.2171 91.6380
L175.1640 91.6412
" />
<path d="M175.1640 91.6412
L175.1315 91.6325
" />
</g><text x="150.5000" y="118.2500"
textLength="0.9446" font-size="0.6667" lengthAdjust="spacingAndGlyphs"
text-anchor="middle" opacity="0" stroke-opacity="0">J4</text>
<g class="stroked-text"><desc>J4</desc>
<path d="M150.3333 117.7281
L150.3333 118.0852
" />
<path d="M150.3333 118.0852
L150.3095 118.1566
" />
<path d="M150.3095 118.1566
L150.2619 118.2042
" />
<path d="M150.2619 118.2042
L150.1905 118.2281
" />
<path d="M150.1905 118.2281
L150.1429 118.2281
" />
<path d="M150.7857 117.8947
L150.7857 118.2281
" />
<path d="M150.6667 117.7042
L150.5476 118.0614
" />
<path d="M150.5476 118.0614
L150.8571 118.0614
" />
</g><g transform="rotate(30.000000 161.5000 92.5000)">
<text x="161.5000" y="92.7500"
textLength="0.9446" font-size="0.6667" lengthAdjust="spacingAndGlyphs"
text-anchor="middle" opacity="0" stroke-opacity="0">J1</text>
</g>
<g class="stroked-text"><desc>J1</desc>
<path d="M161.4916 92.1812
L161.3131 92.4905
" />
<path d="M161.3131 92.4905
L161.2567 92.5404
" />
<path d="M161.2567 92.5404
L161.1917 92.5578
" />
<path d="M161.1917 92.5578
L161.1179 92.5427
" />
<path d="M161.1179 92.5427
L161.0767 92.5189
" />
<path d="M161.6746 92.8642
L161.4272 92.7213
" />
<path d="M161.5509 92.7927
L161.8009 92.3597
" />
<path d="M161.8009 92.3597
L161.7240 92.3978
" />
<path d="M161.7240 92.3978
L161.6589 92.4152
" />
<path d="M161.6589 92.4152
L161.6058 92.4120
" />
</g></g>
<g style="fill:none; 
stroke:#000000; stroke-width:0.1500; stroke-opacity:1; 
stroke-linecap:round; stroke-linejoin:round;">
<text x="187.7275" y="118.6320"
textLength="2.2500" font-size="1.3333" lengthAdjust="spacingAndGlyphs"
text-anchor="middle" opacity="0" stroke-opacity="0">H3</text>
<g class="stroked-text"><desc>H3</desc>
<path d="M186.9656 118.5868
L186.9656 117.5868
" />
<path d="M186.9656 118.0630
L187.5371 118.0630
" />
<path d="M187.5371 118.5868
L187.5371 117.5868
" />
<path d="M187.9180 117.5868
L188.5371 117.5868
" />
<path d="M188.5371 117.5868
L188.2037 117.9678
" />
<path d="M188.2037 117.9678
L188.3466 117.9678
" />
<path d="M188.3466 117.9678
L188.4418 118.0154
" />
<path d="M188.4418 118.0154
L188.4894 118.0630
" />
<path d="M188.4894 118.0630
L188.5371 118.1582
" />
<path d="M188.5371 118.1582
L188.5371 118.3963
" />
<path d="M188.5371 118.3963
L188.4894 118.4916
" />
<path d="M188.4894 118.4916
L188.4418 118.5392
" />
<path d="M188.4418 118.5392
L188.3466 118.5868
" />
<path d="M188.3466 118.5868
L188.0609 118.5868
" />
<path d="M188.0609 118.5868
L187.9656 118.5392
" />
<path d="M187.9656 118.5392
L187.9180 118.4916
" />
</g><text x="112.2725" y="118.6320"
textLength="2.2500" font-size="1.3333" lengthAdjust="spacingAndGlyphs"
text-anchor="middle" opacity="0" stroke-opacity="0">H2</text>
<g class="stroked-text"><desc>H2</desc>
<path d="M111.5106 118.5868
L111.5106 117.5868
" />
<path d="M111.5106 118.0630
L112.0820 118.0630
" />
<path d="M112.0820 118.5868
L112.0820 117.5868
" />
<path d="M112.5106 117.6821
L112.5582 117.6344
" />
<path d="M112.5582 117.6344
L112.6534 117.5868
" />
<path d="M112.6534 117.5868
L112.8915 117.5868
" />
<path d="M112.8915 117.5868
L112.9868 117.6344
" />
<path d="M112.9868 117.6344
L113.0344 117.6821
" />
<path d="M113.0344 117.6821
L113.0820 117.7773
" />
<path d="M113.0820 117.7773
L113.0820 117.8725
" />
<path d="M113.0820 117.8725
L113.0344 118.0154
" />
<path d="M113.0344 118.0154
L112.4629 118.5868
" />
<path d="M112.4629 118.5868
L113.0820 118.5868
" />
</g><text x="150.0000" y="53.3500"
textLength="2.2500" font-size="1.3333" lengthAdjust="spacingAndGlyphs"
text-anchor="middle" opacity="0" stroke-opacity="0">H1</text>
<g class="stroked-text"><desc>H1</desc>
<path d="M149.2381 53.3048
L149.2381 52.3048
" />
<path d="M149.2381 52.7810
L149.8095 52.7810
" />
<path d="M149.8095 53.3048
L149.8095 52.3048
" />
<path d="M150.8095 53.3048
L150.2381 53.3048
" />
<path d="M150.5238 53.3048
L150.5238 52.3048
" />
<path d="M150.5238 52.3048
L150.4286 52.4477
" />
<path d="M150.4286 52.4477
L150.3333 52.5429
" />
<path d="M150.3333 52.5429
L150.2381 52.5905
" />
</g></g>
<g style="fill:none; 
stroke:#000000; stroke-width:0.0625; stroke-opacity:1; 
stroke-linecap:round; stroke-linejoin:round;">
<g transform="rotate(30.000000 172.0000 97.5000)">
<text x="172.0000" y="97.7500"
textLength="1.0637" font-size="0.6667" lengthAdjust="spacingAndGlyphs"
text-anchor="middle" opacity="0" stroke-opacity="0">C6</text>
</g>
<g class="stroked-text"><desc>C6</desc>
<path d="M171.8376 97.6146
L171.8051 97.6233
" />
<path d="M171.8051 97.6233
L171.7313 97.6082
" />
<path d="M171.7313 97.6082
L171.6901 97.5844
" />
<path d="M171.6901 97.5844
L171.6401 97.5281
" />
<path d="M171.6401 97.5281
L171.6227 97.4630
" />
<path d="M171.6227 97.4630
L171.6259 97.4099
" />
<path d="M171.6259 97.4099
L171.6529 97.3155
" />
<path d="M171.6529 97.3155
L171.6886 97.2536
" />
<path d="M171.6886 97.2536
L171.7568 97.1831
" />
<path d="M171.7568 97.1831
L171.8013 97.1537
" />
<path d="M171.8013 97.1537
L171.8663 97.1363
" />
<path d="M171.8663 97.1363
L171.9401 97.1514
" />
<path d="M171.9401 97.1514
L171.9813 97.1752
" />
<path d="M171.9813 97.1752
L172.0313 97.2315
" />
<path d="M172.0313 97.2315
L172.0400 97.2641
" />
<path d="M172.4350 97.4371
L172.3525 97.3895
" />
<path d="M172.3525 97.3895
L172.2993 97.3863
" />
<path d="M172.2993 97.3863
L172.2668 97.3950
" />
<path d="M172.2668 97.3950
L172.1899 97.4331
" />
<path d="M172.1899 97.4331
L172.1216 97.5036
" />
<path d="M172.1216 97.5036
L172.0264 97.6686
" />
<path d="M172.0264 97.6686
L172.0232 97.7217
" />
<path d="M172.0232 97.7217
L172.0319 97.7543
" />
<path d="M172.0319 97.7543
L172.0612 97.7987
" />
<path d="M172.0612 97.7987
L172.1437 97.8463
" />
<path d="M172.1437 97.8463
L172.1969 97.8495
" />
<path d="M172.1969 97.8495
L172.2294 97.8408
" />
<path d="M172.2294 97.8408
L172.2738 97.8115
" />
<path d="M172.2738 97.8115
L172.3333 97.7084
" />
<path d="M172.3333 97.7084
L172.3365 97.6552
" />
<path d="M172.3365 97.6552
L172.3278 97.6227
" />
<path d="M172.3278 97.6227
L172.2985 97.5783
" />
<path d="M172.2985 97.5783
L172.2160 97.5306
" />
<path d="M172.2160 97.5306
L172.1629 97.5275
" />
<path d="M172.1629 97.5275
L172.1303 97.5362
" />
<path d="M172.1303 97.5362
L172.0859 97.5655
" />
</g><g transform="rotate(-30.000000 142.5000 121.5000)">
<text x="142.5000" y="121.7500"
textLength="1.0637" font-size="0.6667" lengthAdjust="spacingAndGlyphs"
text-anchor="middle" opacity="0" stroke-opacity="0">C4</text>
</g>
<g class="stroked-text"><desc>C4</desc>
<path d="M142.5181 121.6979
L142.5093 121.7305
" />
<path d="M142.5093 121.7305
L142.4594 121.7868
" />
<path d="M142.4594 121.7868
L142.4181 121.8106
" />
<path d="M142.4181 121.8106
L142.3444 121.8257
" />
<path d="M142.3444 121.8257
L142.2793 121.8083
" />
<path d="M142.2793 121.8083
L142.2349 121.7789
" />
<path d="M142.2349 121.7789
L142.1667 121.7084
" />
<path d="M142.1667 121.7084
L142.1309 121.6465
" />
<path d="M142.1309 121.6465
L142.1039 121.5521
" />
<path d="M142.1039 121.5521
L142.1008 121.4990
" />
<path d="M142.1008 121.4990
L142.1182 121.4339
" />
<path d="M142.1182 121.4339
L142.1681 121.3776
" />
<path d="M142.1681 121.3776
L142.2094 121.3538
" />
<path d="M142.2094 121.3538
L142.2831 121.3387
" />
<path d="M142.2831 121.3387
L142.3157 121.3474
" />
<path d="M142.7463 121.2362
L142.9130 121.5249
" />
<path d="M142.5480 121.1308
L142.6235 121.4996
" />
<path d="M142.6235 121.4996
L142.8915 121.3448
" />
</g><g transform="rotate(-90.000000 135.0000 83.0000)">
<text x="135.0000" y="83.2500"
textLength="1.0637" font-size="0.6667" lengthAdjust="spacingAndGlyphs"
text-anchor="middle" opacity="0" stroke-opacity="0">C1</text>
</g>
<g class="stroked-text"><desc>C1</desc>
<path d="M135.1804 83.0833
L135.2043 83.1071
" />
<path d="M135.2043 83.1071
L135.2281 83.1786
" />
<path d="M135.2281 83.1786
L135.2281 83.2262
" />
<path d="M135.2281 83.2262
L135.2043 83.2976
" />
<path d="M135.2043 83.2976
L135.1566 83.3452
" />
<path d="M135.1566 83.3452
L135.1090 83.3690
" />
<path d="M135.1090 83.3690
L135.0138 83.3929
" />
<path d="M135.0138 83.3929
L134.9423 83.3929
" />
<path d="M134.9423 83.3929
L134.8471 83.3690
" />
<path d="M134.8471 83.3690
L134.7995 83.3452
" />
<path d="M134.7995 83.3452
L134.7519 83.2976
" />
<path d="M134.7519 83.2976
L134.7281 83.2262
" />
<path d="M134.7281 83.2262
L134.7281 83.1786
" />
<path d="M134.7281 83.1786
L134.7519 83.1071
" />
<path d="M134.7519 83.1071
L134.7757 83.0833
" />
<path d="M135.2281 82.6071
L135.2281 82.8929
" />
<path d="M135.2281 82.7500
L134.7281 82.7500
" />
<path d="M134.7281 82.7500
L134.7995 82.7976
" />
<path d="M134.7995 82.7976
L134.8471 82.8452
" />
<path d="M134.8471 82.8452
L134.8709 82.8929
" />
</g></g>
<g style="fill:none; 
stroke:#000000; stroke-width:0.1200; stroke-opacity:1; 
stroke-linecap:round; stroke-linejoin:round;">
<path d="M147.4600 124.6200
L155.1900 124.6200
" />
<path d="M155.1900 127.3800
L155.1900 124.6200
" />
<path d="M147.4600 127.3800
L147.4600 124.6200
" />
<path d="M147.4600 127.3800
L155.1900 127.3800
" />
<path d="M146.1900 127.3800
L144.8100 127.3800
" />
<path d="M144.8100 127.3800
L144.8100 126.0000
" />
<path d="M157.7400 84.7900
L157.7400 83.3900
" />
<path d="M157.7400 82.1200
L157.7400 64.2100
" />
<path d="M157.7400 64.2100
L142.2400 64.2100
" />
<path d="M156.3400 84.7900
L157.7400 84.7900
" />
<path d="M155.0700 84.7900
L155.0700 82.1200
" />
<path d="M155.0700 82.1200
L157.7400 82.1200
" />
<path d="M155.0700 82.1200
L155.0700 64.2100
" />
<path d="M144.9100 84.7900
L144.9100 64.2100
" />
<path d="M142.2400 84.7900
L155.0700 84.7900
" />
<path d="M142.2400 64.2100
L142.2400 84.7900
" />
<path d="M132.5414 101.6520
L131.3290 102.3520
" />
<path d="M130.2291 102.9870
L114.7186 111.9420
" />
<path d="M114.7186 111.9420
L122.4686 125.3654
" />
<path d="M133.2414 102.8644
L132.5414 101.6520
" />
<path d="M133.8764 103.9643
L131.5641 105.2993
" />
<path d="M131.5641 105.2993
L130.2291 102.9870
" />
<path d="M131.5641 105.2993
L116.0536 114.2543
" />
<path d="M138.9564 112.7631
L121.1336 123.0531
" />
<path d="M140.2914 115.0754
L133.8764 103.9643
" />
<path d="M122.4686 125.3654
L140.2914 115.0754
" />
<path d="M159.7186 115.0580
L160.9310 115.7580
" />
<path d="M162.0309 116.3930
L177.5414 125.3480
" />
<path d="M177.5414 125.3480
L185.2914 111.9246
" />
<path d="M160.4186 113.8456
L159.7186 115.0580
" />
<path d="M161.0536 112.7457
L163.3659 114.0807
" />
<path d="M163.3659 114.0807
L162.0309 116.3930
" />
<path d="M163.3659 114.0807
L178.8764 123.0357
" />
<path d="M166.1336 103.9469
L183.9564 114.2369
" />
<path d="M167.4686 101.6346
L161.0536 112.7457
" />
<path d="M185.2914 111.9246
L167.4686 101.6346
" />
<path d="M156.4600 121.0000
L157.2300 121.0000
" />
<path d="M164.5400 121.0000
L163.7700 121.0000
" />
<path style="fill:none; 
stroke:#000000; stroke-width:0.1200; stroke-opacity:1; 
stroke-linecap:round; stroke-linejoin:round;fill:none"
d="M 157.2300,119.6300
163.7700,119.6300
163.7700,122.3700
157.2300,122.3700
Z" /> 
<path d="M129.3999 81.8153
L130.5950 82.5053
" />
<path d="M128.7099 83.0104
L129.3999 81.8153
" />
<path d="M128.0749 84.1103
L124.2099 90.8047
" />
<path d="M128.0749 84.1103
L130.4651 85.4903
" />
<path d="M124.2099 90.8047
L126.6001 92.1847
" />
<path d="M130.4651 85.4903
L126.6001 92.1847
" />
<path d="M175.7901 91.8047
L174.5950 92.4947
" />
<path d="M175.1001 90.6096
L175.7901 91.8047
" />
<path d="M174.4651 89.5097
L170.6001 82.8153
" />
<path d="M174.4651 89.5097
L172.0749 90.8897
" />
<path d="M170.6001 82.8153
L168.2099 84.1953
" />
<path d="M172.0749 90.8897
L168.2099 84.1953
" />
<path d="M151.3800 118.5800
L150.0000 118.5800
" />
<path d="M151.3800 117.2000
L151.3800 118.5800
" />
<path d="M151.3800 115.9300
L151.3800 87.8800
" />
<path d="M151.3800 115.9300
L148.6200 115.9300
" />
<path d="M151.3800 87.8800
L148.6200 87.8800
" />
<path d="M148.6200 115.9300
L148.6200 87.8800
" />
<path d="M159.4998 85.5544
L168.5065 90.7544
" />
<path d="M157.9898 88.1698
L166.9965 93.3698
" />
<path d="M155.5398 92.4133
L164.5465 97.6133
" />
<path d="M154.7898 93.7123
L163.7965 98.9123
" />
<path d="M154.4798 94.2493
L159.4998 85.5544
" />
<path d="M156.5237 95.4293
L154.4798 94.2493
" />
<path d="M168.5065 90.7544
L163.4865 99.4493
" />
<path d="M163.4865 99.4493
L157.0433 95.7293
" />
<path style="fill:#000000; fill-opacity:1.0000; 
stroke:#000000; stroke-width:0.1200; stroke-opacity:1; 
stroke-linecap:round; stroke-linejoin:round;fill-rule:evenodd;"
d="M 156.8595,96.3276
156.0974,95.8876
156.7835,95.5793
Z" /> 
</g>
<g style="fill:none; 
stroke:#000000; stroke-width:0.1200; stroke-opacity:1; 
stroke-linecap:round; stroke-linejoin:round;">
<path d="M169.6010 94.5403
L170.2938 94.9403
" />
<path d="M170.1474 94.3939
L169.7474 95.0867
" />
<path d="M174.3024 95.2166
L170.2224 102.2834
" />
<path d="M174.3371 95.2366
L170.2571 102.3034
" />
<path d="M174.3712 95.2575
L170.2922 102.3225
" />
<path d="M174.4053 95.2783
L170.3273 102.3417
" />
<path d="M174.4395 95.2992
L170.3625 102.3608
" />
<path d="M174.4731 95.3209
L170.3981 102.3791
" />
<path d="M174.5068 95.3427
L170.4338 102.3973
" />
<path d="M174.5399 95.3653
L170.4699 102.4147
" />
<path d="M174.5735 95.3870
L170.5055 102.4330
" />
<path d="M174.6062 95.4105
L170.5422 102.4495
" />
<path d="M174.6393 95.4331
L170.5783 102.4669
" />
<path d="M174.6715 95.4574
L170.6155 102.4826
" />
<path d="M174.7041 95.4809
L170.6521 102.4991
" />
<path d="M174.7362 95.5052
L170.6892 102.5148
" />
<path d="M174.7684 95.5295
L170.7264 102.5305
" />
<path d="M174.8000 95.5547
L170.7640 102.5453
" />
<path d="M174.8317 95.5799
L170.8017 102.5601
" />
<path d="M174.8628 95.6060
L170.8398 102.5740
" />
<path d="M174.8945 95.6312
L170.8775 102.5888
" />
<path d="M174.9251 95.6581
L170.9161 102.6019
" />
<path d="M174.9562 95.6842
L170.9542 102.6158
" />
<path d="M174.9864 95.7120
L170.9934 102.6280
" />
<path d="M175.0170 95.7389
L171.0320 102.6411
" />
<path d="M175.0472 95.7667
L171.0712 102.6533
" />
<path d="M175.0773 95.7945
L171.1103 102.6655
" />
<path d="M175.1069 95.8231
L171.1499 102.6769
" />
<path d="M175.1366 95.8518
L171.1896 102.6882
" />
<path d="M175.1657 95.8813
L171.2297 102.6987
" />
<path d="M175.1949 95.9108
L171.2699 102.7091
" />
<path d="M175.2235 95.9412
L171.3105 102.7188
" />
<path d="M175.2521 95.9716
L171.3511 102.7284
" />
<path d="M175.2808 96.0020
L171.3918 102.7380
" />
<path d="M175.3089 96.0333
L171.4329 102.7467
" />
<path d="M175.3371 96.0645
L171.4741 102.7555
" />
<path d="M175.3647 96.0967
L171.5157 102.7633
" />
<path d="M175.3923 96.1288
L171.5573 102.7712
" />
<path d="M175.4195 96.1618
L171.5995 102.7782
" />
<path d="M175.4466 96.1948
L174.0641 98.5893
" />
<path d="M173.0241 100.3907
L171.6416 102.7852
" />
<path d="M175.4733 96.2286
L174.0988 98.6093
" />
<path d="M173.0588 100.4107
L171.6843 102.7914
" />
<path d="M175.4999 96.2625
L174.1334 98.6293
" />
<path d="M173.0934 100.4307
L171.7269 102.7975
" />
<path d="M175.5266 96.2963
L174.1681 98.6493
" />
<path d="M173.1281 100.4507
L171.7696 102.8037
" />
<path d="M175.5527 96.3311
L174.2027 98.6693
" />
<path d="M173.1627 100.4707
L171.8127 102.8089
" />
<path d="M175.5783 96.3667
L174.2373 98.6893
" />
<path d="M173.1973 100.4907
L171.8563 102.8133
" />
<path d="M175.6040 96.4022
L174.2720 98.7093
" />
<path d="M173.2320 100.5107
L171.9000 102.8178
" />
<path d="M175.6291 96.4387
L174.3066 98.7293
" />
<path d="M173.2666 100.5307
L171.9441 102.8213
" />
<path d="M175.6543 96.4752
L174.3413 98.7493
" />
<path d="M173.3013 100.5507
L171.9883 102.8248
" />
<path d="M175.6789 96.5125
L174.3759 98.7693
" />
<path d="M173.3359 100.5707
L172.0329 102.8275
" />
<path d="M175.7035 96.5498
L174.4105 98.7893
" />
<path d="M173.3705 100.5907
L172.0775 102.8302
" />
<path d="M175.7277 96.5880
L174.4452 98.8093
" />
<path d="M173.4052 100.6107
L172.1227 102.8320
" />
<path d="M175.7518 96.6262
L174.4798 98.8293
" />
<path d="M173.4398 100.6307
L172.1678 102.8338
" />
<path d="M175.7755 96.6652
L174.5145 98.8493
" />
<path d="M173.4745 100.6507
L172.2135 102.8348
" />
<path d="M175.7986 96.7051
L174.5491 98.8693
" />
<path d="M173.5091 100.6707
L172.2596 102.8349
" />
<path d="M175.8217 96.7451
L174.5837 98.8893
" />
<path d="M173.5437 100.6907
L172.3057 102.8349
" />
<path d="M175.8449 96.7850
L174.6184 98.9093
" />
<path d="M173.5784 100.7107
L172.3519 102.8350
" />
<path d="M175.8670 96.8266
L174.6530 98.9293
" />
<path d="M173.6130 100.7307
L172.3990 102.8334
" />
<path d="M175.8892 96.8683
L174.6877 98.9493
" />
<path d="M173.6477 100.7507
L172.4462 102.8317
" />
<path d="M175.9113 96.9099
L174.7223 98.9693
" />
<path d="M173.6823 100.7707
L172.4933 102.8301
" />
<path d="M175.9330 96.9524
L174.7569 98.9893
" />
<path d="M173.7169 100.7907
L172.5409 102.8276
" />
<path d="M175.9541 96.9958
L174.7916 99.0093
" />
<path d="M173.7516 100.8107
L172.5891 102.8242
" />
<path d="M175.9747 97.0401
L174.8262 99.0293
" />
<path d="M173.7862 100.8307
L172.6377 102.8199
" />
<path d="M175.9954 97.0843
L174.8609 99.0493
" />
<path d="M173.8209 100.8507
L172.6864 102.8157
" />
<path d="M176.0155 97.1294
L174.8955 99.0693
" />
<path d="M173.8555 100.8707
L172.7355 102.8106
" />
<path d="M176.0352 97.1754
L174.9302 99.0893
" />
<path d="M173.8902 100.8907
L172.7852 102.8046
" />
<path d="M176.0543 97.2223
L174.9648 99.1093
" />
<path d="M173.9248 100.9107
L172.8353 102.7977
" />
<path d="M176.0734 97.2691
L174.9994 99.1293
" />
<path d="M173.9594 100.9307
L172.8854 102.7909
" />
<path d="M176.0921 97.3168
L175.0341 99.1493
" />
<path d="M173.9941 100.9507
L172.9361 102.7832
" />
<path d="M176.1102 97.3654
L175.0687 99.1693
" />
<path d="M174.0287 100.9707
L172.9872 102.7746
" />
<path d="M176.1279 97.4148
L175.1034 99.1893
" />
<path d="M174.0634 100.9907
L173.0389 102.7652
" />
<path d="M176.1455 97.4643
L175.1380 99.2093
" />
<path d="M174.0980 101.0107
L173.0905 102.7557
" />
<path d="M176.1621 97.5155
L175.1726 99.2293
" />
<path d="M174.1326 101.0307
L173.1431 102.7445
" />
<path d="M176.1783 97.5675
L175.2073 99.2493
" />
<path d="M174.1673 101.0507
L173.1963 102.7325
" />
<path d="M176.1944 97.6196
L175.2419 99.2693
" />
<path d="M174.2019 101.0707
L173.2494 102.7204
" />
<path d="M176.2096 97.6733
L175.2766 99.2893
" />
<path d="M174.2366 101.0907
L173.3036 102.7067
" />
<path d="M176.2247 97.7271
L175.3112 99.3093
" />
<path d="M174.2712 101.1107
L173.3577 102.6929
" />
<path d="M176.2388 97.7826
L175.3458 99.3293
" />
<path d="M174.3058 101.1307
L173.4128 102.6774
" />
<path d="M176.2525 97.8390
L175.3805 99.3493
" />
<path d="M174.3405 101.1507
L173.4685 102.6610
" />
<path d="M176.2656 97.8962
L175.4151 99.3693
" />
<path d="M174.3751 101.1707
L173.5246 102.6438
" />
<path d="M176.2778 97.9552
L175.4498 99.3893
" />
<path d="M174.4098 101.1907
L173.5818 102.6248
" />
<path d="M176.2899 98.0142
L175.4844 99.4093
" />
<path d="M174.4444 101.2107
L173.6389 102.6058
" />
<path d="M176.3011 98.0749
L175.5191 99.4293
" />
<path d="M174.4791 101.2307
L173.6971 102.5851
" />
<path d="M176.3112 98.1373
L175.5537 99.4493
" />
<path d="M174.5137 101.2507
L173.7562 102.5627
" />
<path d="M176.3208 98.2006
L175.5883 99.4693
" />
<path d="M174.5483 101.2707
L173.8158 102.5394
" />
<path d="M176.3295 98.2656
L175.6230 99.4893
" />
<path d="M174.5830 101.2907
L173.8765 102.5144
" />
<path d="M176.3376 98.3315
L175.6576 99.5093
" />
<path d="M174.6176 101.3107
L173.9376 102.4885
" />
<path d="M176.3443 98.4000
L175.6923 99.5293
" />
<path d="M174.6523 101.3307
L174.0003 102.4600
" />
<path d="M176.3504 98.4694
L175.7269 99.5493
" />
<path d="M174.6869 101.3507
L174.0634 102.4306
" />
<path d="M176.3550 98.5414
L175.7615 99.5693
" />
<path d="M174.7215 101.3707
L174.1280 102.3986
" />
<path d="M176.3587 98.6151
L175.7962 99.5893
" />
<path d="M174.7562 101.3907
L174.1937 102.3649
" />
<path d="M176.3613 98.6905
L175.8308 99.6093
" />
<path d="M174.7908 101.4107
L174.2603 102.3295
" />
<path d="M176.3625 98.7685
L174.3285 102.2915
" />
<path d="M176.3621 98.8491
L174.3981 102.2509
" />
<path d="M176.3597 98.9332
L174.4697 102.2068
" />
<path d="M176.3559 99.0199
L174.5429 102.1601
" />
<path d="M176.3495 99.1109
L174.6185 102.1091
" />
<path d="M176.3407 99.2063
L174.6967 102.0537
" />
<path d="M176.3293 99.3059
L174.7773 101.9941
" />
<path d="M176.3144 99.4117
L174.8614 101.9283
" />
<path d="M176.2956 99.5243
L174.9496 101.8557
" />
<path d="M176.2712 99.6465
L175.0432 101.7735
" />
<path d="M176.2404 99.7800
L175.1434 101.6800
" />
<path d="M176.2000 99.9299
L175.2530 101.5701
" />
<path d="M176.1452 100.1049
L175.3772 101.4351
" />
<path d="M176.0623 100.3284
L175.5293 101.2516
" />
<circle cx="172.2624" cy="98.7500" r="4.1200" /> 
<path d="M145.5957 120.8000
L144.9029 121.2000
" />
<path d="M145.4493 121.3464
L145.0493 120.6536
" />
<path d="M142.6593 124.5334
L138.5793 117.4666
" />
<path d="M142.6247 124.5534
L138.5447 117.4866
" />
<path d="M142.5895 124.5725
L138.5105 117.5075
" />
<path d="M142.5544 124.5917
L138.4764 117.5283
" />
<path d="M142.5192 124.6108
L138.4422 117.5492
" />
<path d="M142.4836 124.6291
L138.4086 117.5709
" />
<path d="M142.4479 124.6473
L138.3749 117.5927
" />
<path d="M142.4118 124.6647
L138.3418 117.6153
" />
<path d="M142.3762 124.6830
L138.3082 117.6370
" />
<path d="M142.3395 124.6995
L138.2755 117.6605
" />
<path d="M142.3034 124.7169
L138.2424 117.6831
" />
<path d="M142.2662 124.7326
L138.2102 117.7074
" />
<path d="M142.2296 124.7491
L138.1776 117.7309
" />
<path d="M142.1925 124.7648
L138.1455 117.7552
" />
<path d="M142.1553 124.7805
L138.1133 117.7795
" />
<path d="M142.1177 124.7953
L138.0817 117.8047
" />
<path d="M142.0800 124.8101
L138.0500 117.8299
" />
<path d="M142.0419 124.8240
L138.0189 117.8560
" />
<path d="M142.0043 124.8388
L137.9873 117.8812
" />
<path d="M141.9656 124.8519
L137.9566 117.9081
" />
<path d="M141.9275 124.8658
L137.9255 117.9342
" />
<path d="M141.8883 124.8780
L137.8953 117.9620
" />
<path d="M141.8497 124.8911
L137.8647 117.9889
" />
<path d="M141.8106 124.9033
L137.8346 118.0167
" />
<path d="M141.7714 124.9155
L137.8044 118.0445
" />
<path d="M141.7318 124.9269
L137.7748 118.0731
" />
<path d="M141.6921 124.9382
L137.7451 118.1018
" />
<path d="M141.6520 124.9487
L137.7160 118.1313
" />
<path d="M141.6118 124.9591
L137.6868 118.1608
" />
<path d="M141.5712 124.9688
L137.6582 118.1912
" />
<path d="M141.5306 124.9784
L137.6296 118.2216
" />
<path d="M141.4899 124.9880
L137.6009 118.2520
" />
<path d="M141.4488 124.9967
L137.5728 118.2833
" />
<path d="M141.4076 125.0055
L137.5446 118.3145
" />
<path d="M141.3660 125.0133
L137.5170 118.3467
" />
<path d="M141.3244 125.0212
L137.4894 118.3788
" />
<path d="M141.2822 125.0282
L137.4622 118.4118
" />
<path d="M141.2401 125.0352
L139.8576 122.6407
" />
<path d="M138.8176 120.8393
L137.4351 118.4448
" />
<path d="M141.1974 125.0414
L139.8229 122.6607
" />
<path d="M138.7829 120.8593
L137.4084 118.4786
" />
<path d="M141.1548 125.0475
L139.7883 122.6807
" />
<path d="M138.7483 120.8793
L137.3818 118.5125
" />
<path d="M141.1122 125.0537
L139.7537 122.7007
" />
<path d="M138.7137 120.8993
L137.3552 118.5463
" />
<path d="M141.0690 125.0589
L139.7190 122.7207
" />
<path d="M138.6790 120.9193
L137.3290 118.5811
" />
<path d="M141.0254 125.0633
L139.6844 122.7407
" />
<path d="M138.6444 120.9393
L137.3034 118.6167
" />
<path d="M140.9817 125.0678
L139.6497 122.7607
" />
<path d="M138.6097 120.9593
L137.2777 118.6522
" />
<path d="M140.9376 125.0713
L139.6151 122.7807
" />
<path d="M138.5751 120.9793
L137.2526 118.6887
" />
<path d="M140.8934 125.0748
L139.5804 122.8007
" />
<path d="M138.5404 120.9993
L137.2274 118.7252
" />
<path d="M140.8488 125.0775
L139.5458 122.8207
" />
<path d="M138.5058 121.0193
L137.2028 118.7625
" />
<path d="M140.8042 125.0802
L139.5112 122.8407
" />
<path d="M138.4712 121.0393
L137.1782 118.7998
" />
<path d="M140.7590 125.0820
L139.4765 122.8607
" />
<path d="M138.4365 121.0593
L137.1540 118.8380
" />
<path d="M140.7139 125.0838
L139.4419 122.8807
" />
<path d="M138.4019 121.0793
L137.1299 118.8762
" />
<path d="M140.6682 125.0848
L139.4072 122.9007
" />
<path d="M138.3672 121.0993
L137.1062 118.9152
" />
<path d="M140.6221 125.0849
L139.3726 122.9207
" />
<path d="M138.3326 121.1193
L137.0831 118.9551
" />
<path d="M140.5760 125.0849
L139.3380 122.9407
" />
<path d="M138.2980 121.1393
L137.0600 118.9951
" />
<path d="M140.5298 125.0850
L139.3033 122.9607
" />
<path d="M138.2633 121.1593
L137.0368 119.0350
" />
<path d="M140.4827 125.0834
L139.2687 122.9807
" />
<path d="M138.2287 121.1793
L137.0147 119.0766
" />
<path d="M140.4355 125.0817
L139.2340 123.0007
" />
<path d="M138.1940 121.1993
L136.9925 119.1183
" />
<path d="M140.3884 125.0801
L139.1994 123.0207
" />
<path d="M138.1594 121.2193
L136.9704 119.1599
" />
<path d="M140.3408 125.0776
L139.1648 123.0407
" />
<path d="M138.1248 121.2393
L136.9488 119.2024
" />
<path d="M140.2926 125.0742
L139.1301 123.0607
" />
<path d="M138.0901 121.2593
L136.9276 119.2458
" />
<path d="M140.2440 125.0699
L139.0955 123.0807
" />
<path d="M138.0555 121.2793
L136.9070 119.2901
" />
<path d="M140.1953 125.0657
L139.0608 123.1007
" />
<path d="M138.0208 121.2993
L136.8863 119.3343
" />
<path d="M140.1462 125.0606
L139.0262 123.1207
" />
<path d="M137.9862 121.3193
L136.8662 119.3794
" />
<path d="M140.0966 125.0546
L138.9916 123.1407
" />
<path d="M137.9516 121.3393
L136.8466 119.4254
" />
<path d="M140.0464 125.0477
L138.9569 123.1607
" />
<path d="M137.9169 121.3593
L136.8274 119.4723
" />
<path d="M139.9963 125.0409
L138.9223 123.1807
" />
<path d="M137.8823 121.3793
L136.8083 119.5191
" />
<path d="M139.9456 125.0332
L138.8876 123.2007
" />
<path d="M137.8476 121.3993
L136.7896 119.5668
" />
<path d="M139.8945 125.0246
L138.8530 123.2207
" />
<path d="M137.8130 121.4193
L136.7715 119.6154
" />
<path d="M139.8428 125.0152
L138.8183 123.2407
" />
<path d="M137.7783 121.4393
L136.7538 119.6648
" />
<path d="M139.7912 125.0057
L138.7837 123.2607
" />
<path d="M137.7437 121.4593
L136.7362 119.7143
" />
<path d="M139.7386 124.9945
L138.7491 123.2807
" />
<path d="M137.7091 121.4793
L136.7196 119.7655
" />
<path d="M139.6854 124.9825
L138.7144 123.3007
" />
<path d="M137.6744 121.4993
L136.7034 119.8175
" />
<path d="M139.6323 124.9704
L138.6798 123.3207
" />
<path d="M137.6398 121.5193
L136.6873 119.8696
" />
<path d="M139.5781 124.9567
L138.6451 123.3407
" />
<path d="M137.6051 121.5393
L136.6721 119.9233
" />
<path d="M139.5240 124.9429
L138.6105 123.3607
" />
<path d="M137.5705 121.5593
L136.6570 119.9771
" />
<path d="M139.4689 124.9274
L138.5759 123.3807
" />
<path d="M137.5359 121.5793
L136.6429 120.0326
" />
<path d="M139.4132 124.9110
L138.5412 123.4007
" />
<path d="M137.5012 121.5993
L136.6292 120.0890
" />
<path d="M139.3571 124.8938
L138.5066 123.4207
" />
<path d="M137.4666 121.6193
L136.6161 120.1462
" />
<path d="M139.2999 124.8748
L138.4719 123.4407
" />
<path d="M137.4319 121.6393
L136.6039 120.2052
" />
<path d="M139.2428 124.8558
L138.4373 123.4607
" />
<path d="M137.3973 121.6593
L136.5918 120.2642
" />
<path d="M139.1847 124.8351
L138.4027 123.4807
" />
<path d="M137.3627 121.6793
L136.5807 120.3249
" />
<path d="M139.1255 124.8127
L138.3680 123.5007
" />
<path d="M137.3280 121.6993
L136.5705 120.3873
" />
<path d="M139.0659 124.7894
L138.3334 123.5207
" />
<path d="M137.2934 121.7193
L136.5609 120.4506
" />
<path d="M139.0052 124.7644
L138.2987 123.5407
" />
<path d="M137.2587 121.7393
L136.5522 120.5156
" />
<path d="M138.9441 124.7385
L138.2641 123.5607
" />
<path d="M137.2241 121.7593
L136.5441 120.5815
" />
<path d="M138.8814 124.7100
L138.2294 123.5807
" />
<path d="M137.1894 121.7793
L136.5374 120.6500
" />
<path d="M138.8183 124.6806
L138.1948 123.6007
" />
<path d="M137.1548 121.7993
L136.5313 120.7194
" />
<path d="M138.7537 124.6486
L138.1602 123.6207
" />
<path d="M137.1202 121.8193
L136.5267 120.7914
" />
<path d="M138.6880 124.6149
L138.1255 123.6407
" />
<path d="M137.0855 121.8393
L136.5230 120.8651
" />
<path d="M138.6214 124.5795
L138.0909 123.6607
" />
<path d="M137.0509 121.8593
L136.5204 120.9405
" />
<path d="M138.5532 124.5415
L136.5192 121.0185
" />
<path d="M138.4836 124.5009
L136.5196 121.0991
" />
<path d="M138.4120 124.4568
L136.5220 121.1832
" />
<path d="M138.3388 124.4101
L136.5258 121.2699
" />
<path d="M138.2632 124.3591
L136.5322 121.3609
" />
<path d="M138.1850 124.3037
L136.5410 121.4563
" />
<path d="M138.1044 124.2441
L136.5524 121.5559
" />
<path d="M138.0203 124.1783
L136.5673 121.6617
" />
<path d="M137.9321 124.1057
L136.5861 121.7743
" />
<path d="M137.8385 124.0235
L136.6105 121.8965
" />
<path d="M137.7383 123.9300
L136.6413 122.0300
" />
<path d="M137.6287 123.8201
L136.6817 122.1799
" />
<path d="M137.5046 123.6851
L136.7366 122.3549
" />
<path d="M137.3524 123.5016
L136.8194 122.5784
" />
<circle cx="140.6193" cy="121.0000" r="4.1200" /> 
<path d="M134.6850 86.8123
L134.6850 86.0123
" />
<path d="M134.2850 86.4123
L135.0850 86.4123
" />
<path d="M132.9200 82.4027
L141.0800 82.4027
" />
<path d="M132.9200 82.3627
L141.0800 82.3627
" />
<path d="M132.9210 82.3227
L141.0790 82.3227
" />
<path d="M132.9220 82.2827
L141.0780 82.2827
" />
<path d="M132.9230 82.2427
L141.0770 82.2427
" />
<path d="M132.9250 82.2027
L141.0750 82.2027
" />
<path d="M132.9270 82.1627
L141.0730 82.1627
" />
<path d="M132.9300 82.1227
L141.0700 82.1227
" />
<path d="M132.9320 82.0827
L141.0680 82.0827
" />
<path d="M132.9360 82.0427
L141.0640 82.0427
" />
<path d="M132.9390 82.0027
L141.0610 82.0027
" />
<path d="M132.9440 81.9627
L141.0560 81.9627
" />
<path d="M132.9480 81.9227
L141.0520 81.9227
" />
<path d="M132.9530 81.8827
L141.0470 81.8827
" />
<path d="M132.9580 81.8427
L141.0420 81.8427
" />
<path d="M132.9640 81.8027
L141.0360 81.8027
" />
<path d="M132.9700 81.7627
L141.0300 81.7627
" />
<path d="M132.9770 81.7227
L141.0230 81.7227
" />
<path d="M132.9830 81.6827
L141.0170 81.6827
" />
<path d="M132.9910 81.6427
L141.0090 81.6427
" />
<path d="M132.9980 81.6027
L141.0020 81.6027
" />
<path d="M133.0070 81.5627
L140.9930 81.5627
" />
<path d="M133.0150 81.5227
L140.9850 81.5227
" />
<path d="M133.0240 81.4827
L140.9760 81.4827
" />
<path d="M133.0330 81.4427
L140.9670 81.4427
" />
<path d="M133.0430 81.4027
L140.9570 81.4027
" />
<path d="M133.0530 81.3627
L140.9470 81.3627
" />
<path d="M133.0640 81.3227
L140.9360 81.3227
" />
<path d="M133.0750 81.2827
L140.9250 81.2827
" />
<path d="M133.0870 81.2427
L140.9130 81.2427
" />
<path d="M133.0990 81.2027
L140.9010 81.2027
" />
<path d="M133.1110 81.1627
L140.8890 81.1627
" />
<path d="M133.1240 81.1227
L140.8760 81.1227
" />
<path d="M133.1370 81.0827
L140.8630 81.0827
" />
<path d="M133.1510 81.0427
L140.8490 81.0427
" />
<path d="M133.1650 81.0027
L140.8350 81.0027
" />
<path d="M133.1800 80.9627
L140.8200 80.9627
" />
<path d="M133.1950 80.9227
L135.9600 80.9227
" />
<path d="M138.0400 80.9227
L140.8050 80.9227
" />
<path d="M133.2110 80.8827
L135.9600 80.8827
" />
<path d="M138.0400 80.8827
L140.7890 80.8827
" />
<path d="M133.2270 80.8427
L135.9600 80.8427
" />
<path d="M138.0400 80.8427
L140.7730 80.8427
" />
<path d="M133.2430 80.8027
L135.9600 80.8027
" />
<path d="M138.0400 80.8027
L140.7570 80.8027
" />
<path d="M133.2600 80.7627
L135.9600 80.7627
" />
<path d="M138.0400 80.7627
L140.7400 80.7627
" />
<path d="M133.2780 80.7227
L135.9600 80.7227
" />
<path d="M138.0400 80.7227
L140.7220 80.7227
" />
<path d="M133.2960 80.6827
L135.9600 80.6827
" />
<path d="M138.0400 80.6827
L140.7040 80.6827
" />
<path d="M133.3150 80.6427
L135.9600 80.6427
" />
<path d="M138.0400 80.6427
L140.6850 80.6427
" />
<path d="M133.3340 80.6027
L135.9600 80.6027
" />
<path d="M138.0400 80.6027
L140.6660 80.6027
" />
<path d="M133.3540 80.5627
L135.9600 80.5627
" />
<path d="M138.0400 80.5627
L140.6460 80.5627
" />
<path d="M133.3740 80.5227
L135.9600 80.5227
" />
<path d="M138.0400 80.5227
L140.6260 80.5227
" />
<path d="M133.3950 80.4827
L135.9600 80.4827
" />
<path d="M138.0400 80.4827
L140.6050 80.4827
" />
<path d="M133.4160 80.4427
L135.9600 80.4427
" />
<path d="M138.0400 80.4427
L140.5840 80.4427
" />
<path d="M133.4380 80.4027
L135.9600 80.4027
" />
<path d="M138.0400 80.4027
L140.5620 80.4027
" />
<path d="M133.4610 80.3627
L135.9600 80.3627
" />
<path d="M138.0400 80.3627
L140.5390 80.3627
" />
<path d="M133.4840 80.3227
L135.9600 80.3227
" />
<path d="M138.0400 80.3227
L140.5160 80.3227
" />
<path d="M133.5070 80.2827
L135.9600 80.2827
" />
<path d="M138.0400 80.2827
L140.4930 80.2827
" />
<path d="M133.5320 80.2427
L135.9600 80.2427
" />
<path d="M138.0400 80.2427
L140.4680 80.2427
" />
<path d="M133.5570 80.2027
L135.9600 80.2027
" />
<path d="M138.0400 80.2027
L140.4430 80.2027
" />
<path d="M133.5820 80.1627
L135.9600 80.1627
" />
<path d="M138.0400 80.1627
L140.4180 80.1627
" />
<path d="M133.6080 80.1227
L135.9600 80.1227
" />
<path d="M138.0400 80.1227
L140.3920 80.1227
" />
<path d="M133.6350 80.0827
L135.9600 80.0827
" />
<path d="M138.0400 80.0827
L140.3650 80.0827
" />
<path d="M133.6630 80.0427
L135.9600 80.0427
" />
<path d="M138.0400 80.0427
L140.3370 80.0427
" />
<path d="M133.6910 80.0027
L135.9600 80.0027
" />
<path d="M138.0400 80.0027
L140.3090 80.0027
" />
<path d="M133.7200 79.9627
L135.9600 79.9627
" />
<path d="M138.0400 79.9627
L140.2800 79.9627
" />
<path d="M133.7500 79.9227
L135.9600 79.9227
" />
<path d="M138.0400 79.9227
L140.2500 79.9227
" />
<path d="M133.7810 79.8827
L135.9600 79.8827
" />
<path d="M138.0400 79.8827
L140.2190 79.8827
" />
<path d="M133.8120 79.8427
L135.9600 79.8427
" />
<path d="M138.0400 79.8427
L140.1880 79.8427
" />
<path d="M133.8440 79.8027
L135.9600 79.8027
" />
<path d="M138.0400 79.8027
L140.1560 79.8027
" />
<path d="M133.8770 79.7627
L135.9600 79.7627
" />
<path d="M138.0400 79.7627
L140.1230 79.7627
" />
<path d="M133.9110 79.7227
L135.9600 79.7227
" />
<path d="M138.0400 79.7227
L140.0890 79.7227
" />
<path d="M133.9450 79.6827
L135.9600 79.6827
" />
<path d="M138.0400 79.6827
L140.0550 79.6827
" />
<path d="M133.9810 79.6427
L135.9600 79.6427
" />
<path d="M138.0400 79.6427
L140.0190 79.6427
" />
<path d="M134.0180 79.6027
L135.9600 79.6027
" />
<path d="M138.0400 79.6027
L139.9820 79.6027
" />
<path d="M134.0550 79.5627
L135.9600 79.5627
" />
<path d="M138.0400 79.5627
L139.9450 79.5627
" />
<path d="M134.0940 79.5227
L135.9600 79.5227
" />
<path d="M138.0400 79.5227
L139.9060 79.5227
" />
<path d="M134.1330 79.4827
L135.9600 79.4827
" />
<path d="M138.0400 79.4827
L139.8670 79.4827
" />
<path d="M134.1740 79.4427
L135.9600 79.4427
" />
<path d="M138.0400 79.4427
L139.8260 79.4427
" />
<path d="M134.2160 79.4027
L135.9600 79.4027
" />
<path d="M138.0400 79.4027
L139.7840 79.4027
" />
<path d="M134.2590 79.3627
L135.9600 79.3627
" />
<path d="M138.0400 79.3627
L139.7410 79.3627
" />
<path d="M134.3040 79.3227
L135.9600 79.3227
" />
<path d="M138.0400 79.3227
L139.6960 79.3227
" />
<path d="M134.3490 79.2827
L135.9600 79.2827
" />
<path d="M138.0400 79.2827
L139.6510 79.2827
" />
<path d="M134.3960 79.2427
L135.9600 79.2427
" />
<path d="M138.0400 79.2427
L139.6040 79.2427
" />
<path d="M134.4450 79.2027
L135.9600 79.2027
" />
<path d="M138.0400 79.2027
L139.5550 79.2027
" />
<path d="M134.4950 79.1627
L135.9600 79.1627
" />
<path d="M138.0400 79.1627
L139.5050 79.1627
" />
<path d="M134.5470 79.1227
L135.9600 79.1227
" />
<path d="M138.0400 79.1227
L139.4530 79.1227
" />
<path d="M134.6000 79.0827
L135.9600 79.0827
" />
<path d="M138.0400 79.0827
L139.4000 79.0827
" />
<path d="M134.6560 79.0427
L135.9600 79.0427
" />
<path d="M138.0400 79.0427
L139.3440 79.0427
" />
<path d="M134.7130 79.0027
L135.9600 79.0027
" />
<path d="M138.0400 79.0027
L139.2870 79.0027
" />
<path d="M134.7730 78.9627
L135.9600 78.9627
" />
<path d="M138.0400 78.9627
L139.2270 78.9627
" />
<path d="M134.8350 78.9227
L135.9600 78.9227
" />
<path d="M138.0400 78.9227
L139.1650 78.9227
" />
<path d="M134.8990 78.8827
L135.9600 78.8827
" />
<path d="M138.0400 78.8827
L139.1010 78.8827
" />
<path d="M134.9660 78.8427
L139.0340 78.8427
" />
<path d="M135.0360 78.8027
L138.9640 78.8027
" />
<path d="M135.1100 78.7627
L138.8900 78.7627
" />
<path d="M135.1870 78.7227
L138.8130 78.7227
" />
<path d="M135.2690 78.6827
L138.7310 78.6827
" />
<path d="M135.3560 78.6427
L138.6440 78.6427
" />
<path d="M135.4480 78.6027
L138.5520 78.6027
" />
<path d="M135.5470 78.5627
L138.4530 78.5627
" />
<path d="M135.6540 78.5227
L138.3460 78.5227
" />
<path d="M135.7720 78.4827
L138.2280 78.4827
" />
<path d="M135.9030 78.4427
L138.0970 78.4427
" />
<path d="M136.0530 78.4027
L137.9470 78.4027
" />
<path d="M136.2320 78.3627
L137.7680 78.3627
" />
<path d="M136.4670 78.3227
L137.5330 78.3227
" />
<circle cx="137.0000" cy="82.4027" r="4.1200" /> 
</g> 
</svg>
